Mitr-Regular.ufo
<glyph name="exclam" format="1">
  <advance width="222"/>
  <unicode hex="0021"/>
  <note>
	exclam
  </note>
  <outline>
    <contour>
      <point x="134" y="189" type="line" smooth="yes"/>
      <point x="162" y="189"/>
      <point x="169" y="201"/>
      <point x="169" y="225" type="curve" smooth="yes"/>
      <point x="176" y="643" type="line" smooth="yes"/>
      <point x="176" y="667"/>
      <point x="167" y="680"/>
      <point x="139" y="680" type="curve" smooth="yes"/>
      <point x="84" y="680" type="line" smooth="yes"/>
      <point x="56" y="680"/>
      <point x="47" y="667"/>
      <point x="47" y="643" type="curve" smooth="yes"/>
      <point x="53" y="225" type="line" smooth="yes"/>
      <point x="53" y="199"/>
      <point x="62" y="189"/>
      <point x="85" y="189" type="curve" smooth="yes"/>
    </contour>
    <contour>
      <point x="124" y="0" type="line" smooth="yes"/>
      <point x="163" y="0"/>
      <point x="183" y="13"/>
      <point x="183" y="41" type="curve" smooth="yes"/>
      <point x="183" y="62" type="line" smooth="yes"/>
      <point x="183" y="90"/>
      <point x="163" y="104"/>
      <point x="124" y="104" type="curve" smooth="yes"/>
      <point x="98" y="104" type="line" smooth="yes"/>
      <point x="59" y="104"/>
      <point x="39" y="91"/>
      <point x="39" y="62" type="curve" smooth="yes"/>
      <point x="39" y="41" type="line" smooth="yes"/>
      <point x="39" y="13"/>
      <point x="59" y="0"/>
      <point x="98" y="0" type="curve" smooth="yes"/>
    </contour>
  </outline>
</glyph>
<glyph name="quotedbl" format="1">
  <advance width="347"/>
  <unicode hex="0022"/>
  <note>
	quotedbl
  </note>
  <outline>
    <contour>
      <point x="268" y="491" type="line" smooth="yes"/>
      <point x="290" y="491"/>
      <point x="299" y="498"/>
      <point x="300" y="520" type="curve" smooth="yes"/>
      <point x="308" y="670" type="line" smooth="yes"/>
      <point x="309" y="692"/>
      <point x="300" y="699"/>
      <point x="275" y="699" type="curve" smooth="yes"/>
      <point x="240" y="699" type="line" smooth="yes"/>
      <point x="216" y="699"/>
      <point x="207" y="692"/>
      <point x="208" y="670" type="curve" smooth="yes"/>
      <point x="214" y="520" type="line" smooth="yes"/>
      <point x="215" y="499"/>
      <point x="224" y="491"/>
      <point x="243" y="491" type="curve" smooth="yes"/>
    </contour>
    <contour>
      <point x="99" y="491" type="line" smooth="yes"/>
      <point x="121" y="491"/>
      <point x="131" y="498"/>
      <point x="132" y="520" type="curve" smooth="yes"/>
      <point x="139" y="670" type="line" smooth="yes"/>
      <point x="140" y="692"/>
      <point x="131" y="699"/>
      <point x="106" y="699" type="curve" smooth="yes"/>
      <point x="72" y="699" type="line" smooth="yes"/>
      <point x="47" y="699"/>
      <point x="38" y="692"/>
      <point x="39" y="670" type="curve" smooth="yes"/>
      <point x="45" y="520" type="line" smooth="yes"/>
      <point x="46" y="499"/>
      <point x="55" y="491"/>
      <point x="74" y="491" type="curve" smooth="yes"/>
    </contour>
  </outline>
</glyph>
<glyph name="dollar" format="1">
  <advance width="589"/>
  <unicode hex="0024"/>
  <note>
	dollar
  </note>
  <outline>
    <contour>
      <point x="324" y="-93" type="line" smooth="yes"/>
      <point x="352" y="-93"/>
      <point x="362" y="-81"/>
      <point x="362" y="-57" type="curve" smooth="yes"/>
      <point x="362" y="-11" type="line"/>
      <point x="488" y="5"/>
      <point x="550" y="76"/>
      <point x="550" y="170" type="curve" smooth="yes"/>
      <point x="550" y="286"/>
      <point x="491" y="327"/>
      <point x="350" y="383" type="curve" smooth="yes"/>
      <point x="247" y="424"/>
      <point x="189" y="434"/>
      <point x="189" y="504" type="curve" smooth="yes"/>
      <point x="189" y="575"/>
      <point x="235" y="600"/>
      <point x="315" y="600" type="curve" smooth="yes"/>
      <point x="380" y="600"/>
      <point x="438" y="586"/>
      <point x="475" y="560" type="curve" smooth="yes"/>
      <point x="486" y="552"/>
      <point x="491" y="553"/>
      <point x="498" y="564" type="curve" smooth="yes"/>
      <point x="529" y="614" type="line" smooth="yes"/>
      <point x="537" y="626"/>
      <point x="534" y="633"/>
      <point x="521" y="642" type="curve" smooth="yes"/>
      <point x="483" y="669"/>
      <point x="436" y="687"/>
      <point x="362" y="691" type="curve"/>
      <point x="362" y="738" type="line" smooth="yes"/>
      <point x="362" y="762"/>
      <point x="352" y="775"/>
      <point x="324" y="775" type="curve" smooth="yes"/>
      <point x="280" y="775" type="line" smooth="yes"/>
      <point x="252" y="775"/>
      <point x="242" y="762"/>
      <point x="242" y="738" type="curve" smooth="yes"/>
      <point x="242" y="688" type="line"/>
      <point x="130" y="672"/>
      <point x="62" y="613"/>
      <point x="62" y="505" type="curve" smooth="yes"/>
      <point x="62" y="387"/>
      <point x="171" y="331"/>
      <point x="273" y="294" type="curve" smooth="yes"/>
      <point x="379" y="256"/>
      <point x="423" y="240"/>
      <point x="423" y="174" type="curve" smooth="yes"/>
      <point x="423" y="113"/>
      <point x="387" y="79"/>
      <point x="289" y="79" type="curve" smooth="yes"/>
      <point x="222" y="79"/>
      <point x="154" y="97"/>
      <point x="100" y="126" type="curve"/>
      <point x="88" y="133"/>
      <point x="83" y="133"/>
      <point x="76" y="122" type="curve" smooth="yes"/>
      <point x="44" y="70" type="line"/>
      <point x="36" y="58"/>
      <point x="38" y="52"/>
      <point x="52" y="42" type="curve" smooth="yes"/>
      <point x="97" y="11"/>
      <point x="171" y="-5"/>
      <point x="242" y="-11" type="curve"/>
      <point x="242" y="-57" type="line" smooth="yes"/>
      <point x="242" y="-81"/>
      <point x="252" y="-93"/>
      <point x="280" y="-93" type="curve" smooth="yes"/>
    </contour>
  </outline>
</glyph>
<glyph name="ampersand" format="1">
  <advance width="725"/>
  <unicode hex="0026"/>
  <note>
	ampersand
  </note>
  <outline>
    <contour>
      <point x="527" y="-15"/>
      <point x="621" y="105"/>
      <point x="621" y="256" type="curve" smooth="yes"/>
      <point x="621" y="311" type="line"/>
      <point x="660" y="311" type="line" smooth="yes"/>
      <point x="687" y="311"/>
      <point x="696" y="321"/>
      <point x="696" y="346" type="curve" smooth="yes"/>
      <point x="696" y="372" type="line" smooth="yes"/>
      <point x="696" y="397"/>
      <point x="687" y="408"/>
      <point x="660" y="408" type="curve" smooth="yes"/>
      <point x="322" y="408" type="line" smooth="yes"/>
      <point x="245" y="408"/>
      <point x="192" y="422"/>
      <point x="192" y="500" type="curve" smooth="yes"/>
      <point x="192" y="570"/>
      <point x="243" y="598"/>
      <point x="338" y="598" type="curve" smooth="yes"/>
      <point x="410" y="598"/>
      <point x="454" y="580"/>
      <point x="486" y="556" type="curve" smooth="yes"/>
      <point x="498" y="547"/>
      <point x="504" y="548"/>
      <point x="511" y="560" type="curve"/>
      <point x="541" y="607" type="line" smooth="yes"/>
      <point x="547" y="617"/>
      <point x="546" y="626"/>
      <point x="537" y="634" type="curve"/>
      <point x="491" y="672"/>
      <point x="426" y="695"/>
      <point x="326" y="695" type="curve" smooth="yes"/>
      <point x="177" y="695"/>
      <point x="66" y="630"/>
      <point x="66" y="502" type="curve" smooth="yes"/>
      <point x="66" y="446"/>
      <point x="93" y="391"/>
      <point x="141" y="364" type="curve"/>
      <point x="71" y="333"/>
      <point x="40" y="263"/>
      <point x="40" y="193" type="curve" smooth="yes"/>
      <point x="40" y="53"/>
      <point x="162" y="-15"/>
      <point x="327" y="-15" type="curve" smooth="yes"/>
    </contour>
    <contour>
      <point x="222" y="79"/>
      <point x="165" y="118"/>
      <point x="165" y="199" type="curve" smooth="yes"/>
      <point x="165" y="277"/>
      <point x="204" y="311"/>
      <point x="287" y="311" type="curve" smooth="yes"/>
      <point x="501" y="311" type="line"/>
      <point x="501" y="260" type="line" smooth="yes"/>
      <point x="501" y="145"/>
      <point x="452" y="79"/>
      <point x="330" y="79" type="curve" smooth="yes"/>
    </contour>
  </outline>
</glyph>
<glyph name="parenright" format="1">
  <advance width="352"/>
  <unicode hex="0029"/>
  <note>
	parenright
  </note>
  <outline>
    <contour>
      <point x="230" y="-67"/>
      <point x="313" y="113"/>
      <point x="313" y="316" type="curve" smooth="yes"/>
      <point x="313" y="518"/>
      <point x="230" y="698"/>
      <point x="93" y="755" type="curve" smooth="yes"/>
      <point x="49" y="773"/>
      <point x="23" y="767"/>
      <point x="23" y="725" type="curve" smooth="yes"/>
      <point x="23" y="691"/>
      <point x="28" y="684"/>
      <point x="52" y="666" type="curve" smooth="yes"/>
      <point x="144" y="599"/>
      <point x="186" y="472"/>
      <point x="186" y="316" type="curve" smooth="yes"/>
      <point x="186" y="159"/>
      <point x="145" y="31"/>
      <point x="52" y="-35" type="curve" smooth="yes"/>
      <point x="28" y="-52"/>
      <point x="23" y="-60"/>
      <point x="23" y="-94" type="curve" smooth="yes"/>
      <point x="23" y="-135"/>
      <point x="49" y="-142"/>
      <point x="93" y="-124" type="curve" smooth="yes"/>
    </contour>
  </outline>
</glyph>
<glyph name="asterisk" format="1">
  <advance width="425"/>
  <unicode hex="002A"/>
  <note>
	asterisk
  </note>
  <outline>
    <contour>
      <point x="354" y="421" type="line" smooth="yes"/>
      <point x="362" y="428"/>
      <point x="363" y="437"/>
      <point x="355" y="445" type="curve" smooth="yes"/>
      <point x="280" y="525" type="line"/>
      <point x="375" y="566" type="line" smooth="yes"/>
      <point x="385" y="570"/>
      <point x="389" y="577"/>
      <point x="384" y="586" type="curve" smooth="yes"/>
      <point x="362" y="629" type="line"/>
      <point x="358" y="638"/>
      <point x="352" y="639"/>
      <point x="342" y="635" type="curve"/>
      <point x="257" y="597" type="line"/>
      <point x="257" y="687" type="line" smooth="yes"/>
      <point x="257" y="702"/>
      <point x="252" y="710"/>
      <point x="236" y="710" type="curve" smooth="yes"/>
      <point x="189" y="710" type="line" smooth="yes"/>
      <point x="173" y="710"/>
      <point x="167" y="702"/>
      <point x="167" y="687" type="curve" smooth="yes"/>
      <point x="167" y="598" type="line"/>
      <point x="81" y="637" type="line"/>
      <point x="73" y="640"/>
      <point x="68" y="640"/>
      <point x="63" y="630" type="curve" smooth="yes"/>
      <point x="41" y="587" type="line" smooth="yes"/>
      <point x="36" y="578"/>
      <point x="39" y="571"/>
      <point x="49" y="567" type="curve" smooth="yes"/>
      <point x="144" y="526" type="line"/>
      <point x="69" y="446" type="line" smooth="yes"/>
      <point x="61" y="438"/>
      <point x="62" y="430"/>
      <point x="71" y="422" type="curve" smooth="yes"/>
      <point x="107" y="390" type="line" smooth="yes"/>
      <point x="115" y="383"/>
      <point x="122" y="384"/>
      <point x="129" y="392" type="curve" smooth="yes"/>
      <point x="212" y="481" type="line"/>
      <point x="293" y="393" type="line"/>
      <point x="302" y="384"/>
      <point x="309" y="382"/>
      <point x="317" y="389" type="curve" smooth="yes"/>
    </contour>
  </outline>
</glyph>
<glyph name="plus" format="1">
  <advance width="471"/>
  <unicode hex="002B"/>
  <note>
	plus
  </note>
  <outline>
    <contour>
      <point x="258" y="123" type="line" smooth="yes"/>
      <point x="282" y="123"/>
      <point x="288" y="131"/>
      <point x="288" y="152" type="curve" smooth="yes"/>
      <point x="288" y="250" type="line"/>
      <point x="400" y="250" type="line" smooth="yes"/>
      <point x="422" y="250"/>
      <point x="432" y="256"/>
      <point x="432" y="280" type="curve" smooth="yes"/>
      <point x="432" y="317" type="line" smooth="yes"/>
      <point x="432" y="341"/>
      <point x="422" y="347"/>
      <point x="400" y="347" type="curve" smooth="yes"/>
      <point x="288" y="347" type="line"/>
      <point x="288" y="446" type="line" smooth="yes"/>
      <point x="288" y="467"/>
      <point x="282" y="475"/>
      <point x="258" y="475" type="curve" smooth="yes"/>
      <point x="212" y="475" type="line" smooth="yes"/>
      <point x="188" y="475"/>
      <point x="182" y="467"/>
      <point x="182" y="446" type="curve" smooth="yes"/>
      <point x="182" y="347" type="line"/>
      <point x="71" y="347" type="line" smooth="yes"/>
      <point x="49" y="347"/>
      <point x="39" y="341"/>
      <point x="39" y="317" type="curve" smooth="yes"/>
      <point x="39" y="280" type="line" smooth="yes"/>
      <point x="39" y="256"/>
      <point x="49" y="250"/>
      <point x="71" y="250" type="curve" smooth="yes"/>
      <point x="182" y="250" type="line"/>
      <point x="182" y="152" type="line" smooth="yes"/>
      <point x="182" y="131"/>
      <point x="188" y="123"/>
      <point x="212" y="123" type="curve" smooth="yes"/>
    </contour>
  </outline>
</glyph>
<glyph name="hyphen" format="1">
  <advance width="471"/>
  <unicode hex="002D"/>
  <note>
	hyphen
  </note>
  <outline>
    <contour>
      <point x="403" y="250" type="line" smooth="yes"/>
      <point x="424" y="250"/>
      <point x="432" y="260"/>
      <point x="432" y="280" type="curve" smooth="yes"/>
      <point x="432" y="317" type="line" smooth="yes"/>
      <point x="432" y="337"/>
      <point x="424" y="347"/>
      <point x="403" y="347" type="curve" smooth="yes"/>
      <point x="68" y="347" type="line" smooth="yes"/>
      <point x="46" y="347"/>
      <point x="39" y="337"/>
      <point x="39" y="317" type="curve" smooth="yes"/>
      <point x="39" y="280" type="line" smooth="yes"/>
      <point x="39" y="260"/>
      <point x="46" y="250"/>
      <point x="68" y="250" type="curve" smooth="yes"/>
    </contour>
  </outline>
</glyph>
<glyph name="slash" format="1">
  <advance width="475"/>
  <unicode hex="002F"/>
  <note>
	slash
  </note>
  <outline>
    <contour>
      <point x="146" y="0" type="line" smooth="yes"/>
      <point x="160" y="0"/>
      <point x="167" y="6"/>
      <point x="171" y="16" type="curve" smooth="yes"/>
      <point x="433" y="655" type="line" smooth="yes"/>
      <point x="438" y="668"/>
      <point x="437" y="680"/>
      <point x="422" y="680" type="curve" smooth="yes"/>
      <point x="328" y="680" type="line" smooth="yes"/>
      <point x="315" y="680"/>
      <point x="308" y="673"/>
      <point x="304" y="663" type="curve" smooth="yes"/>
      <point x="42" y="25" type="line" smooth="yes"/>
      <point x="36" y="11"/>
      <point x="37" y="0"/>
      <point x="53" y="0" type="curve" smooth="yes"/>
    </contour>
  </outline>
</glyph>
<glyph name="two" format="1">
  <advance width="575"/>
  <unicode hex="0032"/>
  <note>
	two
  </note>
  <outline>
    <contour>
      <point x="495" y="0" type="line" smooth="yes"/>
      <point x="522" y="0"/>
      <point x="531" y="10"/>
      <point x="531" y="34" type="curve" smooth="yes"/>
      <point x="531" y="61" type="line" smooth="yes"/>
      <point x="531" y="86"/>
      <point x="522" y="97"/>
      <point x="495" y="97" type="curve" smooth="yes"/>
      <point x="171" y="97" type="line"/>
      <point x="175" y="154"/>
      <point x="241" y="213"/>
      <point x="337" y="263" type="curve" smooth="yes"/>
      <point x="461" y="331"/>
      <point x="534" y="392"/>
      <point x="534" y="502" type="curve" smooth="yes"/>
      <point x="534" y="628"/>
      <point x="430" y="695"/>
      <point x="287" y="695" type="curve" smooth="yes"/>
      <point x="191" y="695"/>
      <point x="107" y="673"/>
      <point x="61" y="641" type="curve" smooth="yes"/>
      <point x="50" y="633"/>
      <point x="50" y="625"/>
      <point x="57" y="613" type="curve" smooth="yes"/>
      <point x="85" y="564" type="line" smooth="yes"/>
      <point x="92" y="552"/>
      <point x="98" y="553"/>
      <point x="110" y="560" type="curve" smooth="yes"/>
      <point x="146" y="581"/>
      <point x="203" y="600"/>
      <point x="270" y="600" type="curve" smooth="yes"/>
      <point x="354" y="600"/>
      <point x="407" y="566"/>
      <point x="407" y="496" type="curve" smooth="yes"/>
      <point x="407" y="416"/>
      <point x="363" y="387"/>
      <point x="239" y="317" type="curve" smooth="yes"/>
      <point x="104" y="241"/>
      <point x="41" y="156"/>
      <point x="41" y="73" type="curve" smooth="yes"/>
      <point x="41" y="34" type="line" smooth="yes"/>
      <point x="41" y="11"/>
      <point x="51" y="0"/>
      <point x="74" y="0" type="curve" smooth="yes"/>
    </contour>
  </outline>
</glyph>
<glyph name="four" format="1">
  <advance width="615"/>
  <unicode hex="0034"/>
  <note>
	four
  </note>
  <outline>
    <contour>
      <point x="452" y="0" type="line" smooth="yes"/>
      <point x="480" y="0"/>
      <point x="490" y="10"/>
      <point x="490" y="34" type="curve" smooth="yes"/>
      <point x="490" y="148" type="line"/>
      <point x="560" y="148" type="line" smooth="yes"/>
      <point x="587" y="148"/>
      <point x="596" y="158"/>
      <point x="596" y="182" type="curve" smooth="yes"/>
      <point x="596" y="209" type="line" smooth="yes"/>
      <point x="596" y="234"/>
      <point x="587" y="245"/>
      <point x="560" y="245" type="curve" smooth="yes"/>
      <point x="490" y="245" type="line"/>
      <point x="490" y="643" type="line" smooth="yes"/>
      <point x="490" y="667"/>
      <point x="480" y="680"/>
      <point x="452" y="680" type="curve" smooth="yes"/>
      <point x="408" y="680" type="line" smooth="yes"/>
      <point x="387" y="680"/>
      <point x="381" y="674"/>
      <point x="370" y="661" type="curve" smooth="yes"/>
      <point x="33" y="253" type="line" smooth="yes"/>
      <point x="22" y="239"/>
      <point x="19" y="232"/>
      <point x="19" y="213" type="curve" smooth="yes"/>
      <point x="19" y="172" type="line" smooth="yes"/>
      <point x="19" y="156"/>
      <point x="27" y="148"/>
      <point x="45" y="148" type="curve" smooth="yes"/>
      <point x="362" y="148" type="line"/>
      <point x="362" y="34" type="line" smooth="yes"/>
      <point x="362" y="10"/>
      <point x="372" y="0"/>
      <point x="399" y="0" type="curve" smooth="yes"/>
    </contour>
    <contour>
      <point x="383" y="529" type="line"/>
      <point x="383" y="245" type="line"/>
      <point x="153" y="245" type="line"/>
    </contour>
  </outline>
</glyph>
<glyph name="five" format="1">
  <advance width="619"/>
  <unicode hex="0035"/>
  <note>
	five
  </note>
  <outline>
    <contour>
      <point x="463" y="-15"/>
      <point x="580" y="75"/>
      <point x="580" y="221" type="curve" smooth="yes"/>
      <point x="580" y="390"/>
      <point x="476" y="453"/>
      <point x="317" y="453" type="curve" smooth="yes"/>
      <point x="263" y="453"/>
      <point x="214" y="446"/>
      <point x="177" y="434" type="curve"/>
      <point x="187" y="582" type="line"/>
      <point x="512" y="582" type="line" smooth="yes"/>
      <point x="539" y="582"/>
      <point x="548" y="593"/>
      <point x="548" y="618" type="curve" smooth="yes"/>
      <point x="548" y="645" type="line" smooth="yes"/>
      <point x="548" y="670"/>
      <point x="539" y="680"/>
      <point x="512" y="680" type="curve" smooth="yes"/>
      <point x="116" y="680" type="line" smooth="yes"/>
      <point x="88" y="680"/>
      <point x="80" y="668"/>
      <point x="79" y="646" type="curve" smooth="yes"/>
      <point x="62" y="388" type="line" smooth="yes"/>
      <point x="59" y="337"/>
      <point x="112" y="321"/>
      <point x="157" y="338" type="curve"/>
      <point x="192" y="354"/>
      <point x="241" y="364"/>
      <point x="296" y="364" type="curve" smooth="yes"/>
      <point x="402" y="364"/>
      <point x="453" y="330"/>
      <point x="453" y="221" type="curve" smooth="yes"/>
      <point x="453" y="126"/>
      <point x="392" y="79"/>
      <point x="281" y="79" type="curve" smooth="yes"/>
      <point x="201" y="79"/>
      <point x="137" y="99"/>
      <point x="98" y="122" type="curve" smooth="yes"/>
      <point x="85" y="130"/>
      <point x="79" y="130"/>
      <point x="73" y="119" type="curve" smooth="yes"/>
      <point x="44" y="69" type="line" smooth="yes"/>
      <point x="37" y="57"/>
      <point x="37" y="49"/>
      <point x="48" y="42" type="curve" smooth="yes"/>
      <point x="99" y="8"/>
      <point x="191" y="-15"/>
      <point x="285" y="-15" type="curve" smooth="yes"/>
    </contour>
  </outline>
</glyph>
<glyph name="less" format="1">
  <advance width="558"/>
  <unicode hex="003C"/>
  <note>
	less
  </note>
  <outline>
    <contour>
      <point x="510" y="18"/>
      <point x="519" y="24"/>
      <point x="519" y="36" type="curve" smooth="yes"/>
      <point x="519" y="117" type="line" smooth="yes"/>
      <point x="519" y="133"/>
      <point x="514" y="137"/>
      <point x="502" y="142" type="curve" smooth="yes"/>
      <point x="195" y="274" type="line"/>
      <point x="502" y="406" type="line" smooth="yes"/>
      <point x="514" y="411"/>
      <point x="519" y="415"/>
      <point x="519" y="431" type="curve" smooth="yes"/>
      <point x="519" y="510" type="line" smooth="yes"/>
      <point x="519" y="522"/>
      <point x="510" y="527"/>
      <point x="498" y="522" type="curve" smooth="yes"/>
      <point x="56" y="321" type="line" smooth="yes"/>
      <point x="43" y="315"/>
      <point x="39" y="308"/>
      <point x="39" y="295" type="curve" smooth="yes"/>
      <point x="39" y="251" type="line" smooth="yes"/>
      <point x="39" y="238"/>
      <point x="43" y="231"/>
      <point x="56" y="225" type="curve" smooth="yes"/>
      <point x="498" y="24" type="line"/>
    </contour>
  </outline>
</glyph>
<glyph name="equal" format="1">
  <advance width="461"/>
  <unicode hex="003D"/>
  <note>
	equal
  </note>
  <outline>
    <contour>
      <point x="386" y="333" type="line" smooth="yes"/>
      <point x="413" y="333"/>
      <point x="422" y="343"/>
      <point x="422" y="368" type="curve" smooth="yes"/>
      <point x="422" y="393" type="line" smooth="yes"/>
      <point x="422" y="417"/>
      <point x="413" y="429"/>
      <point x="386" y="429" type="curve" smooth="yes"/>
      <point x="74" y="429" type="line" smooth="yes"/>
      <point x="47" y="429"/>
      <point x="39" y="417"/>
      <point x="39" y="393" type="curve" smooth="yes"/>
      <point x="39" y="368" type="line" smooth="yes"/>
      <point x="39" y="343"/>
      <point x="47" y="333"/>
      <point x="74" y="333" type="curve" smooth="yes"/>
    </contour>
    <contour>
      <point x="386" y="153" type="line" smooth="yes"/>
      <point x="413" y="153"/>
      <point x="422" y="163"/>
      <point x="422" y="188" type="curve" smooth="yes"/>
      <point x="422" y="212" type="line" smooth="yes"/>
      <point x="422" y="237"/>
      <point x="413" y="248"/>
      <point x="386" y="248" type="curve" smooth="yes"/>
      <point x="74" y="248" type="line" smooth="yes"/>
      <point x="47" y="248"/>
      <point x="39" y="237"/>
      <point x="39" y="212" type="curve" smooth="yes"/>
      <point x="39" y="188" type="line" smooth="yes"/>
      <point x="39" y="163"/>
      <point x="47" y="153"/>
      <point x="74" y="153" type="curve" smooth="yes"/>
    </contour>
  </outline>
</glyph>
<glyph name="question" format="1">
  <advance width="547"/>
  <unicode hex="003F"/>
  <note>
	question
  </note>
  <outline>
    <contour>
      <point x="257" y="153" type="line" smooth="yes"/>
      <point x="285" y="153"/>
      <point x="295" y="165"/>
      <point x="295" y="189" type="curve" smooth="yes"/>
      <point x="295" y="203" type="line" smooth="yes"/>
      <point x="295" y="264"/>
      <point x="315" y="292"/>
      <point x="387" y="332" type="curve" smooth="yes"/>
      <point x="469" y="377"/>
      <point x="508" y="421"/>
      <point x="508" y="506" type="curve" smooth="yes"/>
      <point x="508" y="627"/>
      <point x="409" y="695"/>
      <point x="270" y="695" type="curve" smooth="yes"/>
      <point x="174" y="695"/>
      <point x="99" y="672"/>
      <point x="48" y="637" type="curve" smooth="yes"/>
      <point x="37" y="629"/>
      <point x="36" y="623"/>
      <point x="42" y="612" type="curve"/>
      <point x="73" y="560" type="line"/>
      <point x="79" y="549"/>
      <point x="85" y="548"/>
      <point x="98" y="557" type="curve"/>
      <point x="134" y="580"/>
      <point x="184" y="600"/>
      <point x="256" y="600" type="curve" smooth="yes"/>
      <point x="334" y="600"/>
      <point x="381" y="567"/>
      <point x="381" y="505" type="curve" smooth="yes"/>
      <point x="381" y="453"/>
      <point x="363" y="435"/>
      <point x="286" y="392" type="curve" smooth="yes"/>
      <point x="205" y="345"/>
      <point x="167" y="294"/>
      <point x="167" y="206" type="curve" smooth="yes"/>
      <point x="167" y="189" type="line" smooth="yes"/>
      <point x="167" y="165"/>
      <point x="177" y="153"/>
      <point x="204" y="153" type="curve" smooth="yes"/>
    </contour>
    <contour>
      <point x="252" y="0" type="line" smooth="yes"/>
      <point x="285" y="0"/>
      <point x="303" y="17"/>
      <point x="303" y="41" type="curve" smooth="yes"/>
      <point x="303" y="61" type="line" smooth="yes"/>
      <point x="303" y="86"/>
      <point x="286" y="103"/>
      <point x="252" y="103" type="curve" smooth="yes"/>
      <point x="209" y="103" type="line" smooth="yes"/>
      <point x="176" y="103"/>
      <point x="158" y="86"/>
      <point x="158" y="61" type="curve" smooth="yes"/>
      <point x="158" y="41" type="line" smooth="yes"/>
      <point x="158" y="17"/>
      <point x="176" y="0"/>
      <point x="209" y="0" type="curve" smooth="yes"/>
    </contour>
  </outline>
</glyph>
<glyph name="D" format="1">
  <advance width="683"/>
  <unicode hex="0044"/>
  <note>
	D
  </note>
  <outline>
    <contour>
      <point x="296" y="0" type="line" smooth="yes"/>
      <point x="512" y="0"/>
      <point x="644" y="97"/>
      <point x="644" y="340" type="curve" smooth="yes"/>
      <point x="644" y="585"/>
      <point x="512" y="680"/>
      <point x="296" y="680" type="curve" smooth="yes"/>
      <point x="96" y="680" type="line" smooth="yes"/>
      <point x="69" y="680"/>
      <point x="59" y="667"/>
      <point x="59" y="643" type="curve" smooth="yes"/>
      <point x="59" y="36" type="line" smooth="yes"/>
      <point x="59" y="12"/>
      <point x="69" y="0"/>
      <point x="96" y="0" type="curve" smooth="yes"/>
    </contour>
    <contour>
      <point x="187" y="582" type="line"/>
      <point x="304" y="582" type="line" smooth="yes"/>
      <point x="437" y="582"/>
      <point x="517" y="525"/>
      <point x="517" y="340" type="curve" smooth="yes"/>
      <point x="517" y="155"/>
      <point x="437" y="97"/>
      <point x="304" y="97" type="curve" smooth="yes"/>
      <point x="187" y="97" type="line"/>
    </contour>
  </outline>
</glyph>
<glyph name="F" format="1">
  <advance width="566"/>
  <unicode hex="0046"/>
  <note>
	F
  </note>
  <outline>
    <contour>
      <point x="149" y="0" type="line" smooth="yes"/>
      <point x="177" y="0"/>
      <point x="187" y="12"/>
      <point x="187" y="36" type="curve" smooth="yes"/>
      <point x="187" y="291" type="line"/>
      <point x="423" y="291" type="line" smooth="yes"/>
      <point x="450" y="291"/>
      <point x="459" y="302"/>
      <point x="459" y="327" type="curve" smooth="yes"/>
      <point x="459" y="354" type="line" smooth="yes"/>
      <point x="459" y="379"/>
      <point x="450" y="389"/>
      <point x="423" y="389" type="curve" smooth="yes"/>
      <point x="187" y="389" type="line"/>
      <point x="187" y="582" type="line"/>
      <point x="512" y="582" type="line" smooth="yes"/>
      <point x="539" y="582"/>
      <point x="547" y="593"/>
      <point x="547" y="618" type="curve" smooth="yes"/>
      <point x="547" y="645" type="line" smooth="yes"/>
      <point x="547" y="670"/>
      <point x="539" y="680"/>
      <point x="512" y="680" type="curve" smooth="yes"/>
      <point x="96" y="680" type="line" smooth="yes"/>
      <point x="69" y="680"/>
      <point x="59" y="667"/>
      <point x="59" y="643" type="curve" smooth="yes"/>
      <point x="59" y="36" type="line" smooth="yes"/>
      <point x="59" y="12"/>
      <point x="69" y="0"/>
      <point x="96" y="0" type="curve" smooth="yes"/>
    </contour>
  </outline>
</glyph>
<glyph name="K" format="1">
  <advance width="634"/>
  <unicode hex="004B"/>
  <note>
	K
  </note>
  <outline>
    <contour>
      <point x="582" y="0" type="line" smooth="yes"/>
      <point x="597" y="0"/>
      <point x="601" y="16"/>
      <point x="591" y="28" type="curve" smooth="yes"/>
      <point x="326" y="341" type="line"/>
      <point x="585" y="652" type="line" smooth="yes"/>
      <point x="595" y="664"/>
      <point x="591" y="680"/>
      <point x="576" y="680" type="curve" smooth="yes"/>
      <point x="484" y="680" type="line" smooth="yes"/>
      <point x="466" y="680"/>
      <point x="461" y="678"/>
      <point x="453" y="668" type="curve" smooth="yes"/>
      <point x="218" y="381" type="line" smooth="yes"/>
      <point x="208" y="368"/>
      <point x="201" y="360"/>
      <point x="201" y="341" type="curve" smooth="yes"/>
      <point x="201" y="322"/>
      <point x="208" y="313"/>
      <point x="218" y="301" type="curve" smooth="yes"/>
      <point x="459" y="11" type="line" smooth="yes"/>
      <point x="467" y="2"/>
      <point x="473" y="0"/>
      <point x="487" y="0" type="curve" smooth="yes"/>
    </contour>
    <contour>
      <point x="149" y="0" type="line" smooth="yes"/>
      <point x="177" y="0"/>
      <point x="187" y="12"/>
      <point x="187" y="36" type="curve" smooth="yes"/>
      <point x="187" y="643" type="line" smooth="yes"/>
      <point x="187" y="667"/>
      <point x="177" y="680"/>
      <point x="149" y="680" type="curve" smooth="yes"/>
      <point x="96" y="680" type="line" smooth="yes"/>
      <point x="69" y="680"/>
      <point x="59" y="667"/>
      <point x="59" y="643" type="curve" smooth="yes"/>
      <point x="59" y="36" type="line" smooth="yes"/>
      <point x="59" y="12"/>
      <point x="69" y="0"/>
      <point x="96" y="0" type="curve" smooth="yes"/>
    </contour>
  </outline>
</glyph>
<glyph name="O" format="1">
  <advance width="762"/>
  <unicode hex="004F"/>
  <note>
	O
  </note>
  <outline>
    <contour>
      <point x="601" y="-15"/>
      <point x="723" y="116"/>
      <point x="723" y="340" type="curve" smooth="yes"/>
      <point x="723" y="564"/>
      <point x="601" y="695"/>
      <point x="381" y="695" type="curve" smooth="yes"/>
      <point x="160" y="695"/>
      <point x="39" y="564"/>
      <point x="39" y="340" type="curve" smooth="yes"/>
      <point x="39" y="116"/>
      <point x="160" y="-15"/>
      <point x="381" y="-15" type="curve" smooth="yes"/>
    </contour>
    <contour>
      <point x="242" y="79"/>
      <point x="165" y="169"/>
      <point x="165" y="340" type="curve" smooth="yes"/>
      <point x="165" y="511"/>
      <point x="242" y="600"/>
      <point x="381" y="600" type="curve" smooth="yes"/>
      <point x="520" y="600"/>
      <point x="596" y="511"/>
      <point x="596" y="340" type="curve" smooth="yes"/>
      <point x="596" y="169"/>
      <point x="520" y="79"/>
      <point x="381" y="79" type="curve" smooth="yes"/>
    </contour>
  </outline>
</glyph>
<glyph name="Q" format="1">
  <advance width="762"/>
  <unicode hex="0051"/>
  <note>
	Q
  </note>
  <outline>
    <contour>
      <point x="590" y="-181"/>
      <point x="633" y="-167"/>
      <point x="674" y="-140" type="curve" smooth="yes"/>
      <point x="684" y="-133"/>
      <point x="686" y="-128"/>
      <point x="680" y="-118" type="curve" smooth="yes"/>
      <point x="650" y="-71" type="line" smooth="yes"/>
      <point x="645" y="-63"/>
      <point x="641" y="-62"/>
      <point x="631" y="-68" type="curve" smooth="yes"/>
      <point x="606" y="-84"/>
      <point x="574" y="-96"/>
      <point x="533" y="-96" type="curve" smooth="yes"/>
      <point x="473" y="-96"/>
      <point x="424" y="-72"/>
      <point x="421" y="-11" type="curve"/>
      <point x="616" y="5"/>
      <point x="723" y="130"/>
      <point x="723" y="340" type="curve" smooth="yes"/>
      <point x="723" y="564"/>
      <point x="601" y="695"/>
      <point x="381" y="695" type="curve" smooth="yes"/>
      <point x="160" y="695"/>
      <point x="39" y="564"/>
      <point x="39" y="340" type="curve" smooth="yes"/>
      <point x="39" y="136"/>
      <point x="139" y="9"/>
      <point x="322" y="-11" type="curve"/>
      <point x="327" y="-113"/>
      <point x="403" y="-181"/>
      <point x="528" y="-181" type="curve" smooth="yes"/>
    </contour>
    <contour>
      <point x="242" y="79"/>
      <point x="165" y="169"/>
      <point x="165" y="340" type="curve" smooth="yes"/>
      <point x="165" y="511"/>
      <point x="242" y="600"/>
      <point x="381" y="600" type="curve" smooth="yes"/>
      <point x="520" y="600"/>
      <point x="596" y="511"/>
      <point x="596" y="340" type="curve" smooth="yes"/>
      <point x="596" y="169"/>
      <point x="520" y="79"/>
      <point x="381" y="79" type="curve" smooth="yes"/>
    </contour>
  </outline>
</glyph>
<glyph name="U" format="1">
  <advance width="716"/>
  <unicode hex="0055"/>
  <note>
	U
  </note>
  <outline>
    <contour>
      <point x="537" y="-15"/>
      <point x="662" y="81"/>
      <point x="662" y="240" type="curve" smooth="yes"/>
      <point x="662" y="643" type="line" smooth="yes"/>
      <point x="662" y="667"/>
      <point x="651" y="680"/>
      <point x="623" y="680" type="curve" smooth="yes"/>
      <point x="571" y="680" type="line" smooth="yes"/>
      <point x="543" y="680"/>
      <point x="533" y="667"/>
      <point x="533" y="643" type="curve" smooth="yes"/>
      <point x="533" y="237" type="line" smooth="yes"/>
      <point x="533" y="131"/>
      <point x="469" y="79"/>
      <point x="358" y="79" type="curve" smooth="yes"/>
      <point x="246" y="79"/>
      <point x="182" y="131"/>
      <point x="182" y="237" type="curve" smooth="yes"/>
      <point x="182" y="643" type="line" smooth="yes"/>
      <point x="182" y="667"/>
      <point x="172" y="680"/>
      <point x="144" y="680" type="curve" smooth="yes"/>
      <point x="91" y="680" type="line" smooth="yes"/>
      <point x="64" y="680"/>
      <point x="54" y="667"/>
      <point x="54" y="643" type="curve" smooth="yes"/>
      <point x="54" y="240" type="line" smooth="yes"/>
      <point x="54" y="81"/>
      <point x="178" y="-15"/>
      <point x="358" y="-15" type="curve" smooth="yes"/>
    </contour>
  </outline>
</glyph>
<glyph name="X" format="1">
  <advance width="713"/>
  <unicode hex="0058"/>
  <note>
	X
  </note>
  <outline>
    <contour>
      <point x="149" y="0" type="line" smooth="yes"/>
      <point x="163" y="0"/>
      <point x="167" y="2"/>
      <point x="174" y="11" type="curve" smooth="yes"/>
      <point x="356" y="253" type="line"/>
      <point x="539" y="11" type="line" smooth="yes"/>
      <point x="546" y="2"/>
      <point x="550" y="0"/>
      <point x="564" y="0" type="curve" smooth="yes"/>
      <point x="657" y="0" type="line" smooth="yes"/>
      <point x="673" y="0"/>
      <point x="678" y="14"/>
      <point x="668" y="28" type="curve" smooth="yes"/>
      <point x="427" y="348" type="line"/>
      <point x="655" y="652" type="line" smooth="yes"/>
      <point x="665" y="665"/>
      <point x="662" y="680"/>
      <point x="646" y="680" type="curve" smooth="yes"/>
      <point x="552" y="680" type="line" smooth="yes"/>
      <point x="537" y="680"/>
      <point x="532" y="676"/>
      <point x="526" y="668" type="curve" smooth="yes"/>
      <point x="356" y="443" type="line"/>
      <point x="186" y="668" type="line" smooth="yes"/>
      <point x="180" y="676"/>
      <point x="175" y="680"/>
      <point x="160" y="680" type="curve" smooth="yes"/>
      <point x="67" y="680" type="line" smooth="yes"/>
      <point x="50" y="680"/>
      <point x="47" y="665"/>
      <point x="57" y="652" type="curve" smooth="yes"/>
      <point x="285" y="348" type="line"/>
      <point x="44" y="28" type="line" smooth="yes"/>
      <point x="34" y="14"/>
      <point x="40" y="0"/>
      <point x="55" y="0" type="curve" smooth="yes"/>
    </contour>
  </outline>
</glyph>
<glyph name="backslash" format="1">
  <advance width="481"/>
  <unicode hex="005C"/>
  <note>
	backslash
  </note>
  <outline>
    <contour>
      <point x="428" y="0" type="line" smooth="yes"/>
      <point x="443" y="0"/>
      <point x="445" y="11"/>
      <point x="439" y="25" type="curve" smooth="yes"/>
      <point x="171" y="678" type="line"/>
      <point x="167" y="689"/>
      <point x="162" y="695"/>
      <point x="146" y="695" type="curve" smooth="yes"/>
      <point x="53" y="695" type="line" smooth="yes"/>
      <point x="39" y="695"/>
      <point x="36" y="684"/>
      <point x="42" y="670" type="curve" smooth="yes"/>
      <point x="310" y="16" type="line"/>
      <point x="315" y="5"/>
      <point x="320" y="0"/>
      <point x="334" y="0" type="curve" smooth="yes"/>
    </contour>
  </outline>
</glyph>
<glyph name="asciicircum" format="1">
  <advance width="612"/>
  <unicode hex="005E"/>
  <note>
	asciicircum
  </note>
  <outline>
    <contour>
      <point x="134" y="339" type="line" smooth="yes"/>
      <point x="151" y="339"/>
      <point x="158" y="342"/>
      <point x="166" y="356" type="curve" smooth="yes"/>
      <point x="306" y="592" type="line"/>
      <point x="446" y="356" type="line" smooth="yes"/>
      <point x="454" y="342"/>
      <point x="460" y="339"/>
      <point x="477" y="339" type="curve" smooth="yes"/>
      <point x="556" y="339" type="line" smooth="yes"/>
      <point x="572" y="339"/>
      <point x="577" y="352"/>
      <point x="568" y="367" type="curve" smooth="yes"/>
      <point x="365" y="690" type="line" smooth="yes"/>
      <point x="353" y="709"/>
      <point x="347" y="719"/>
      <point x="323" y="719" type="curve" smooth="yes"/>
      <point x="288" y="719" type="line" smooth="yes"/>
      <point x="264" y="719"/>
      <point x="258" y="709"/>
      <point x="246" y="690" type="curve" smooth="yes"/>
      <point x="44" y="367" type="line" smooth="yes"/>
      <point x="34" y="352"/>
      <point x="40" y="339"/>
      <point x="55" y="339" type="curve" smooth="yes"/>
    </contour>
  </outline>
</glyph>
<glyph name="grave" format="1">
  <advance width="265"/>
  <unicode hex="0060"/>
  <note>
	grave
  </note>
  <outline>
    <contour>
      <point x="203" y="563" type="line" smooth="yes"/>
      <point x="224" y="563"/>
      <point x="229" y="574"/>
      <point x="223" y="591" type="curve" smooth="yes"/>
      <point x="174" y="725" type="line" smooth="yes"/>
      <point x="168" y="740"/>
      <point x="164" y="746"/>
      <point x="142" y="746" type="curve" smooth="yes"/>
      <point x="63" y="746" type="line" smooth="yes"/>
      <point x="41" y="746"/>
      <point x="33" y="734"/>
      <point x="44" y="714" type="curve" smooth="yes"/>
      <point x="112" y="581" type="line"/>
      <point x="120" y="567"/>
      <point x="126" y="563"/>
      <point x="145" y="563" type="curve" smooth="yes"/>
    </contour>
  </outline>
</glyph>
<glyph name="h" format="1">
  <advance width="596"/>
  <unicode hex="0068"/>
  <note>
	h
  </note>
  <outline>
    <contour>
      <point x="149" y="0" type="line" smooth="yes"/>
      <point x="177" y="0"/>
      <point x="187" y="12"/>
      <point x="187" y="36" type="curve" smooth="yes"/>
      <point x="187" y="301" type="line" smooth="yes"/>
      <point x="187" y="363"/>
      <point x="255" y="403"/>
      <point x="319" y="403" type="curve" smooth="yes"/>
      <point x="380" y="403"/>
      <point x="414" y="380"/>
      <point x="414" y="313" type="curve" smooth="yes"/>
      <point x="414" y="36" type="line" smooth="yes"/>
      <point x="414" y="12"/>
      <point x="424" y="0"/>
      <point x="452" y="0" type="curve" smooth="yes"/>
      <point x="505" y="0" type="line" smooth="yes"/>
      <point x="532" y="0"/>
      <point x="542" y="12"/>
      <point x="542" y="36" type="curve" smooth="yes"/>
      <point x="542" y="321" type="line" smooth="yes"/>
      <point x="542" y="442"/>
      <point x="465" y="495"/>
      <point x="362" y="495" type="curve" smooth="yes"/>
      <point x="279" y="495"/>
      <point x="223" y="471"/>
      <point x="181" y="429" type="curve"/>
      <point x="181" y="653" type="line" smooth="yes"/>
      <point x="181" y="672"/>
      <point x="176" y="680"/>
      <point x="154" y="680" type="curve" smooth="yes"/>
      <point x="85" y="680" type="line" smooth="yes"/>
      <point x="63" y="680"/>
      <point x="59" y="672"/>
      <point x="59" y="653" type="curve" smooth="yes"/>
      <point x="59" y="36" type="line" smooth="yes"/>
      <point x="59" y="12"/>
      <point x="69" y="0"/>
      <point x="97" y="0" type="curve" smooth="yes"/>
    </contour>
  </outline>
</glyph>
<glyph name="j" format="1">
  <advance width="310"/>
  <unicode hex="006A"/>
  <note>
	j
  </note>
  <outline>
    <contour>
      <point x="183" y="-170"/>
      <point x="243" y="-98"/>
      <point x="243" y="12" type="curve" smooth="yes"/>
      <point x="243" y="443" type="line" smooth="yes"/>
      <point x="243" y="467"/>
      <point x="233" y="480"/>
      <point x="205" y="480" type="curve" smooth="yes"/>
      <point x="152" y="480" type="line" smooth="yes"/>
      <point x="125" y="480"/>
      <point x="114" y="467"/>
      <point x="114" y="443" type="curve" smooth="yes"/>
      <point x="114" y="15" type="line" smooth="yes"/>
      <point x="114" y="-46"/>
      <point x="97" y="-76"/>
      <point x="31" y="-76" type="curve" smooth="yes"/>
      <point x="-8" y="-76"/>
      <point x="-36" y="-64"/>
      <point x="-65" y="-44" type="curve" smooth="yes"/>
      <point x="-76" y="-36"/>
      <point x="-83" y="-36"/>
      <point x="-90" y="-48" type="curve" smooth="yes"/>
      <point x="-118" y="-96" type="line" smooth="yes"/>
      <point x="-125" y="-108"/>
      <point x="-124" y="-116"/>
      <point x="-114" y="-124" type="curve" smooth="yes"/>
      <point x="-74" y="-155"/>
      <point x="-14" y="-170"/>
      <point x="53" y="-170" type="curve" smooth="yes"/>
    </contour>
    <contour>
      <point x="200" y="563" type="line" smooth="yes"/>
      <point x="233" y="563"/>
      <point x="251" y="586"/>
      <point x="251" y="611" type="curve" smooth="yes"/>
      <point x="251" y="632" type="line" smooth="yes"/>
      <point x="251" y="657"/>
      <point x="233" y="680"/>
      <point x="200" y="680" type="curve" smooth="yes"/>
      <point x="156" y="680" type="line" smooth="yes"/>
      <point x="124" y="680"/>
      <point x="106" y="657"/>
      <point x="106" y="632" type="curve" smooth="yes"/>
      <point x="106" y="611" type="line" smooth="yes"/>
      <point x="106" y="586"/>
      <point x="124" y="563"/>
      <point x="156" y="563" type="curve" smooth="yes"/>
    </contour>
  </outline>
</glyph>
<glyph name="k" format="1">
  <advance width="561"/>
  <unicode hex="006B"/>
  <note>
	k
  </note>
  <outline>
    <contour>
      <point x="516" y="0" type="line" smooth="yes"/>
      <point x="531" y="0"/>
      <point x="536" y="17"/>
      <point x="525" y="28" type="curve"/>
      <point x="319" y="250" type="line"/>
      <point x="518" y="452" type="line" smooth="yes"/>
      <point x="529" y="463"/>
      <point x="525" y="480"/>
      <point x="510" y="480" type="curve" smooth="yes"/>
      <point x="417" y="480" type="line" smooth="yes"/>
      <point x="399" y="480"/>
      <point x="395" y="477"/>
      <point x="387" y="468" type="curve"/>
      <point x="217" y="290" type="line" smooth="yes"/>
      <point x="206" y="278"/>
      <point x="200" y="269"/>
      <point x="200" y="250" type="curve" smooth="yes"/>
      <point x="200" y="231"/>
      <point x="206" y="222"/>
      <point x="217" y="210" type="curve" smooth="yes"/>
      <point x="393" y="11" type="line" smooth="yes"/>
      <point x="401" y="2"/>
      <point x="406" y="0"/>
      <point x="420" y="0" type="curve" smooth="yes"/>
    </contour>
    <contour>
      <point x="149" y="0" type="line" smooth="yes"/>
      <point x="177" y="0"/>
      <point x="187" y="12"/>
      <point x="187" y="36" type="curve" smooth="yes"/>
      <point x="187" y="643" type="line" smooth="yes"/>
      <point x="187" y="667"/>
      <point x="177" y="680"/>
      <point x="149" y="680" type="curve" smooth="yes"/>
      <point x="96" y="680" type="line" smooth="yes"/>
      <point x="69" y="680"/>
      <point x="59" y="667"/>
      <point x="59" y="643" type="curve" smooth="yes"/>
      <point x="59" y="36" type="line" smooth="yes"/>
      <point x="59" y="12"/>
      <point x="69" y="0"/>
      <point x="96" y="0" type="curve" smooth="yes"/>
    </contour>
  </outline>
</glyph>
<glyph name="m" format="1">
  <advance width="810"/>
  <unicode hex="006D"/>
  <note>
	m
  </note>
  <outline>
    <contour>
      <point x="141" y="0" type="line" smooth="yes"/>
      <point x="169" y="0"/>
      <point x="179" y="12"/>
      <point x="179" y="36" type="curve" smooth="yes"/>
      <point x="179" y="300" type="line" smooth="yes"/>
      <point x="179" y="362"/>
      <point x="219" y="403"/>
      <point x="276" y="403" type="curve" smooth="yes"/>
      <point x="326" y="403"/>
      <point x="349" y="378"/>
      <point x="349" y="322" type="curve" smooth="yes"/>
      <point x="349" y="36" type="line" smooth="yes"/>
      <point x="349" y="12"/>
      <point x="359" y="0"/>
      <point x="387" y="0" type="curve" smooth="yes"/>
      <point x="428" y="0" type="line" smooth="yes"/>
      <point x="455" y="0"/>
      <point x="466" y="12"/>
      <point x="466" y="36" type="curve" smooth="yes"/>
      <point x="466" y="303" type="line" smooth="yes"/>
      <point x="466" y="364"/>
      <point x="503" y="403"/>
      <point x="558" y="403" type="curve" smooth="yes"/>
      <point x="607" y="403"/>
      <point x="636" y="381"/>
      <point x="636" y="317" type="curve" smooth="yes"/>
      <point x="636" y="36" type="line" smooth="yes"/>
      <point x="636" y="12"/>
      <point x="646" y="0"/>
      <point x="674" y="0" type="curve" smooth="yes"/>
      <point x="718" y="0" type="line" smooth="yes"/>
      <point x="746" y="0"/>
      <point x="756" y="12"/>
      <point x="756" y="36" type="curve" smooth="yes"/>
      <point x="756" y="324" type="line" smooth="yes"/>
      <point x="756" y="442"/>
      <point x="693" y="495"/>
      <point x="602" y="495" type="curve" smooth="yes"/>
      <point x="527" y="495"/>
      <point x="476" y="464"/>
      <point x="443" y="418" type="curve"/>
      <point x="422" y="469"/>
      <point x="376" y="495"/>
      <point x="319" y="495" type="curve" smooth="yes"/>
      <point x="245" y="495"/>
      <point x="198" y="463"/>
      <point x="163" y="418" type="curve"/>
      <point x="160" y="460" type="line" smooth="yes"/>
      <point x="159" y="474"/>
      <point x="153" y="480"/>
      <point x="138" y="480" type="curve" smooth="yes"/>
      <point x="85" y="480" type="line" smooth="yes"/>
      <point x="63" y="480"/>
      <point x="59" y="472"/>
      <point x="59" y="453" type="curve" smooth="yes"/>
      <point x="59" y="36" type="line" smooth="yes"/>
      <point x="59" y="12"/>
      <point x="69" y="0"/>
      <point x="97" y="0" type="curve" smooth="yes"/>
    </contour>
  </outline>
</glyph>
<glyph name="p" format="1">
  <advance width="617"/>
  <unicode hex="0070"/>
  <note>
	p
  </note>
  <outline>
    <contour>
      <point x="147" y="-202" type="line" smooth="yes"/>
      <point x="175" y="-202"/>
      <point x="185" y="-190"/>
      <point x="185" y="-166" type="curve" smooth="yes"/>
      <point x="185" y="43" type="line"/>
      <point x="222" y="3"/>
      <point x="275" y="-15"/>
      <point x="340" y="-15" type="curve" smooth="yes"/>
      <point x="489" y="-15"/>
      <point x="578" y="82"/>
      <point x="578" y="239" type="curve" smooth="yes"/>
      <point x="578" y="410"/>
      <point x="481" y="495"/>
      <point x="288" y="495" type="curve" smooth="yes"/>
      <point x="199" y="495"/>
      <point x="108" y="466"/>
      <point x="59" y="432" type="curve"/>
      <point x="59" y="-166" type="line" smooth="yes"/>
      <point x="59" y="-190"/>
      <point x="69" y="-202"/>
      <point x="96" y="-202" type="curve" smooth="yes"/>
    </contour>
    <contour>
      <point x="243" y="76"/>
      <point x="185" y="116"/>
      <point x="185" y="187" type="curve" smooth="yes"/>
      <point x="185" y="384" type="line"/>
      <point x="208" y="396"/>
      <point x="240" y="403"/>
      <point x="284" y="403" type="curve" smooth="yes"/>
      <point x="393" y="403"/>
      <point x="451" y="362"/>
      <point x="451" y="243" type="curve" smooth="yes"/>
      <point x="451" y="138"/>
      <point x="407" y="76"/>
      <point x="310" y="76" type="curve" smooth="yes"/>
    </contour>
  </outline>
</glyph>
<glyph name="u" format="1">
  <advance width="590"/>
  <unicode hex="0075"/>
  <note>
	u
  </note>
  <outline>
    <contour>
      <point x="324" y="-15"/>
      <point x="382" y="15"/>
      <point x="423" y="61" type="curve"/>
      <point x="427" y="19" type="line" smooth="yes"/>
      <point x="428" y="5"/>
      <point x="434" y="0"/>
      <point x="449" y="0" type="curve" smooth="yes"/>
      <point x="505" y="0" type="line" smooth="yes"/>
      <point x="527" y="0"/>
      <point x="531" y="7"/>
      <point x="531" y="27" type="curve" smooth="yes"/>
      <point x="531" y="443" type="line" smooth="yes"/>
      <point x="531" y="467"/>
      <point x="521" y="480"/>
      <point x="493" y="480" type="curve" smooth="yes"/>
      <point x="441" y="480" type="line" smooth="yes"/>
      <point x="413" y="480"/>
      <point x="403" y="467"/>
      <point x="403" y="443" type="curve" smooth="yes"/>
      <point x="403" y="180" type="line" smooth="yes"/>
      <point x="403" y="117"/>
      <point x="349" y="76"/>
      <point x="281" y="76" type="curve" smooth="yes"/>
      <point x="217" y="76"/>
      <point x="182" y="103"/>
      <point x="182" y="169" type="curve" smooth="yes"/>
      <point x="182" y="443" type="line" smooth="yes"/>
      <point x="182" y="467"/>
      <point x="172" y="480"/>
      <point x="144" y="480" type="curve" smooth="yes"/>
      <point x="91" y="480" type="line" smooth="yes"/>
      <point x="64" y="480"/>
      <point x="54" y="467"/>
      <point x="54" y="443" type="curve" smooth="yes"/>
      <point x="54" y="166" type="line" smooth="yes"/>
      <point x="54" y="42"/>
      <point x="131" y="-15"/>
      <point x="236" y="-15" type="curve" smooth="yes"/>
    </contour>
  </outline>
</glyph>
<glyph name="v" format="1">
  <advance width="607"/>
  <unicode hex="0076"/>
  <note>
	v
  </note>
  <outline>
    <contour>
      <point x="329" y="0" type="line" smooth="yes"/>
      <point x="348" y="0"/>
      <point x="355" y="7"/>
      <point x="364" y="25" type="curve" smooth="yes"/>
      <point x="565" y="452" type="line" smooth="yes"/>
      <point x="572" y="466"/>
      <point x="566" y="480"/>
      <point x="551" y="480" type="curve" smooth="yes"/>
      <point x="468" y="480" type="line" smooth="yes"/>
      <point x="450" y="480"/>
      <point x="443" y="473"/>
      <point x="437" y="459" type="curve" smooth="yes"/>
      <point x="303" y="147" type="line"/>
      <point x="169" y="459" type="line" smooth="yes"/>
      <point x="163" y="474"/>
      <point x="157" y="480"/>
      <point x="139" y="480" type="curve" smooth="yes"/>
      <point x="56" y="480" type="line" smooth="yes"/>
      <point x="41" y="480"/>
      <point x="35" y="466"/>
      <point x="42" y="452" type="curve" smooth="yes"/>
      <point x="243" y="25" type="line" smooth="yes"/>
      <point x="252" y="7"/>
      <point x="259" y="0"/>
      <point x="278" y="0" type="curve" smooth="yes"/>
    </contour>
  </outline>
</glyph>
<glyph name="y" format="1">
  <advance width="595"/>
  <unicode hex="0079"/>
  <note>
	y
  </note>
  <outline>
    <contour>
      <point x="278" y="-156"/>
      <point x="315" y="-96"/>
      <point x="384" y="51" type="curve" smooth="yes"/>
      <point x="572" y="452" type="line" smooth="yes"/>
      <point x="579" y="466"/>
      <point x="577" y="480"/>
      <point x="560" y="480" type="curve" smooth="yes"/>
      <point x="475" y="480" type="line" smooth="yes"/>
      <point x="457" y="480"/>
      <point x="451" y="475"/>
      <point x="445" y="461" type="curve" smooth="yes"/>
      <point x="311" y="147" type="line"/>
      <point x="177" y="461" type="line" smooth="yes"/>
      <point x="171" y="475"/>
      <point x="165" y="480"/>
      <point x="147" y="480" type="curve" smooth="yes"/>
      <point x="62" y="480" type="line" smooth="yes"/>
      <point x="45" y="480"/>
      <point x="43" y="466"/>
      <point x="50" y="452" type="curve" smooth="yes"/>
      <point x="252" y="22" type="line"/>
      <point x="230" y="-34"/>
      <point x="212" y="-63"/>
      <point x="170" y="-63" type="curve" smooth="yes"/>
      <point x="138" y="-63"/>
      <point x="118" y="-54"/>
      <point x="98" y="-39" type="curve" smooth="yes"/>
      <point x="87" y="-31"/>
      <point x="81" y="-31"/>
      <point x="74" y="-43" type="curve" smooth="yes"/>
      <point x="46" y="-91" type="line" smooth="yes"/>
      <point x="40" y="-101"/>
      <point x="40" y="-107"/>
      <point x="50" y="-115" type="curve" smooth="yes"/>
      <point x="79" y="-139"/>
      <point x="122" y="-156"/>
      <point x="175" y="-156" type="curve" smooth="yes"/>
    </contour>
  </outline>
</glyph>
<glyph name="braceleft" format="1">
  <advance width="377"/>
  <unicode hex="007B"/>
  <note>
	braceleft
  </note>
  <outline>
    <contour>
      <point x="312" y="-70" type="line" smooth="yes"/>
      <point x="339" y="-70"/>
      <point x="348" y="-60"/>
      <point x="348" y="-36" type="curve" smooth="yes"/>
      <point x="348" y="-13" type="line" smooth="yes"/>
      <point x="348" y="12"/>
      <point x="339" y="23"/>
      <point x="312" y="23" type="curve" smooth="yes"/>
      <point x="252" y="23" type="line"/>
      <point x="252" y="656" type="line"/>
      <point x="312" y="656" type="line" smooth="yes"/>
      <point x="339" y="656"/>
      <point x="348" y="667"/>
      <point x="348" y="692" type="curve" smooth="yes"/>
      <point x="348" y="715" type="line" smooth="yes"/>
      <point x="348" y="740"/>
      <point x="339" y="750"/>
      <point x="312" y="750" type="curve" smooth="yes"/>
      <point x="164" y="750" type="line" smooth="yes"/>
      <point x="136" y="750"/>
      <point x="126" y="737"/>
      <point x="126" y="713" type="curve" smooth="yes"/>
      <point x="126" y="387" type="line"/>
      <point x="54" y="387" type="line" smooth="yes"/>
      <point x="27" y="387"/>
      <point x="19" y="376"/>
      <point x="19" y="351" type="curve" smooth="yes"/>
      <point x="19" y="328" type="line" smooth="yes"/>
      <point x="19" y="304"/>
      <point x="27" y="294"/>
      <point x="54" y="294" type="curve" smooth="yes"/>
      <point x="126" y="294" type="line"/>
      <point x="126" y="-34" type="line" smooth="yes"/>
      <point x="126" y="-58"/>
      <point x="136" y="-70"/>
      <point x="164" y="-70" type="curve" smooth="yes"/>
    </contour>
  </outline>
</glyph>
<glyph name="bar" format="1">
  <advance width="206"/>
  <unicode hex="007C"/>
  <note>
	bar
  </note>
  <outline>
    <contour>
      <point x="129" y="-90" type="line" smooth="yes"/>
      <point x="157" y="-90"/>
      <point x="167" y="-78"/>
      <point x="167" y="-54" type="curve" smooth="yes"/>
      <point x="167" y="733" type="line" smooth="yes"/>
      <point x="167" y="757"/>
      <point x="157" y="770"/>
      <point x="129" y="770" type="curve" smooth="yes"/>
      <point x="76" y="770" type="line" smooth="yes"/>
      <point x="49" y="770"/>
      <point x="39" y="757"/>
      <point x="39" y="733" type="curve" smooth="yes"/>
      <point x="39" y="-54" type="line" smooth="yes"/>
      <point x="39" y="-78"/>
      <point x="49" y="-90"/>
      <point x="76" y="-90" type="curve" smooth="yes"/>
    </contour>
  </outline>
</glyph>
<glyph name="braceright" format="1">
  <advance width="377"/>
  <unicode hex="007D"/>
  <note>
	braceright
  </note>
  <outline>
    <contour>
      <point x="213" y="-70" type="line" smooth="yes"/>
      <point x="241" y="-70"/>
      <point x="251" y="-58"/>
      <point x="251" y="-34" type="curve" smooth="yes"/>
      <point x="251" y="294" type="line"/>
      <point x="322" y="294" type="line" smooth="yes"/>
      <point x="349" y="294"/>
      <point x="358" y="304"/>
      <point x="358" y="328" type="curve" smooth="yes"/>
      <point x="358" y="351" type="line" smooth="yes"/>
      <point x="358" y="376"/>
      <point x="349" y="387"/>
      <point x="322" y="387" type="curve" smooth="yes"/>
      <point x="251" y="387" type="line"/>
      <point x="251" y="713" type="line" smooth="yes"/>
      <point x="251" y="737"/>
      <point x="241" y="750"/>
      <point x="213" y="750" type="curve" smooth="yes"/>
      <point x="64" y="750" type="line" smooth="yes"/>
      <point x="37" y="750"/>
      <point x="29" y="740"/>
      <point x="29" y="715" type="curve" smooth="yes"/>
      <point x="29" y="692" type="line" smooth="yes"/>
      <point x="29" y="667"/>
      <point x="37" y="656"/>
      <point x="64" y="656" type="curve" smooth="yes"/>
      <point x="125" y="656" type="line"/>
      <point x="125" y="23" type="line"/>
      <point x="64" y="23" type="line" smooth="yes"/>
      <point x="37" y="23"/>
      <point x="29" y="12"/>
      <point x="29" y="-13" type="curve" smooth="yes"/>
      <point x="29" y="-36" type="line" smooth="yes"/>
      <point x="29" y="-60"/>
      <point x="37" y="-70"/>
      <point x="64" y="-70" type="curve" smooth="yes"/>
    </contour>
  </outline>
</glyph>
<glyph name="sterling" format="1">
  <advance width="568"/>
  <unicode hex="00A3"/>
  <note>
	sterling
  </note>
  <outline>
    <contour>
      <point x="493" y="0" type="line" smooth="yes"/>
      <point x="520" y="0"/>
      <point x="529" y="11"/>
      <point x="529" y="36" type="curve" smooth="yes"/>
      <point x="529" y="58" type="line" smooth="yes"/>
      <point x="529" y="83"/>
      <point x="520" y="93"/>
      <point x="493" y="93" type="curve" smooth="yes"/>
      <point x="224" y="93" type="line"/>
      <point x="248" y="116"/>
      <point x="255" y="148"/>
      <point x="255" y="191" type="curve" smooth="yes"/>
      <point x="255" y="324" type="line"/>
      <point x="396" y="324" type="line" smooth="yes"/>
      <point x="423" y="324"/>
      <point x="432" y="335"/>
      <point x="432" y="360" type="curve" smooth="yes"/>
      <point x="432" y="383" type="line" smooth="yes"/>
      <point x="432" y="408"/>
      <point x="423" y="418"/>
      <point x="396" y="418" type="curve" smooth="yes"/>
      <point x="255" y="418" type="line"/>
      <point x="255" y="511" type="line" smooth="yes"/>
      <point x="255" y="577"/>
      <point x="295" y="606"/>
      <point x="354" y="606" type="curve" smooth="yes"/>
      <point x="385" y="606"/>
      <point x="418" y="598"/>
      <point x="441" y="584" type="curve"/>
      <point x="452" y="578"/>
      <point x="457" y="579"/>
      <point x="463" y="589" type="curve" smooth="yes"/>
      <point x="488" y="631" type="line" smooth="yes"/>
      <point x="495" y="642"/>
      <point x="492" y="649"/>
      <point x="483" y="656" type="curve" smooth="yes"/>
      <point x="447" y="683"/>
      <point x="395" y="695"/>
      <point x="332" y="695" type="curve" smooth="yes"/>
      <point x="202" y="695"/>
      <point x="127" y="619"/>
      <point x="127" y="509" type="curve" smooth="yes"/>
      <point x="127" y="418" type="line"/>
      <point x="80" y="418" type="line" smooth="yes"/>
      <point x="53" y="418"/>
      <point x="45" y="408"/>
      <point x="45" y="383" type="curve" smooth="yes"/>
      <point x="45" y="360" type="line" smooth="yes"/>
      <point x="45" y="335"/>
      <point x="53" y="324"/>
      <point x="80" y="324" type="curve" smooth="yes"/>
      <point x="127" y="324" type="line"/>
      <point x="127" y="172" type="line" smooth="yes"/>
      <point x="127" y="122"/>
      <point x="106" y="93"/>
      <point x="74" y="93" type="curve" smooth="yes"/>
      <point x="47" y="93"/>
      <point x="39" y="83"/>
      <point x="39" y="58" type="curve" smooth="yes"/>
      <point x="39" y="36" type="line" smooth="yes"/>
      <point x="39" y="11"/>
      <point x="47" y="0"/>
      <point x="74" y="0" type="curve" smooth="yes"/>
    </contour>
  </outline>
</glyph>
<glyph name="yen" format="1">
  <advance width="708"/>
  <unicode hex="00A5"/>
  <note>
	yen
  </note>
  <outline>
    <contour>
      <point x="380" y="0" type="line" smooth="yes"/>
      <point x="408" y="0"/>
      <point x="418" y="12"/>
      <point x="418" y="36" type="curve" smooth="yes"/>
      <point x="418" y="87" type="line"/>
      <point x="530" y="87" type="line" smooth="yes"/>
      <point x="554" y="87"/>
      <point x="561" y="93"/>
      <point x="561" y="118" type="curve" smooth="yes"/>
      <point x="561" y="137" type="line" smooth="yes"/>
      <point x="561" y="162"/>
      <point x="554" y="169"/>
      <point x="530" y="169" type="curve" smooth="yes"/>
      <point x="418" y="169" type="line"/>
      <point x="418" y="224" type="line"/>
      <point x="530" y="224" type="line" smooth="yes"/>
      <point x="554" y="224"/>
      <point x="561" y="230"/>
      <point x="561" y="254" type="curve" smooth="yes"/>
      <point x="561" y="273" type="line" smooth="yes"/>
      <point x="561" y="298"/>
      <point x="554" y="305"/>
      <point x="530" y="305" type="curve" smooth="yes"/>
      <point x="463" y="305" type="line"/>
      <point x="665" y="652" type="line" smooth="yes"/>
      <point x="673" y="666"/>
      <point x="669" y="680"/>
      <point x="651" y="680" type="curve" smooth="yes"/>
      <point x="564" y="680" type="line" smooth="yes"/>
      <point x="546" y="680"/>
      <point x="542" y="674"/>
      <point x="536" y="664" type="curve" smooth="yes"/>
      <point x="354" y="345" type="line"/>
      <point x="171" y="664" type="line" smooth="yes"/>
      <point x="165" y="674"/>
      <point x="162" y="680"/>
      <point x="143" y="680" type="curve" smooth="yes"/>
      <point x="57" y="680" type="line" smooth="yes"/>
      <point x="39" y="680"/>
      <point x="35" y="666"/>
      <point x="43" y="652" type="curve" smooth="yes"/>
      <point x="244" y="305" type="line"/>
      <point x="172" y="305" type="line" smooth="yes"/>
      <point x="148" y="305"/>
      <point x="141" y="298"/>
      <point x="141" y="273" type="curve" smooth="yes"/>
      <point x="141" y="254" type="line" smooth="yes"/>
      <point x="141" y="230"/>
      <point x="148" y="224"/>
      <point x="172" y="224" type="curve" smooth="yes"/>
      <point x="289" y="224" type="line"/>
      <point x="289" y="169" type="line"/>
      <point x="172" y="169" type="line" smooth="yes"/>
      <point x="148" y="169"/>
      <point x="141" y="162"/>
      <point x="141" y="137" type="curve" smooth="yes"/>
      <point x="141" y="118" type="line" smooth="yes"/>
      <point x="141" y="93"/>
      <point x="148" y="87"/>
      <point x="172" y="87" type="curve" smooth="yes"/>
      <point x="289" y="87" type="line"/>
      <point x="289" y="36" type="line" smooth="yes"/>
      <point x="289" y="12"/>
      <point x="300" y="0"/>
      <point x="327" y="0" type="curve" smooth="yes"/>
    </contour>
  </outline>
</glyph>
<glyph name="brokenbar" format="1">
  <advance width="206"/>
  <unicode hex="00A6"/>
  <note>
	brokenbar
  </note>
  <outline>
    <contour>
      <point x="129" y="350" type="line" smooth="yes"/>
      <point x="157" y="350"/>
      <point x="167" y="362"/>
      <point x="167" y="386" type="curve" smooth="yes"/>
      <point x="167" y="693" type="line" smooth="yes"/>
      <point x="167" y="717"/>
      <point x="157" y="730"/>
      <point x="129" y="730" type="curve" smooth="yes"/>
      <point x="76" y="730" type="line" smooth="yes"/>
      <point x="49" y="730"/>
      <point x="39" y="717"/>
      <point x="39" y="693" type="curve" smooth="yes"/>
      <point x="39" y="386" type="line" smooth="yes"/>
      <point x="39" y="362"/>
      <point x="49" y="350"/>
      <point x="76" y="350" type="curve" smooth="yes"/>
    </contour>
    <contour>
      <point x="129" y="-219" type="line" smooth="yes"/>
      <point x="157" y="-219"/>
      <point x="167" y="-207"/>
      <point x="167" y="-183" type="curve" smooth="yes"/>
      <point x="167" y="124" type="line" smooth="yes"/>
      <point x="167" y="148"/>
      <point x="157" y="161"/>
      <point x="129" y="161" type="curve" smooth="yes"/>
      <point x="76" y="161" type="line" smooth="yes"/>
      <point x="49" y="161"/>
      <point x="39" y="148"/>
      <point x="39" y="124" type="curve" smooth="yes"/>
      <point x="39" y="-183" type="line" smooth="yes"/>
      <point x="39" y="-207"/>
      <point x="49" y="-219"/>
      <point x="76" y="-219" type="curve" smooth="yes"/>
    </contour>
  </outline>
</glyph>
<glyph name="dieresis" format="1">
  <advance width="395"/>
  <unicode hex="00A8"/>
  <note>
	dieresis
  </note>
  <outline>
    <contour>
      <point x="309" y="555" type="line" smooth="yes"/>
      <point x="338" y="555"/>
      <point x="356" y="578"/>
      <point x="356" y="605" type="curve" smooth="yes"/>
      <point x="356" y="624" type="line" smooth="yes"/>
      <point x="356" y="651"/>
      <point x="337" y="673"/>
      <point x="309" y="673" type="curve" smooth="yes"/>
      <point x="289" y="673" type="line" smooth="yes"/>
      <point x="261" y="673"/>
      <point x="242" y="651"/>
      <point x="242" y="624" type="curve" smooth="yes"/>
      <point x="242" y="605" type="line" smooth="yes"/>
      <point x="242" y="578"/>
      <point x="261" y="555"/>
      <point x="289" y="555" type="curve" smooth="yes"/>
    </contour>
    <contour>
      <point x="106" y="555" type="line" smooth="yes"/>
      <point x="134" y="555"/>
      <point x="153" y="578"/>
      <point x="153" y="605" type="curve" smooth="yes"/>
      <point x="153" y="624" type="line" smooth="yes"/>
      <point x="153" y="651"/>
      <point x="133" y="673"/>
      <point x="106" y="673" type="curve" smooth="yes"/>
      <point x="86" y="673" type="line" smooth="yes"/>
      <point x="58" y="673"/>
      <point x="39" y="651"/>
      <point x="39" y="624" type="curve" smooth="yes"/>
      <point x="39" y="605" type="line" smooth="yes"/>
      <point x="39" y="578"/>
      <point x="58" y="555"/>
      <point x="86" y="555" type="curve" smooth="yes"/>
    </contour>
  </outline>
</glyph>
<glyph name="copyright" format="1">
  <advance width="796"/>
  <unicode hex="00A9"/>
  <note>
	copyright
  </note>
  <outline>
    <contour>
      <point x="594" y="-15"/>
      <point x="757" y="144"/>
      <point x="757" y="340" type="curve" smooth="yes"/>
      <point x="757" y="536"/>
      <point x="594" y="695"/>
      <point x="398" y="695" type="curve" smooth="yes"/>
      <point x="202" y="695"/>
      <point x="39" y="536"/>
      <point x="39" y="340" type="curve" smooth="yes"/>
      <point x="39" y="144"/>
      <point x="202" y="-15"/>
      <point x="398" y="-15" type="curve" smooth="yes"/>
    </contour>
    <contour>
      <point x="471" y="103"/>
      <point x="522" y="120"/>
      <point x="564" y="150" type="curve" smooth="yes"/>
      <point x="572" y="156"/>
      <point x="572" y="163"/>
      <point x="568" y="171" type="curve" smooth="yes"/>
      <point x="550" y="205" type="line" smooth="yes"/>
      <point x="545" y="214"/>
      <point x="540" y="214"/>
      <point x="531" y="208" type="curve" smooth="yes"/>
      <point x="500" y="187"/>
      <point x="465" y="173"/>
      <point x="411" y="173" type="curve" smooth="yes"/>
      <point x="312" y="173"/>
      <point x="254" y="225"/>
      <point x="254" y="338" type="curve" smooth="yes"/>
      <point x="254" y="444"/>
      <point x="310" y="506"/>
      <point x="404" y="506" type="curve" smooth="yes"/>
      <point x="463" y="506"/>
      <point x="497" y="493"/>
      <point x="527" y="472" type="curve" smooth="yes"/>
      <point x="536" y="466"/>
      <point x="541" y="466"/>
      <point x="546" y="475" type="curve"/>
      <point x="563" y="509" type="line"/>
      <point x="568" y="518"/>
      <point x="567" y="524"/>
      <point x="560" y="530" type="curve" smooth="yes"/>
      <point x="518" y="565"/>
      <point x="465" y="577"/>
      <point x="394" y="577" type="curve" smooth="yes"/>
      <point x="255" y="577"/>
      <point x="164" y="484"/>
      <point x="164" y="338" type="curve" smooth="yes"/>
      <point x="164" y="185"/>
      <point x="254" y="103"/>
      <point x="401" y="103" type="curve" smooth="yes"/>
    </contour>
    <contour>
      <point x="236" y="59"/>
      <point x="119" y="179"/>
      <point x="119" y="340" type="curve" smooth="yes"/>
      <point x="119" y="500"/>
      <point x="236" y="620"/>
      <point x="398" y="620" type="curve" smooth="yes"/>
      <point x="559" y="620"/>
      <point x="676" y="500"/>
      <point x="676" y="340" type="curve" smooth="yes"/>
      <point x="676" y="179"/>
      <point x="559" y="59"/>
      <point x="398" y="59" type="curve" smooth="yes"/>
    </contour>
  </outline>
</glyph>
<glyph name="guillemetleft" format="1">
  <advance width="663"/>
  <unicode hex="00AB"/>
  <note>
	guillemotleft
  </note>
  <outline>
    <contour>
      <point x="612" y="74" type="line"/>
      <point x="626" y="87"/>
      <point x="628" y="98"/>
      <point x="612" y="114" type="curve" smooth="yes"/>
      <point x="450" y="280" type="line"/>
      <point x="612" y="445" type="line" smooth="yes"/>
      <point x="628" y="461"/>
      <point x="626" y="471"/>
      <point x="612" y="485" type="curve" smooth="yes"/>
      <point x="572" y="525" type="line" smooth="yes"/>
      <point x="558" y="539"/>
      <point x="546" y="537"/>
      <point x="530" y="520" type="curve" smooth="yes"/>
      <point x="342" y="323" type="line" smooth="yes"/>
      <point x="328" y="308"/>
      <point x="319" y="300"/>
      <point x="319" y="287" type="curve" smooth="yes"/>
      <point x="319" y="272" type="line" smooth="yes"/>
      <point x="319" y="259"/>
      <point x="327" y="252"/>
      <point x="342" y="236" type="curve" smooth="yes"/>
      <point x="530" y="39" type="line" smooth="yes"/>
      <point x="546" y="22"/>
      <point x="558" y="21"/>
      <point x="572" y="34" type="curve"/>
    </contour>
    <contour>
      <point x="332" y="74" type="line"/>
      <point x="346" y="87"/>
      <point x="348" y="98"/>
      <point x="332" y="114" type="curve" smooth="yes"/>
      <point x="170" y="280" type="line"/>
      <point x="332" y="445" type="line" smooth="yes"/>
      <point x="348" y="461"/>
      <point x="346" y="472"/>
      <point x="332" y="485" type="curve"/>
      <point x="292" y="525" type="line" smooth="yes"/>
      <point x="278" y="539"/>
      <point x="266" y="537"/>
      <point x="250" y="520" type="curve" smooth="yes"/>
      <point x="62" y="323" type="line" smooth="yes"/>
      <point x="48" y="308"/>
      <point x="39" y="300"/>
      <point x="39" y="287" type="curve" smooth="yes"/>
      <point x="39" y="272" type="line" smooth="yes"/>
      <point x="39" y="259"/>
      <point x="47" y="252"/>
      <point x="62" y="236" type="curve" smooth="yes"/>
      <point x="250" y="39" type="line" smooth="yes"/>
      <point x="266" y="22"/>
      <point x="278" y="21"/>
      <point x="292" y="34" type="curve"/>
    </contour>
  </outline>
</glyph>
<glyph name="registered" format="1">
  <advance width="796"/>
  <unicode hex="00AE"/>
  <note>
	registered
  </note>
  <outline>
    <contour>
      <point x="594" y="-15"/>
      <point x="757" y="144"/>
      <point x="757" y="340" type="curve" smooth="yes"/>
      <point x="757" y="536"/>
      <point x="594" y="695"/>
      <point x="398" y="695" type="curve" smooth="yes"/>
      <point x="202" y="695"/>
      <point x="39" y="536"/>
      <point x="39" y="340" type="curve" smooth="yes"/>
      <point x="39" y="144"/>
      <point x="202" y="-15"/>
      <point x="398" y="-15" type="curve" smooth="yes"/>
    </contour>
    <contour>
      <point x="236" y="59"/>
      <point x="119" y="179"/>
      <point x="119" y="340" type="curve" smooth="yes"/>
      <point x="119" y="500"/>
      <point x="236" y="620"/>
      <point x="398" y="620" type="curve" smooth="yes"/>
      <point x="559" y="620"/>
      <point x="676" y="500"/>
      <point x="676" y="340" type="curve" smooth="yes"/>
      <point x="676" y="179"/>
      <point x="559" y="59"/>
      <point x="398" y="59" type="curve" smooth="yes"/>
    </contour>
    <contour>
      <point x="303" y="125" type="line" smooth="yes"/>
      <point x="321" y="125"/>
      <point x="329" y="134"/>
      <point x="329" y="151" type="curve" smooth="yes"/>
      <point x="329" y="287" type="line"/>
      <point x="412" y="287" type="line"/>
      <point x="479" y="136" type="line" smooth="yes"/>
      <point x="483" y="127"/>
      <point x="487" y="125"/>
      <point x="497" y="125" type="curve" smooth="yes"/>
      <point x="551" y="125" type="line" smooth="yes"/>
      <point x="563" y="125"/>
      <point x="565" y="133"/>
      <point x="560" y="144" type="curve" smooth="yes"/>
      <point x="489" y="297" type="line"/>
      <point x="561" y="314"/>
      <point x="588" y="361"/>
      <point x="588" y="424" type="curve" smooth="yes"/>
      <point x="588" y="514"/>
      <point x="538" y="561"/>
      <point x="438" y="561" type="curve" smooth="yes"/>
      <point x="269" y="561" type="line" smooth="yes"/>
      <point x="250" y="561"/>
      <point x="242" y="553"/>
      <point x="242" y="536" type="curve" smooth="yes"/>
      <point x="242" y="151" type="line" smooth="yes"/>
      <point x="242" y="134"/>
      <point x="250" y="125"/>
      <point x="269" y="125" type="curve" smooth="yes"/>
    </contour>
    <contour>
      <point x="329" y="495" type="line"/>
      <point x="430" y="495" type="line" smooth="yes"/>
      <point x="487" y="495"/>
      <point x="506" y="476"/>
      <point x="506" y="424" type="curve" smooth="yes"/>
      <point x="506" y="377"/>
      <point x="488" y="353"/>
      <point x="427" y="353" type="curve" smooth="yes"/>
      <point x="329" y="353" type="line"/>
    </contour>
  </outline>
</glyph>
<glyph name="macron" format="1">
  <advance width="423"/>
  <unicode hex="00AF"/>
  <note>
	macron
  </note>
  <outline>
    <contour>
      <point x="348" y="591" type="line" smooth="yes"/>
      <point x="375" y="591"/>
      <point x="384" y="601"/>
      <point x="384" y="626" type="curve" smooth="yes"/>
      <point x="384" y="652" type="line" smooth="yes"/>
      <point x="384" y="677"/>
      <point x="375" y="688"/>
      <point x="348" y="688" type="curve" smooth="yes"/>
      <point x="74" y="688" type="line" smooth="yes"/>
      <point x="47" y="688"/>
      <point x="39" y="677"/>
      <point x="39" y="652" type="curve" smooth="yes"/>
      <point x="39" y="626" type="line" smooth="yes"/>
      <point x="39" y="601"/>
      <point x="47" y="591"/>
      <point x="74" y="591" type="curve" smooth="yes"/>
    </contour>
  </outline>
</glyph>
<glyph name="threesuperior" format="1">
  <advance width="387"/>
  <unicode hex="00B3"/>
  <note>
	threesuperior
  </note>
  <outline>
    <contour>
      <point x="295" y="279"/>
      <point x="348" y="330"/>
      <point x="348" y="402" type="curve" smooth="yes"/>
      <point x="348" y="446"/>
      <point x="331" y="478"/>
      <point x="287" y="494" type="curve"/>
      <point x="323" y="514"/>
      <point x="336" y="542"/>
      <point x="336" y="581" type="curve" smooth="yes"/>
      <point x="336" y="649"/>
      <point x="281" y="695"/>
      <point x="183" y="695" type="curve" smooth="yes"/>
      <point x="130" y="695"/>
      <point x="79" y="682"/>
      <point x="50" y="661" type="curve"/>
      <point x="44" y="656"/>
      <point x="44" y="652"/>
      <point x="48" y="645" type="curve"/>
      <point x="68" y="605" type="line" smooth="yes"/>
      <point x="71" y="599"/>
      <point x="75" y="599"/>
      <point x="82" y="603" type="curve"/>
      <point x="109" y="617"/>
      <point x="133" y="626"/>
      <point x="170" y="626" type="curve" smooth="yes"/>
      <point x="219" y="626"/>
      <point x="237" y="609"/>
      <point x="237" y="579" type="curve" smooth="yes"/>
      <point x="237" y="550"/>
      <point x="225" y="528"/>
      <point x="188" y="528" type="curve" smooth="yes"/>
      <point x="145" y="528" type="line" smooth="yes"/>
      <point x="128" y="528"/>
      <point x="122" y="522"/>
      <point x="122" y="508" type="curve" smooth="yes"/>
      <point x="122" y="479" type="line" smooth="yes"/>
      <point x="122" y="464"/>
      <point x="128" y="458"/>
      <point x="145" y="458" type="curve" smooth="yes"/>
      <point x="188" y="458" type="line" smooth="yes"/>
      <point x="231" y="458"/>
      <point x="249" y="443"/>
      <point x="249" y="404" type="curve" smooth="yes"/>
      <point x="249" y="364"/>
      <point x="226" y="347"/>
      <point x="166" y="347" type="curve" smooth="yes"/>
      <point x="132" y="347"/>
      <point x="102" y="357"/>
      <point x="76" y="370" type="curve"/>
      <point x="69" y="374"/>
      <point x="65" y="374"/>
      <point x="62" y="368" type="curve" smooth="yes"/>
      <point x="41" y="328" type="line"/>
      <point x="37" y="321"/>
      <point x="37" y="317"/>
      <point x="44" y="312" type="curve" smooth="yes"/>
      <point x="71" y="293"/>
      <point x="130" y="279"/>
      <point x="181" y="279" type="curve" smooth="yes"/>
    </contour>
  </outline>
</glyph>
<glyph name="paragraph" format="1">
  <advance width="753"/>
  <unicode hex="00B6"/>
  <note>
	paragraph
  </note>
  <outline>
    <contour>
      <point x="351" y="-100" type="line" smooth="yes"/>
      <point x="379" y="-100"/>
      <point x="390" y="-88"/>
      <point x="390" y="-64" type="curve" smooth="yes"/>
      <point x="390" y="582" type="line"/>
      <point x="499" y="582" type="line"/>
      <point x="499" y="-64" type="line" smooth="yes"/>
      <point x="499" y="-88"/>
      <point x="509" y="-100"/>
      <point x="536" y="-100" type="curve" smooth="yes"/>
      <point x="588" y="-100" type="line" smooth="yes"/>
      <point x="616" y="-100"/>
      <point x="626" y="-88"/>
      <point x="626" y="-64" type="curve" smooth="yes"/>
      <point x="626" y="582" type="line"/>
      <point x="682" y="582" type="line" smooth="yes"/>
      <point x="706" y="582"/>
      <point x="714" y="592"/>
      <point x="714" y="614" type="curve" smooth="yes"/>
      <point x="714" y="648" type="line" smooth="yes"/>
      <point x="714" y="669"/>
      <point x="706" y="680"/>
      <point x="682" y="680" type="curve" smooth="yes"/>
      <point x="301" y="680" type="line" smooth="yes"/>
      <point x="118" y="680"/>
      <point x="39" y="615"/>
      <point x="39" y="465" type="curve" smooth="yes"/>
      <point x="39" y="332"/>
      <point x="119" y="269"/>
      <point x="262" y="269" type="curve"/>
      <point x="262" y="-64" type="line" smooth="yes"/>
      <point x="262" y="-88"/>
      <point x="272" y="-100"/>
      <point x="300" y="-100" type="curve" smooth="yes"/>
    </contour>
  </outline>
</glyph>
<glyph name="cedilla" format="1">
  <advance width="284"/>
  <unicode hex="00B8"/>
  <note>
	cedilla
  </note>
  <outline>
    <contour>
      <point x="206" y="-238"/>
      <point x="245" y="-204"/>
      <point x="245" y="-155" type="curve" smooth="yes"/>
      <point x="245" y="-109"/>
      <point x="218" y="-85"/>
      <point x="173" y="-81" type="curve"/>
      <point x="196" y="-31" type="line" smooth="yes"/>
      <point x="201" y="-21"/>
      <point x="198" y="-15"/>
      <point x="186" y="-15" type="curve" smooth="yes"/>
      <point x="122" y="-15" type="line" smooth="yes"/>
      <point x="108" y="-15"/>
      <point x="104" y="-18"/>
      <point x="100" y="-29" type="curve" smooth="yes"/>
      <point x="73" y="-97" type="line" smooth="yes"/>
      <point x="69" y="-107"/>
      <point x="73" y="-113"/>
      <point x="83" y="-113" type="curve" smooth="yes"/>
      <point x="98" y="-113" type="line" smooth="yes"/>
      <point x="138" y="-113"/>
      <point x="158" y="-118"/>
      <point x="158" y="-146" type="curve" smooth="yes"/>
      <point x="158" y="-166"/>
      <point x="147" y="-175"/>
      <point x="119" y="-175" type="curve" smooth="yes"/>
      <point x="104" y="-175"/>
      <point x="86" y="-171"/>
      <point x="73" y="-164" type="curve" smooth="yes"/>
      <point x="64" y="-159"/>
      <point x="59" y="-159"/>
      <point x="55" y="-168" type="curve"/>
      <point x="41" y="-203" type="line" smooth="yes"/>
      <point x="37" y="-213"/>
      <point x="39" y="-215"/>
      <point x="51" y="-221" type="curve"/>
      <point x="69" y="-231"/>
      <point x="103" y="-238"/>
      <point x="133" y="-238" type="curve" smooth="yes"/>
    </contour>
  </outline>
</glyph>
<glyph name="ordmasculine" format="1">
  <advance width="413"/>
  <unicode hex="00BA"/>
  <note>
	ordmasculine
  </note>
  <outline>
    <contour>
      <point x="312" y="368"/>
      <point x="374" y="429"/>
      <point x="374" y="531" type="curve" smooth="yes"/>
      <point x="374" y="633"/>
      <point x="312" y="695"/>
      <point x="206" y="695" type="curve" smooth="yes"/>
      <point x="100" y="695"/>
      <point x="39" y="633"/>
      <point x="39" y="531" type="curve" smooth="yes"/>
      <point x="39" y="429"/>
      <point x="100" y="368"/>
      <point x="206" y="368" type="curve" smooth="yes"/>
    </contour>
    <contour>
      <point x="154" y="431"/>
      <point x="123" y="465"/>
      <point x="123" y="531" type="curve" smooth="yes"/>
      <point x="123" y="598"/>
      <point x="154" y="630"/>
      <point x="206" y="630" type="curve" smooth="yes"/>
      <point x="258" y="630"/>
      <point x="290" y="598"/>
      <point x="290" y="531" type="curve" smooth="yes"/>
      <point x="290" y="465"/>
      <point x="258" y="431"/>
      <point x="206" y="431" type="curve" smooth="yes"/>
    </contour>
  </outline>
</glyph>
<glyph name="onequarter" format="1">
  <advance width="818"/>
  <unicode hex="00BC"/>
  <note>
	onequarter
  </note>
  <outline>
    <contour>
      <point x="254" y="0" type="line" smooth="yes"/>
      <point x="271" y="0"/>
      <point x="274" y="3"/>
      <point x="281" y="14" type="curve" smooth="yes"/>
      <point x="698" y="655" type="line" smooth="yes"/>
      <point x="706" y="667"/>
      <point x="702" y="680"/>
      <point x="687" y="680" type="curve" smooth="yes"/>
      <point x="608" y="680" type="line" smooth="yes"/>
      <point x="595" y="680"/>
      <point x="589" y="674"/>
      <point x="582" y="663" type="curve" smooth="yes"/>
      <point x="167" y="25" type="line" smooth="yes"/>
      <point x="159" y="13"/>
      <point x="163" y="0"/>
      <point x="178" y="0" type="curve" smooth="yes"/>
    </contour>
    <contour>
      <point x="310" y="286" type="line" smooth="yes"/>
      <point x="329" y="286"/>
      <point x="336" y="292"/>
      <point x="336" y="311" type="curve" smooth="yes"/>
      <point x="336" y="332" type="line" smooth="yes"/>
      <point x="336" y="350"/>
      <point x="329" y="358"/>
      <point x="310" y="358" type="curve" smooth="yes"/>
      <point x="242" y="358" type="line"/>
      <point x="242" y="653" type="line" smooth="yes"/>
      <point x="242" y="670"/>
      <point x="234" y="680"/>
      <point x="214" y="680" type="curve" smooth="yes"/>
      <point x="181" y="680" type="line" smooth="yes"/>
      <point x="169" y="680"/>
      <point x="164" y="678"/>
      <point x="157" y="673" type="curve"/>
      <point x="39" y="602" type="line" smooth="yes"/>
      <point x="29" y="596"/>
      <point x="26" y="589"/>
      <point x="32" y="579" type="curve"/>
      <point x="53" y="547" type="line"/>
      <point x="60" y="535"/>
      <point x="69" y="535"/>
      <point x="78" y="541" type="curve"/>
      <point x="145" y="582" type="line"/>
      <point x="145" y="358" type="line"/>
      <point x="76" y="358" type="line" smooth="yes"/>
      <point x="56" y="358"/>
      <point x="49" y="350"/>
      <point x="49" y="332" type="curve" smooth="yes"/>
      <point x="49" y="311" type="line" smooth="yes"/>
      <point x="49" y="292"/>
      <point x="56" y="286"/>
      <point x="76" y="286" type="curve" smooth="yes"/>
    </contour>
    <contour>
      <point x="688" y="0" type="line" smooth="yes"/>
      <point x="708" y="0"/>
      <point x="717" y="7"/>
      <point x="717" y="25" type="curve" smooth="yes"/>
      <point x="717" y="86" type="line"/>
      <point x="754" y="86" type="line" smooth="yes"/>
      <point x="775" y="86"/>
      <point x="781" y="91"/>
      <point x="781" y="109" type="curve" smooth="yes"/>
      <point x="781" y="131" type="line" smooth="yes"/>
      <point x="781" y="149"/>
      <point x="774" y="156"/>
      <point x="754" y="156" type="curve" smooth="yes"/>
      <point x="717" y="156" type="line"/>
      <point x="717" y="372" type="line" smooth="yes"/>
      <point x="717" y="388"/>
      <point x="712" y="394"/>
      <point x="695" y="394" type="curve" smooth="yes"/>
      <point x="643" y="394" type="line" smooth="yes"/>
      <point x="624" y="394"/>
      <point x="618" y="390"/>
      <point x="610" y="379" type="curve"/>
      <point x="438" y="164" type="line" smooth="yes"/>
      <point x="426" y="149"/>
      <point x="423" y="141"/>
      <point x="423" y="125" type="curve" smooth="yes"/>
      <point x="423" y="100" type="line" smooth="yes"/>
      <point x="423" y="90"/>
      <point x="427" y="86"/>
      <point x="438" y="86" type="curve" smooth="yes"/>
      <point x="616" y="86" type="line"/>
      <point x="616" y="25" type="line" smooth="yes"/>
      <point x="616" y="7"/>
      <point x="625" y="0"/>
      <point x="645" y="0" type="curve" smooth="yes"/>
    </contour>
    <contour>
      <point x="631" y="286" type="line"/>
      <point x="631" y="156" type="line"/>
      <point x="531" y="156" type="line"/>
    </contour>
  </outline>
</glyph>
<glyph name="onehalf" format="1">
  <advance width="884"/>
  <unicode hex="00BD"/>
  <note>
	onehalf
  </note>
  <outline>
    <contour>
      <point x="254" y="0" type="line" smooth="yes"/>
      <point x="271" y="0"/>
      <point x="274" y="3"/>
      <point x="281" y="14" type="curve" smooth="yes"/>
      <point x="698" y="655" type="line" smooth="yes"/>
      <point x="706" y="667"/>
      <point x="702" y="680"/>
      <point x="687" y="680" type="curve" smooth="yes"/>
      <point x="608" y="680" type="line" smooth="yes"/>
      <point x="595" y="680"/>
      <point x="589" y="674"/>
      <point x="582" y="663" type="curve" smooth="yes"/>
      <point x="167" y="25" type="line" smooth="yes"/>
      <point x="159" y="13"/>
      <point x="163" y="0"/>
      <point x="178" y="0" type="curve" smooth="yes"/>
    </contour>
    <contour>
      <point x="310" y="286" type="line" smooth="yes"/>
      <point x="329" y="286"/>
      <point x="336" y="292"/>
      <point x="336" y="311" type="curve" smooth="yes"/>
      <point x="336" y="332" type="line" smooth="yes"/>
      <point x="336" y="350"/>
      <point x="329" y="358"/>
      <point x="310" y="358" type="curve" smooth="yes"/>
      <point x="242" y="358" type="line"/>
      <point x="242" y="653" type="line" smooth="yes"/>
      <point x="242" y="670"/>
      <point x="234" y="680"/>
      <point x="214" y="680" type="curve" smooth="yes"/>
      <point x="181" y="680" type="line" smooth="yes"/>
      <point x="169" y="680"/>
      <point x="164" y="678"/>
      <point x="157" y="673" type="curve"/>
      <point x="39" y="602" type="line" smooth="yes"/>
      <point x="29" y="596"/>
      <point x="26" y="589"/>
      <point x="32" y="579" type="curve"/>
      <point x="53" y="547" type="line"/>
      <point x="60" y="535"/>
      <point x="69" y="535"/>
      <point x="78" y="541" type="curve"/>
      <point x="145" y="582" type="line"/>
      <point x="145" y="358" type="line"/>
      <point x="76" y="358" type="line" smooth="yes"/>
      <point x="56" y="358"/>
      <point x="49" y="350"/>
      <point x="49" y="332" type="curve" smooth="yes"/>
      <point x="49" y="311" type="line" smooth="yes"/>
      <point x="49" y="292"/>
      <point x="56" y="286"/>
      <point x="76" y="286" type="curve" smooth="yes"/>
    </contour>
    <contour>
      <point x="809" y="0" type="line" smooth="yes"/>
      <point x="824" y="0"/>
      <point x="829" y="5"/>
      <point x="829" y="20" type="curve" smooth="yes"/>
      <point x="829" y="55" type="line" smooth="yes"/>
      <point x="829" y="71"/>
      <point x="824" y="77"/>
      <point x="809" y="77" type="curve" smooth="yes"/>
      <point x="631" y="77" type="line"/>
      <point x="636" y="103"/>
      <point x="669" y="124"/>
      <point x="723" y="155" type="curve" smooth="yes"/>
      <point x="799" y="198"/>
      <point x="826" y="232"/>
      <point x="826" y="294" type="curve" smooth="yes"/>
      <point x="826" y="363"/>
      <point x="769" y="409"/>
      <point x="679" y="409" type="curve" smooth="yes"/>
      <point x="620" y="409"/>
      <point x="564" y="393"/>
      <point x="536" y="374" type="curve"/>
      <point x="529" y="370"/>
      <point x="529" y="366"/>
      <point x="533" y="358" type="curve" smooth="yes"/>
      <point x="553" y="316" type="line"/>
      <point x="557" y="310"/>
      <point x="561" y="311"/>
      <point x="568" y="314" type="curve"/>
      <point x="593" y="327"/>
      <point x="625" y="337"/>
      <point x="660" y="337" type="curve" smooth="yes"/>
      <point x="707" y="337"/>
      <point x="731" y="319"/>
      <point x="731" y="288" type="curve" smooth="yes"/>
      <point x="731" y="249"/>
      <point x="714" y="232"/>
      <point x="644" y="190" type="curve" smooth="yes"/>
      <point x="566" y="143"/>
      <point x="524" y="101"/>
      <point x="524" y="50" type="curve" smooth="yes"/>
      <point x="524" y="20" type="line" smooth="yes"/>
      <point x="524" y="6"/>
      <point x="530" y="0"/>
      <point x="543" y="0" type="curve" smooth="yes"/>
    </contour>
  </outline>
</glyph>
<glyph name="threequarters" format="1">
  <advance width="826"/>
  <unicode hex="00BE"/>
  <note>
	threequarters
  </note>
  <outline>
    <contour>
      <point x="254" y="0" type="line" smooth="yes"/>
      <point x="271" y="0"/>
      <point x="274" y="3"/>
      <point x="281" y="14" type="curve" smooth="yes"/>
      <point x="698" y="655" type="line" smooth="yes"/>
      <point x="706" y="667"/>
      <point x="702" y="680"/>
      <point x="687" y="680" type="curve" smooth="yes"/>
      <point x="608" y="680" type="line" smooth="yes"/>
      <point x="595" y="680"/>
      <point x="589" y="674"/>
      <point x="582" y="663" type="curve" smooth="yes"/>
      <point x="167" y="25" type="line" smooth="yes"/>
      <point x="159" y="13"/>
      <point x="163" y="0"/>
      <point x="178" y="0" type="curve" smooth="yes"/>
    </contour>
    <contour>
      <point x="291" y="279"/>
      <point x="344" y="330"/>
      <point x="344" y="402" type="curve" smooth="yes"/>
      <point x="344" y="446"/>
      <point x="327" y="478"/>
      <point x="283" y="494" type="curve"/>
      <point x="319" y="514"/>
      <point x="332" y="542"/>
      <point x="332" y="581" type="curve" smooth="yes"/>
      <point x="332" y="649"/>
      <point x="277" y="695"/>
      <point x="179" y="695" type="curve" smooth="yes"/>
      <point x="126" y="695"/>
      <point x="75" y="682"/>
      <point x="46" y="661" type="curve"/>
      <point x="40" y="656"/>
      <point x="40" y="652"/>
      <point x="44" y="645" type="curve"/>
      <point x="64" y="605" type="line" smooth="yes"/>
      <point x="67" y="599"/>
      <point x="71" y="599"/>
      <point x="78" y="603" type="curve"/>
      <point x="105" y="617"/>
      <point x="129" y="626"/>
      <point x="166" y="626" type="curve" smooth="yes"/>
      <point x="215" y="626"/>
      <point x="233" y="609"/>
      <point x="233" y="579" type="curve" smooth="yes"/>
      <point x="233" y="550"/>
      <point x="221" y="528"/>
      <point x="184" y="528" type="curve" smooth="yes"/>
      <point x="141" y="528" type="line" smooth="yes"/>
      <point x="124" y="528"/>
      <point x="118" y="522"/>
      <point x="118" y="508" type="curve" smooth="yes"/>
      <point x="118" y="479" type="line" smooth="yes"/>
      <point x="118" y="464"/>
      <point x="124" y="458"/>
      <point x="141" y="458" type="curve" smooth="yes"/>
      <point x="184" y="458" type="line" smooth="yes"/>
      <point x="227" y="458"/>
      <point x="245" y="443"/>
      <point x="245" y="404" type="curve" smooth="yes"/>
      <point x="245" y="364"/>
      <point x="222" y="347"/>
      <point x="162" y="347" type="curve" smooth="yes"/>
      <point x="128" y="347"/>
      <point x="98" y="357"/>
      <point x="72" y="370" type="curve"/>
      <point x="65" y="374"/>
      <point x="61" y="374"/>
      <point x="58" y="368" type="curve" smooth="yes"/>
      <point x="37" y="328" type="line"/>
      <point x="33" y="321"/>
      <point x="33" y="317"/>
      <point x="40" y="312" type="curve" smooth="yes"/>
      <point x="67" y="293"/>
      <point x="126" y="279"/>
      <point x="177" y="279" type="curve" smooth="yes"/>
    </contour>
    <contour>
      <point x="688" y="0" type="line" smooth="yes"/>
      <point x="708" y="0"/>
      <point x="717" y="7"/>
      <point x="717" y="25" type="curve" smooth="yes"/>
      <point x="717" y="86" type="line"/>
      <point x="754" y="86" type="line" smooth="yes"/>
      <point x="775" y="86"/>
      <point x="781" y="91"/>
      <point x="781" y="109" type="curve" smooth="yes"/>
      <point x="781" y="131" type="line" smooth="yes"/>
      <point x="781" y="149"/>
      <point x="774" y="156"/>
      <point x="754" y="156" type="curve" smooth="yes"/>
      <point x="717" y="156" type="line"/>
      <point x="717" y="372" type="line" smooth="yes"/>
      <point x="717" y="388"/>
      <point x="712" y="394"/>
      <point x="695" y="394" type="curve" smooth="yes"/>
      <point x="643" y="394" type="line" smooth="yes"/>
      <point x="624" y="394"/>
      <point x="618" y="390"/>
      <point x="610" y="379" type="curve"/>
      <point x="438" y="164" type="line" smooth="yes"/>
      <point x="426" y="149"/>
      <point x="423" y="141"/>
      <point x="423" y="125" type="curve" smooth="yes"/>
      <point x="423" y="100" type="line" smooth="yes"/>
      <point x="423" y="90"/>
      <point x="427" y="86"/>
      <point x="438" y="86" type="curve" smooth="yes"/>
      <point x="616" y="86" type="line"/>
      <point x="616" y="25" type="line" smooth="yes"/>
      <point x="616" y="7"/>
      <point x="625" y="0"/>
      <point x="645" y="0" type="curve" smooth="yes"/>
    </contour>
    <contour>
      <point x="631" y="286" type="line"/>
      <point x="631" y="156" type="line"/>
      <point x="531" y="156" type="line"/>
    </contour>
  </outline>
</glyph>
<glyph name="Aacute" format="1">
  <advance width="733"/>
  <unicode hex="00C1"/>
  <note>
	Aacute
  </note>
  <outline>
    <contour>
      <point x="143" y="0" type="line" smooth="yes"/>
      <point x="161" y="0"/>
      <point x="166" y="4"/>
      <point x="172" y="18" type="curve" smooth="yes"/>
      <point x="228" y="158" type="line"/>
      <point x="504" y="158" type="line"/>
      <point x="561" y="18" type="line" smooth="yes"/>
      <point x="567" y="4"/>
      <point x="572" y="0"/>
      <point x="590" y="0" type="curve" smooth="yes"/>
      <point x="677" y="0" type="line" smooth="yes"/>
      <point x="693" y="0"/>
      <point x="698" y="12"/>
      <point x="691" y="28" type="curve" smooth="yes"/>
      <point x="427" y="654" type="line" smooth="yes"/>
      <point x="419" y="673"/>
      <point x="413" y="680"/>
      <point x="394" y="680" type="curve" smooth="yes"/>
      <point x="339" y="680" type="line" smooth="yes"/>
      <point x="321" y="680"/>
      <point x="314" y="673"/>
      <point x="306" y="654" type="curve" smooth="yes"/>
      <point x="42" y="28" type="line" smooth="yes"/>
      <point x="35" y="12"/>
      <point x="40" y="0"/>
      <point x="56" y="0" type="curve" smooth="yes"/>
    </contour>
    <contour>
      <point x="366" y="513" type="line"/>
      <point x="472" y="251" type="line"/>
      <point x="260" y="251" type="line"/>
    </contour>
    <contour>
      <point x="390" y="729" type="line" smooth="yes"/>
      <point x="416" y="729"/>
      <point x="423" y="734"/>
      <point x="432" y="751" type="curve" smooth="yes"/>
      <point x="498" y="880" type="line" smooth="yes"/>
      <point x="509" y="901"/>
      <point x="499" y="912"/>
      <point x="477" y="912" type="curve" smooth="yes"/>
      <point x="403" y="912" type="line" smooth="yes"/>
      <point x="378" y="912"/>
      <point x="373" y="905"/>
      <point x="366" y="888" type="curve"/>
      <point x="319" y="757" type="line" smooth="yes"/>
      <point x="313" y="740"/>
      <point x="318" y="729"/>
      <point x="338" y="729" type="curve" smooth="yes"/>
    </contour>
  </outline>
</glyph>
<glyph name="Acircumflex" format="1">
  <advance width="733"/>
  <unicode hex="00C2"/>
  <note>
	Acircumflex
  </note>
  <outline>
    <contour>
      <point x="143" y="0" type="line" smooth="yes"/>
      <point x="161" y="0"/>
      <point x="166" y="4"/>
      <point x="172" y="18" type="curve" smooth="yes"/>
      <point x="228" y="158" type="line"/>
      <point x="504" y="158" type="line"/>
      <point x="561" y="18" type="line" smooth="yes"/>
      <point x="567" y="4"/>
      <point x="572" y="0"/>
      <point x="590" y="0" type="curve" smooth="yes"/>
      <point x="677" y="0" type="line" smooth="yes"/>
      <point x="693" y="0"/>
      <point x="698" y="12"/>
      <point x="691" y="28" type="curve" smooth="yes"/>
      <point x="427" y="654" type="line" smooth="yes"/>
      <point x="419" y="673"/>
      <point x="413" y="680"/>
      <point x="394" y="680" type="curve" smooth="yes"/>
      <point x="339" y="680" type="line" smooth="yes"/>
      <point x="321" y="680"/>
      <point x="314" y="673"/>
      <point x="306" y="654" type="curve" smooth="yes"/>
      <point x="42" y="28" type="line" smooth="yes"/>
      <point x="35" y="12"/>
      <point x="40" y="0"/>
      <point x="56" y="0" type="curve" smooth="yes"/>
    </contour>
    <contour>
      <point x="366" y="513" type="line"/>
      <point x="472" y="251" type="line"/>
      <point x="260" y="251" type="line"/>
    </contour>
    <contour>
      <point x="258" y="726" type="line" smooth="yes"/>
      <point x="282" y="726"/>
      <point x="289" y="733"/>
      <point x="298" y="747" type="curve" smooth="yes"/>
      <point x="366" y="847" type="line"/>
      <point x="433" y="747" type="line" smooth="yes"/>
      <point x="443" y="733"/>
      <point x="449" y="726"/>
      <point x="474" y="726" type="curve" smooth="yes"/>
      <point x="521" y="726" type="line" smooth="yes"/>
      <point x="541" y="726"/>
      <point x="550" y="739"/>
      <point x="536" y="758" type="curve" smooth="yes"/>
      <point x="432" y="899" type="line" smooth="yes"/>
      <point x="421" y="914"/>
      <point x="417" y="921"/>
      <point x="394" y="921" type="curve" smooth="yes"/>
      <point x="337" y="921" type="line" smooth="yes"/>
      <point x="314" y="921"/>
      <point x="311" y="914"/>
      <point x="299" y="899" type="curve"/>
      <point x="195" y="758" type="line" smooth="yes"/>
      <point x="181" y="739"/>
      <point x="190" y="726"/>
      <point x="211" y="726" type="curve" smooth="yes"/>
    </contour>
  </outline>
</glyph>
<glyph name="Adieresis" format="1">
  <advance width="733"/>
  <unicode hex="00C4"/>
  <note>
	Adieresis
  </note>
  <outline>
    <contour>
      <point x="143" y="0" type="line" smooth="yes"/>
      <point x="161" y="0"/>
      <point x="166" y="4"/>
      <point x="172" y="18" type="curve" smooth="yes"/>
      <point x="228" y="158" type="line"/>
      <point x="504" y="158" type="line"/>
      <point x="561" y="18" type="line" smooth="yes"/>
      <point x="567" y="4"/>
      <point x="572" y="0"/>
      <point x="590" y="0" type="curve" smooth="yes"/>
      <point x="677" y="0" type="line" smooth="yes"/>
      <point x="693" y="0"/>
      <point x="698" y="12"/>
      <point x="691" y="28" type="curve" smooth="yes"/>
      <point x="427" y="654" type="line" smooth="yes"/>
      <point x="419" y="673"/>
      <point x="413" y="680"/>
      <point x="394" y="680" type="curve" smooth="yes"/>
      <point x="339" y="680" type="line" smooth="yes"/>
      <point x="321" y="680"/>
      <point x="314" y="673"/>
      <point x="306" y="654" type="curve" smooth="yes"/>
      <point x="42" y="28" type="line" smooth="yes"/>
      <point x="35" y="12"/>
      <point x="40" y="0"/>
      <point x="56" y="0" type="curve" smooth="yes"/>
    </contour>
    <contour>
      <point x="366" y="513" type="line"/>
      <point x="472" y="251" type="line"/>
      <point x="260" y="251" type="line"/>
    </contour>
    <contour>
      <point x="278" y="736" type="line" smooth="yes"/>
      <point x="307" y="736"/>
      <point x="325" y="759"/>
      <point x="325" y="786" type="curve" smooth="yes"/>
      <point x="325" y="805" type="line" smooth="yes"/>
      <point x="325" y="832"/>
      <point x="306" y="854"/>
      <point x="278" y="854" type="curve" smooth="yes"/>
      <point x="258" y="854" type="line" smooth="yes"/>
      <point x="230" y="854"/>
      <point x="211" y="832"/>
      <point x="211" y="805" type="curve" smooth="yes"/>
      <point x="211" y="786" type="line" smooth="yes"/>
      <point x="211" y="759"/>
      <point x="230" y="736"/>
      <point x="258" y="736" type="curve" smooth="yes"/>
    </contour>
    <contour>
      <point x="475" y="736" type="line" smooth="yes"/>
      <point x="504" y="736"/>
      <point x="522" y="759"/>
      <point x="522" y="786" type="curve" smooth="yes"/>
      <point x="522" y="805" type="line" smooth="yes"/>
      <point x="522" y="832"/>
      <point x="503" y="854"/>
      <point x="475" y="854" type="curve" smooth="yes"/>
      <point x="455" y="854" type="line" smooth="yes"/>
      <point x="428" y="854"/>
      <point x="408" y="832"/>
      <point x="408" y="805" type="curve" smooth="yes"/>
      <point x="408" y="786" type="line" smooth="yes"/>
      <point x="408" y="759"/>
      <point x="428" y="736"/>
      <point x="455" y="736" type="curve" smooth="yes"/>
    </contour>
  </outline>
</glyph>
<glyph name="Ccedilla" format="1">
  <advance width="677"/>
  <unicode hex="00C7"/>
  <note>
	Ccedilla
  </note>
  <outline>
    <contour>
      <point x="496" y="-15"/>
      <point x="574" y="1"/>
      <point x="628" y="39" type="curve" smooth="yes"/>
      <point x="640" y="47"/>
      <point x="642" y="51"/>
      <point x="636" y="62" type="curve"/>
      <point x="605" y="114" type="line" smooth="yes"/>
      <point x="598" y="126"/>
      <point x="592" y="125"/>
      <point x="580" y="118" type="curve" smooth="yes"/>
      <point x="537" y="93"/>
      <point x="485" y="79"/>
      <point x="409" y="79" type="curve" smooth="yes"/>
      <point x="267" y="79"/>
      <point x="165" y="156"/>
      <point x="165" y="340" type="curve" smooth="yes"/>
      <point x="165" y="519"/>
      <point x="260" y="600"/>
      <point x="406" y="600" type="curve" smooth="yes"/>
      <point x="478" y="600"/>
      <point x="532" y="583"/>
      <point x="567" y="562" type="curve"/>
      <point x="580" y="555"/>
      <point x="585" y="554"/>
      <point x="592" y="566" type="curve" smooth="yes"/>
      <point x="620" y="614" type="line" smooth="yes"/>
      <point x="627" y="626"/>
      <point x="627" y="634"/>
      <point x="616" y="641" type="curve" smooth="yes"/>
      <point x="563" y="676"/>
      <point x="482" y="695"/>
      <point x="392" y="695" type="curve" smooth="yes"/>
      <point x="166" y="695"/>
      <point x="39" y="568"/>
      <point x="39" y="340" type="curve" smooth="yes"/>
      <point x="39" y="111"/>
      <point x="170" y="-15"/>
      <point x="395" y="-15" type="curve" smooth="yes"/>
    </contour>
    <contour>
      <point x="450" y="-227"/>
      <point x="489" y="-193"/>
      <point x="489" y="-144" type="curve" smooth="yes"/>
      <point x="489" y="-97"/>
      <point x="462" y="-74"/>
      <point x="417" y="-70" type="curve"/>
      <point x="440" y="-20" type="line" smooth="yes"/>
      <point x="445" y="-10"/>
      <point x="442" y="-4"/>
      <point x="430" y="-4" type="curve" smooth="yes"/>
      <point x="366" y="-4" type="line" smooth="yes"/>
      <point x="352" y="-4"/>
      <point x="348" y="-7"/>
      <point x="344" y="-18" type="curve" smooth="yes"/>
      <point x="317" y="-86" type="line" smooth="yes"/>
      <point x="313" y="-96"/>
      <point x="317" y="-102"/>
      <point x="327" y="-102" type="curve" smooth="yes"/>
      <point x="342" y="-102" type="line" smooth="yes"/>
      <point x="382" y="-102"/>
      <point x="402" y="-107"/>
      <point x="402" y="-135" type="curve" smooth="yes"/>
      <point x="402" y="-155"/>
      <point x="391" y="-164"/>
      <point x="363" y="-164" type="curve" smooth="yes"/>
      <point x="348" y="-164"/>
      <point x="330" y="-160"/>
      <point x="317" y="-153" type="curve" smooth="yes"/>
      <point x="308" y="-148"/>
      <point x="303" y="-148"/>
      <point x="299" y="-157" type="curve"/>
      <point x="285" y="-192" type="line"/>
      <point x="281" y="-201"/>
      <point x="283" y="-204"/>
      <point x="295" y="-210" type="curve"/>
      <point x="313" y="-220"/>
      <point x="347" y="-227"/>
      <point x="377" y="-227" type="curve" smooth="yes"/>
    </contour>
  </outline>
</glyph>
<glyph name="Egrave" format="1">
  <advance width="576"/>
  <unicode hex="00C8"/>
  <note>
	Egrave
  </note>
  <outline>
    <contour>
      <point x="511" y="0" type="line" smooth="yes"/>
      <point x="538" y="0"/>
      <point x="547" y="10"/>
      <point x="547" y="34" type="curve" smooth="yes"/>
      <point x="547" y="61" type="line" smooth="yes"/>
      <point x="547" y="86"/>
      <point x="538" y="97"/>
      <point x="511" y="97" type="curve" smooth="yes"/>
      <point x="187" y="97" type="line"/>
      <point x="187" y="292" type="line"/>
      <point x="423" y="292" type="line" smooth="yes"/>
      <point x="450" y="292"/>
      <point x="459" y="303"/>
      <point x="459" y="328" type="curve" smooth="yes"/>
      <point x="459" y="353" type="line" smooth="yes"/>
      <point x="459" y="378"/>
      <point x="450" y="388"/>
      <point x="423" y="388" type="curve" smooth="yes"/>
      <point x="187" y="388" type="line"/>
      <point x="187" y="582" type="line"/>
      <point x="512" y="582" type="line" smooth="yes"/>
      <point x="539" y="582"/>
      <point x="547" y="593"/>
      <point x="547" y="618" type="curve" smooth="yes"/>
      <point x="547" y="645" type="line" smooth="yes"/>
      <point x="547" y="670"/>
      <point x="539" y="680"/>
      <point x="512" y="680" type="curve" smooth="yes"/>
      <point x="96" y="680" type="line" smooth="yes"/>
      <point x="69" y="680"/>
      <point x="59" y="667"/>
      <point x="59" y="643" type="curve" smooth="yes"/>
      <point x="59" y="36" type="line" smooth="yes"/>
      <point x="59" y="12"/>
      <point x="69" y="0"/>
      <point x="96" y="0" type="curve" smooth="yes"/>
    </contour>
    <contour>
      <point x="350" y="753" type="line" smooth="yes"/>
      <point x="371" y="753"/>
      <point x="376" y="764"/>
      <point x="370" y="781" type="curve" smooth="yes"/>
      <point x="322" y="912" type="line" smooth="yes"/>
      <point x="316" y="930"/>
      <point x="311" y="936"/>
      <point x="285" y="936" type="curve" smooth="yes"/>
      <point x="212" y="936" type="line" smooth="yes"/>
      <point x="190" y="936"/>
      <point x="180" y="925"/>
      <point x="191" y="904" type="curve" smooth="yes"/>
      <point x="257" y="775" type="line" smooth="yes"/>
      <point x="266" y="758"/>
      <point x="273" y="753"/>
      <point x="298" y="753" type="curve" smooth="yes"/>
    </contour>
  </outline>
</glyph>
<glyph name="Igrave" format="1">
  <advance width="240"/>
  <unicode hex="00CC"/>
  <note>
	Igrave
  </note>
  <outline>
    <contour>
      <point x="146" y="0" type="line" smooth="yes"/>
      <point x="174" y="0"/>
      <point x="184" y="12"/>
      <point x="184" y="36" type="curve" smooth="yes"/>
      <point x="184" y="643" type="line" smooth="yes"/>
      <point x="184" y="667"/>
      <point x="174" y="680"/>
      <point x="146" y="680" type="curve" smooth="yes"/>
      <point x="93" y="680" type="line" smooth="yes"/>
      <point x="66" y="680"/>
      <point x="56" y="667"/>
      <point x="56" y="643" type="curve" smooth="yes"/>
      <point x="56" y="36" type="line" smooth="yes"/>
      <point x="56" y="12"/>
      <point x="66" y="0"/>
      <point x="93" y="0" type="curve" smooth="yes"/>
    </contour>
    <contour>
      <point x="152" y="753" type="line" smooth="yes"/>
      <point x="173" y="753"/>
      <point x="178" y="764"/>
      <point x="172" y="781" type="curve" smooth="yes"/>
      <point x="124" y="912" type="line" smooth="yes"/>
      <point x="118" y="930"/>
      <point x="113" y="936"/>
      <point x="87" y="936" type="curve" smooth="yes"/>
      <point x="14" y="936" type="line" smooth="yes"/>
      <point x="-8" y="936"/>
      <point x="-18" y="925"/>
      <point x="-7" y="904" type="curve" smooth="yes"/>
      <point x="59" y="775" type="line" smooth="yes"/>
      <point x="68" y="758"/>
      <point x="75" y="753"/>
      <point x="100" y="753" type="curve" smooth="yes"/>
    </contour>
  </outline>
</glyph>
<glyph name="Eth" format="1">
  <advance width="728"/>
  <unicode hex="00D0"/>
  <note>
	Eth
  </note>
  <outline>
    <contour>
      <point x="342" y="0" type="line" smooth="yes"/>
      <point x="557" y="0"/>
      <point x="689" y="97"/>
      <point x="689" y="340" type="curve" smooth="yes"/>
      <point x="689" y="585"/>
      <point x="557" y="680"/>
      <point x="342" y="680" type="curve" smooth="yes"/>
      <point x="142" y="680" type="line" smooth="yes"/>
      <point x="114" y="680"/>
      <point x="104" y="667"/>
      <point x="104" y="643" type="curve" smooth="yes"/>
      <point x="104" y="389" type="line"/>
      <point x="51" y="389" type="line" smooth="yes"/>
      <point x="26" y="389"/>
      <point x="19" y="380"/>
      <point x="19" y="354" type="curve" smooth="yes"/>
      <point x="19" y="325" type="line" smooth="yes"/>
      <point x="19" y="300"/>
      <point x="26" y="292"/>
      <point x="51" y="292" type="curve" smooth="yes"/>
      <point x="104" y="292" type="line"/>
      <point x="104" y="36" type="line" smooth="yes"/>
      <point x="104" y="12"/>
      <point x="114" y="0"/>
      <point x="142" y="0" type="curve" smooth="yes"/>
    </contour>
    <contour>
      <point x="232" y="292" type="line"/>
      <point x="380" y="292" type="line" smooth="yes"/>
      <point x="405" y="292"/>
      <point x="412" y="300"/>
      <point x="412" y="325" type="curve" smooth="yes"/>
      <point x="412" y="354" type="line" smooth="yes"/>
      <point x="412" y="380"/>
      <point x="405" y="389"/>
      <point x="380" y="389" type="curve" smooth="yes"/>
      <point x="232" y="389" type="line"/>
      <point x="232" y="582" type="line"/>
      <point x="349" y="582" type="line" smooth="yes"/>
      <point x="483" y="582"/>
      <point x="562" y="525"/>
      <point x="562" y="340" type="curve" smooth="yes"/>
      <point x="562" y="155"/>
      <point x="483" y="97"/>
      <point x="349" y="97" type="curve" smooth="yes"/>
      <point x="232" y="97" type="line"/>
    </contour>
  </outline>
</glyph>
<glyph name="Ntilde" format="1">
  <advance width="698"/>
  <unicode hex="00D1"/>
  <note>
	Ntilde
  </note>
  <outline>
    <contour>
      <point x="149" y="0" type="line" smooth="yes"/>
      <point x="177" y="0"/>
      <point x="187" y="12"/>
      <point x="187" y="36" type="curve" smooth="yes"/>
      <point x="187" y="476" type="line"/>
      <point x="517" y="19" type="line" smooth="yes"/>
      <point x="529" y="3"/>
      <point x="536" y="0"/>
      <point x="554" y="0" type="curve" smooth="yes"/>
      <point x="601" y="0" type="line" smooth="yes"/>
      <point x="629" y="0"/>
      <point x="639" y="12"/>
      <point x="639" y="36" type="curve" smooth="yes"/>
      <point x="639" y="643" type="line" smooth="yes"/>
      <point x="639" y="667"/>
      <point x="629" y="680"/>
      <point x="601" y="680" type="curve" smooth="yes"/>
      <point x="548" y="680" type="line" smooth="yes"/>
      <point x="521" y="680"/>
      <point x="511" y="667"/>
      <point x="511" y="643" type="curve" smooth="yes"/>
      <point x="511" y="202" type="line"/>
      <point x="181" y="660" type="line" smooth="yes"/>
      <point x="170" y="676"/>
      <point x="162" y="680"/>
      <point x="143" y="680" type="curve" smooth="yes"/>
      <point x="97" y="680" type="line" smooth="yes"/>
      <point x="69" y="680"/>
      <point x="59" y="668"/>
      <point x="59" y="643" type="curve" smooth="yes"/>
      <point x="59" y="36" type="line" smooth="yes"/>
      <point x="59" y="12"/>
      <point x="69" y="0"/>
      <point x="96" y="0" type="curve" smooth="yes"/>
    </contour>
    <contour>
      <point x="502" y="766"/>
      <point x="533" y="789"/>
      <point x="565" y="837" type="curve"/>
      <point x="581" y="859"/>
      <point x="579" y="872"/>
      <point x="553" y="892" type="curve" smooth="yes"/>
      <point x="528" y="912"/>
      <point x="512" y="914"/>
      <point x="499" y="897" type="curve" smooth="yes"/>
      <point x="478" y="869"/>
      <point x="464" y="860"/>
      <point x="437" y="860" type="curve" smooth="yes"/>
      <point x="380" y="860"/>
      <point x="339" y="912"/>
      <point x="258" y="912" type="curve" smooth="yes"/>
      <point x="208" y="912"/>
      <point x="178" y="884"/>
      <point x="150" y="849" type="curve" smooth="yes"/>
      <point x="134" y="828"/>
      <point x="135" y="815"/>
      <point x="157" y="796" type="curve" smooth="yes"/>
      <point x="181" y="775"/>
      <point x="197" y="771"/>
      <point x="210" y="787" type="curve"/>
      <point x="230" y="809"/>
      <point x="241" y="819"/>
      <point x="269" y="819" type="curve" smooth="yes"/>
      <point x="322" y="819"/>
      <point x="377" y="766"/>
      <point x="444" y="766" type="curve" smooth="yes"/>
    </contour>
  </outline>
</glyph>
<glyph name="Ograve" format="1">
  <advance width="762"/>
  <unicode hex="00D2"/>
  <note>
	Ograve
  </note>
  <outline>
    <contour>
      <point x="601" y="-15"/>
      <point x="723" y="116"/>
      <point x="723" y="340" type="curve" smooth="yes"/>
      <point x="723" y="564"/>
      <point x="601" y="695"/>
      <point x="381" y="695" type="curve" smooth="yes"/>
      <point x="160" y="695"/>
      <point x="39" y="564"/>
      <point x="39" y="340" type="curve" smooth="yes"/>
      <point x="39" y="116"/>
      <point x="160" y="-15"/>
      <point x="381" y="-15" type="curve" smooth="yes"/>
    </contour>
    <contour>
      <point x="242" y="79"/>
      <point x="165" y="169"/>
      <point x="165" y="340" type="curve" smooth="yes"/>
      <point x="165" y="511"/>
      <point x="242" y="600"/>
      <point x="381" y="600" type="curve" smooth="yes"/>
      <point x="520" y="600"/>
      <point x="596" y="511"/>
      <point x="596" y="340" type="curve" smooth="yes"/>
      <point x="596" y="169"/>
      <point x="520" y="79"/>
      <point x="381" y="79" type="curve" smooth="yes"/>
    </contour>
    <contour>
      <point x="417" y="753" type="line" smooth="yes"/>
      <point x="438" y="753"/>
      <point x="443" y="764"/>
      <point x="437" y="781" type="curve" smooth="yes"/>
      <point x="389" y="912" type="line" smooth="yes"/>
      <point x="383" y="930"/>
      <point x="378" y="936"/>
      <point x="352" y="936" type="curve" smooth="yes"/>
      <point x="279" y="936" type="line" smooth="yes"/>
      <point x="257" y="936"/>
      <point x="247" y="925"/>
      <point x="258" y="904" type="curve" smooth="yes"/>
      <point x="324" y="775" type="line" smooth="yes"/>
      <point x="333" y="758"/>
      <point x="340" y="753"/>
      <point x="365" y="753" type="curve" smooth="yes"/>
    </contour>
  </outline>
</glyph>
<glyph name="Ocircumflex" format="1">
  <advance width="762"/>
  <unicode hex="00D4"/>
  <note>
	Ocircumflex
  </note>
  <outline>
    <contour>
      <point x="601" y="-15"/>
      <point x="723" y="116"/>
      <point x="723" y="340" type="curve" smooth="yes"/>
      <point x="723" y="564"/>
      <point x="601" y="695"/>
      <point x="381" y="695" type="curve" smooth="yes"/>
      <point x="160" y="695"/>
      <point x="39" y="564"/>
      <point x="39" y="340" type="curve" smooth="yes"/>
      <point x="39" y="116"/>
      <point x="160" y="-15"/>
      <point x="381" y="-15" type="curve" smooth="yes"/>
    </contour>
    <contour>
      <point x="242" y="79"/>
      <point x="165" y="169"/>
      <point x="165" y="340" type="curve" smooth="yes"/>
      <point x="165" y="511"/>
      <point x="242" y="600"/>
      <point x="381" y="600" type="curve" smooth="yes"/>
      <point x="520" y="600"/>
      <point x="596" y="511"/>
      <point x="596" y="340" type="curve" smooth="yes"/>
      <point x="596" y="169"/>
      <point x="520" y="79"/>
      <point x="381" y="79" type="curve" smooth="yes"/>
    </contour>
    <contour>
      <point x="273" y="750" type="line" smooth="yes"/>
      <point x="297" y="750"/>
      <point x="304" y="757"/>
      <point x="313" y="771" type="curve" smooth="yes"/>
      <point x="381" y="871" type="line"/>
      <point x="448" y="771" type="line" smooth="yes"/>
      <point x="458" y="757"/>
      <point x="464" y="750"/>
      <point x="489" y="750" type="curve" smooth="yes"/>
      <point x="536" y="750" type="line" smooth="yes"/>
      <point x="556" y="750"/>
      <point x="565" y="763"/>
      <point x="551" y="782" type="curve" smooth="yes"/>
      <point x="447" y="923" type="line" smooth="yes"/>
      <point x="436" y="938"/>
      <point x="432" y="945"/>
      <point x="409" y="945" type="curve" smooth="yes"/>
      <point x="352" y="945" type="line" smooth="yes"/>
      <point x="329" y="945"/>
      <point x="326" y="938"/>
      <point x="314" y="923" type="curve"/>
      <point x="210" y="782" type="line" smooth="yes"/>
      <point x="196" y="763"/>
      <point x="205" y="750"/>
      <point x="226" y="750" type="curve" smooth="yes"/>
    </contour>
  </outline>
</glyph>
<glyph name="Otilde" format="1">
  <advance width="762"/>
  <unicode hex="00D5"/>
  <note>
	Otilde
  </note>
  <outline>
    <contour>
      <point x="601" y="-15"/>
      <point x="723" y="116"/>
      <point x="723" y="340" type="curve" smooth="yes"/>
      <point x="723" y="564"/>
      <point x="601" y="695"/>
      <point x="381" y="695" type="curve" smooth="yes"/>
      <point x="160" y="695"/>
      <point x="39" y="564"/>
      <point x="39" y="340" type="curve" smooth="yes"/>
      <point x="39" y="116"/>
      <point x="160" y="-15"/>
      <point x="381" y="-15" type="curve" smooth="yes"/>
    </contour>
    <contour>
      <point x="242" y="79"/>
      <point x="165" y="169"/>
      <point x="165" y="340" type="curve" smooth="yes"/>
      <point x="165" y="511"/>
      <point x="242" y="600"/>
      <point x="381" y="600" type="curve" smooth="yes"/>
      <point x="520" y="600"/>
      <point x="596" y="511"/>
      <point x="596" y="340" type="curve" smooth="yes"/>
      <point x="596" y="169"/>
      <point x="520" y="79"/>
      <point x="381" y="79" type="curve" smooth="yes"/>
    </contour>
    <contour>
      <point x="529" y="736"/>
      <point x="560" y="759"/>
      <point x="592" y="807" type="curve"/>
      <point x="608" y="829"/>
      <point x="606" y="842"/>
      <point x="580" y="862" type="curve" smooth="yes"/>
      <point x="555" y="882"/>
      <point x="539" y="884"/>
      <point x="526" y="867" type="curve" smooth="yes"/>
      <point x="505" y="839"/>
      <point x="491" y="830"/>
      <point x="464" y="830" type="curve" smooth="yes"/>
      <point x="407" y="830"/>
      <point x="366" y="882"/>
      <point x="285" y="882" type="curve" smooth="yes"/>
      <point x="235" y="882"/>
      <point x="205" y="854"/>
      <point x="177" y="819" type="curve" smooth="yes"/>
      <point x="161" y="798"/>
      <point x="162" y="785"/>
      <point x="184" y="766" type="curve" smooth="yes"/>
      <point x="208" y="745"/>
      <point x="224" y="741"/>
      <point x="237" y="757" type="curve"/>
      <point x="257" y="779"/>
      <point x="268" y="789"/>
      <point x="296" y="789" type="curve" smooth="yes"/>
      <point x="349" y="789"/>
      <point x="404" y="736"/>
      <point x="471" y="736" type="curve" smooth="yes"/>
    </contour>
  </outline>
</glyph>
<glyph name="multiply" format="1">
  <advance width="392"/>
  <unicode hex="00D7"/>
  <note>
	multiply
  </note>
  <outline>
    <contour>
      <point x="226" y="232" type="line"/>
      <point x="308" y="151" type="line" smooth="yes"/>
      <point x="323" y="136"/>
      <point x="335" y="137"/>
      <point x="349" y="152" type="curve"/>
      <point x="374" y="175" type="line"/>
      <point x="388" y="189"/>
      <point x="390" y="202"/>
      <point x="374" y="218" type="curve" smooth="yes"/>
      <point x="294" y="299" type="line"/>
      <point x="374" y="379" type="line" smooth="yes"/>
      <point x="390" y="395"/>
      <point x="388" y="408"/>
      <point x="374" y="422" type="curve" smooth="yes"/>
      <point x="349" y="446" type="line"/>
      <point x="335" y="461"/>
      <point x="322" y="462"/>
      <point x="308" y="447" type="curve" smooth="yes"/>
      <point x="226" y="365" type="line"/>
      <point x="145" y="447" type="line" smooth="yes"/>
      <point x="130" y="462"/>
      <point x="118" y="461"/>
      <point x="103" y="446" type="curve" smooth="yes"/>
      <point x="79" y="422" type="line" smooth="yes"/>
      <point x="65" y="408"/>
      <point x="63" y="395"/>
      <point x="79" y="379" type="curve" smooth="yes"/>
      <point x="159" y="299" type="line"/>
      <point x="79" y="218" type="line" smooth="yes"/>
      <point x="63" y="202"/>
      <point x="65" y="190"/>
      <point x="79" y="175" type="curve"/>
      <point x="104" y="152" type="line"/>
      <point x="118" y="137"/>
      <point x="131" y="136"/>
      <point x="145" y="151" type="curve" smooth="yes"/>
    </contour>
  </outline>
</glyph>
<glyph name="Oslash" format="1">
  <advance width="762"/>
  <unicode hex="00D8"/>
  <note>
	Oslash
  </note>
  <outline>
    <contour>
      <point x="601" y="-15"/>
      <point x="723" y="116"/>
      <point x="723" y="340" type="curve" smooth="yes"/>
      <point x="723" y="564"/>
      <point x="601" y="695"/>
      <point x="381" y="695" type="curve" smooth="yes"/>
      <point x="160" y="695"/>
      <point x="39" y="564"/>
      <point x="39" y="340" type="curve" smooth="yes"/>
      <point x="39" y="116"/>
      <point x="160" y="-15"/>
      <point x="381" y="-15" type="curve" smooth="yes"/>
    </contour>
    <contour>
      <point x="246" y="-86" type="line" smooth="yes"/>
      <point x="261" y="-86"/>
      <point x="266" y="-82"/>
      <point x="271" y="-70" type="curve" smooth="yes"/>
      <point x="595" y="726" type="line" smooth="yes"/>
      <point x="600" y="739"/>
      <point x="600" y="751"/>
      <point x="584" y="751" type="curve" smooth="yes"/>
      <point x="503" y="751" type="line" smooth="yes"/>
      <point x="490" y="751"/>
      <point x="484" y="747"/>
      <point x="479" y="734" type="curve" smooth="yes"/>
      <point x="154" y="-61" type="line" smooth="yes"/>
      <point x="148" y="-77"/>
      <point x="150" y="-86"/>
      <point x="165" y="-86" type="curve" smooth="yes"/>
    </contour>
    <contour>
      <point x="242" y="79"/>
      <point x="165" y="169"/>
      <point x="165" y="340" type="curve" smooth="yes"/>
      <point x="165" y="511"/>
      <point x="242" y="600"/>
      <point x="381" y="600" type="curve" smooth="yes"/>
      <point x="520" y="600"/>
      <point x="596" y="511"/>
      <point x="596" y="340" type="curve" smooth="yes"/>
      <point x="596" y="169"/>
      <point x="520" y="79"/>
      <point x="381" y="79" type="curve" smooth="yes"/>
    </contour>
  </outline>
</glyph>
<glyph name="Ugrave" format="1">
  <advance width="716"/>
  <unicode hex="00D9"/>
  <note>
	Ugrave
  </note>
  <outline>
    <contour>
      <point x="537" y="-15"/>
      <point x="662" y="81"/>
      <point x="662" y="240" type="curve" smooth="yes"/>
      <point x="662" y="643" type="line" smooth="yes"/>
      <point x="662" y="667"/>
      <point x="651" y="680"/>
      <point x="623" y="680" type="curve" smooth="yes"/>
      <point x="571" y="680" type="line" smooth="yes"/>
      <point x="543" y="680"/>
      <point x="533" y="667"/>
      <point x="533" y="643" type="curve" smooth="yes"/>
      <point x="533" y="237" type="line" smooth="yes"/>
      <point x="533" y="131"/>
      <point x="469" y="79"/>
      <point x="358" y="79" type="curve" smooth="yes"/>
      <point x="246" y="79"/>
      <point x="182" y="131"/>
      <point x="182" y="237" type="curve" smooth="yes"/>
      <point x="182" y="643" type="line" smooth="yes"/>
      <point x="182" y="667"/>
      <point x="172" y="680"/>
      <point x="144" y="680" type="curve" smooth="yes"/>
      <point x="91" y="680" type="line" smooth="yes"/>
      <point x="64" y="680"/>
      <point x="54" y="667"/>
      <point x="54" y="643" type="curve" smooth="yes"/>
      <point x="54" y="240" type="line" smooth="yes"/>
      <point x="54" y="81"/>
      <point x="178" y="-15"/>
      <point x="358" y="-15" type="curve" smooth="yes"/>
    </contour>
    <contour>
      <point x="407" y="753" type="line" smooth="yes"/>
      <point x="428" y="753"/>
      <point x="433" y="764"/>
      <point x="427" y="781" type="curve" smooth="yes"/>
      <point x="379" y="912" type="line" smooth="yes"/>
      <point x="373" y="930"/>
      <point x="368" y="936"/>
      <point x="342" y="936" type="curve" smooth="yes"/>
      <point x="269" y="936" type="line" smooth="yes"/>
      <point x="247" y="936"/>
      <point x="237" y="925"/>
      <point x="248" y="904" type="curve" smooth="yes"/>
      <point x="314" y="775" type="line" smooth="yes"/>
      <point x="323" y="758"/>
      <point x="330" y="753"/>
      <point x="355" y="753" type="curve" smooth="yes"/>
    </contour>
  </outline>
</glyph>
<glyph name="Thorn" format="1">
  <advance width="633"/>
  <unicode hex="00DE"/>
  <note>
	Thorn
  </note>
  <outline>
    <contour>
      <point x="149" y="0" type="line" smooth="yes"/>
      <point x="177" y="0"/>
      <point x="187" y="12"/>
      <point x="187" y="36" type="curve" smooth="yes"/>
      <point x="187" y="115" type="line"/>
      <point x="352" y="115" type="line" smooth="yes"/>
      <point x="519" y="115"/>
      <point x="594" y="198"/>
      <point x="594" y="340" type="curve" smooth="yes"/>
      <point x="594" y="481"/>
      <point x="519" y="565"/>
      <point x="352" y="565" type="curve" smooth="yes"/>
      <point x="187" y="565" type="line"/>
      <point x="187" y="643" type="line" smooth="yes"/>
      <point x="187" y="667"/>
      <point x="177" y="680"/>
      <point x="149" y="680" type="curve" smooth="yes"/>
      <point x="96" y="680" type="line" smooth="yes"/>
      <point x="69" y="680"/>
      <point x="59" y="667"/>
      <point x="59" y="643" type="curve" smooth="yes"/>
      <point x="59" y="36" type="line" smooth="yes"/>
      <point x="59" y="12"/>
      <point x="69" y="0"/>
      <point x="96" y="0" type="curve" smooth="yes"/>
    </contour>
    <contour>
      <point x="187" y="467" type="line"/>
      <point x="346" y="467" type="line" smooth="yes"/>
      <point x="427" y="467"/>
      <point x="467" y="426"/>
      <point x="467" y="340" type="curve" smooth="yes"/>
      <point x="467" y="254"/>
      <point x="427" y="212"/>
      <point x="346" y="212" type="curve" smooth="yes"/>
      <point x="187" y="212" type="line"/>
    </contour>
  </outline>
</glyph>
<glyph name="germandbls" format="1">
  <advance width="650"/>
  <unicode hex="00DF"/>
  <note>
	germandbls
  </note>
  <outline>
    <contour>
      <point x="533" y="-15"/>
      <point x="611" y="63"/>
      <point x="611" y="188" type="curve" smooth="yes"/>
      <point x="611" y="269"/>
      <point x="583" y="331"/>
      <point x="500" y="358" type="curve"/>
      <point x="558" y="382"/>
      <point x="591" y="444"/>
      <point x="591" y="513" type="curve" smooth="yes"/>
      <point x="591" y="633"/>
      <point x="511" y="720"/>
      <point x="320" y="720" type="curve" smooth="yes"/>
      <point x="131" y="720"/>
      <point x="54" y="617"/>
      <point x="54" y="479" type="curve" smooth="yes"/>
      <point x="54" y="36" type="line" smooth="yes"/>
      <point x="54" y="10"/>
      <point x="64" y="0"/>
      <point x="94" y="0" type="curve" smooth="yes"/>
      <point x="143" y="0" type="line" smooth="yes"/>
      <point x="171" y="0"/>
      <point x="182" y="12"/>
      <point x="182" y="36" type="curve" smooth="yes"/>
      <point x="182" y="484" type="line" smooth="yes"/>
      <point x="182" y="577"/>
      <point x="224" y="625"/>
      <point x="318" y="625" type="curve" smooth="yes"/>
      <point x="418" y="625"/>
      <point x="464" y="595"/>
      <point x="464" y="518" type="curve" smooth="yes"/>
      <point x="464" y="457"/>
      <point x="437" y="401"/>
      <point x="345" y="401" type="curve" smooth="yes"/>
      <point x="291" y="401" type="line" smooth="yes"/>
      <point x="276" y="401"/>
      <point x="268" y="397"/>
      <point x="268" y="381" type="curve" smooth="yes"/>
      <point x="268" y="332" type="line" smooth="yes"/>
      <point x="268" y="316"/>
      <point x="276" y="310"/>
      <point x="291" y="310" type="curve" smooth="yes"/>
      <point x="344" y="310" type="line" smooth="yes"/>
      <point x="454" y="310"/>
      <point x="481" y="274"/>
      <point x="481" y="188" type="curve" smooth="yes"/>
      <point x="481" y="135"/>
      <point x="451" y="85"/>
      <point x="391" y="85" type="curve" smooth="yes"/>
      <point x="348" y="85"/>
      <point x="314" y="95"/>
      <point x="282" y="116" type="curve" smooth="yes"/>
      <point x="269" y="124"/>
      <point x="265" y="124"/>
      <point x="257" y="111" type="curve" smooth="yes"/>
      <point x="221" y="53" type="line" smooth="yes"/>
      <point x="214" y="42"/>
      <point x="215" y="35"/>
      <point x="227" y="28" type="curve" smooth="yes"/>
      <point x="274" y="0"/>
      <point x="329" y="-15"/>
      <point x="397" y="-15" type="curve" smooth="yes"/>
    </contour>
  </outline>
</glyph>
<glyph name="agrave" format="1">
  <advance width="615"/>
  <unicode hex="00E0"/>
  <note>
	agrave
  </note>
  <outline>
    <contour>
      <point x="338" y="-15"/>
      <point x="398" y="6"/>
      <point x="440" y="58" type="curve"/>
      <point x="448" y="19" type="line" smooth="yes"/>
      <point x="451" y="6"/>
      <point x="457" y="0"/>
      <point x="472" y="0" type="curve" smooth="yes"/>
      <point x="527" y="0" type="line" smooth="yes"/>
      <point x="549" y="0"/>
      <point x="556" y="7"/>
      <point x="556" y="27" type="curve" smooth="yes"/>
      <point x="556" y="435" type="line"/>
      <point x="506" y="469"/>
      <point x="434" y="495"/>
      <point x="341" y="495" type="curve" smooth="yes"/>
      <point x="157" y="495"/>
      <point x="39" y="382"/>
      <point x="39" y="212" type="curve" smooth="yes"/>
      <point x="39" y="65"/>
      <point x="125" y="-15"/>
      <point x="253" y="-15" type="curve" smooth="yes"/>
    </contour>
    <contour>
      <point x="210" y="76"/>
      <point x="165" y="120"/>
      <point x="165" y="216" type="curve" smooth="yes"/>
      <point x="165" y="335"/>
      <point x="236" y="404"/>
      <point x="340" y="404" type="curve" smooth="yes"/>
      <point x="380" y="404"/>
      <point x="407" y="399"/>
      <point x="435" y="384" type="curve"/>
      <point x="435" y="189" type="line" smooth="yes"/>
      <point x="435" y="117"/>
      <point x="367" y="76"/>
      <point x="301" y="76" type="curve" smooth="yes"/>
    </contour>
    <contour>
      <point x="395" y="555" type="line" smooth="yes"/>
      <point x="416" y="555"/>
      <point x="421" y="566"/>
      <point x="415" y="583" type="curve" smooth="yes"/>
      <point x="367" y="714" type="line" smooth="yes"/>
      <point x="361" y="732"/>
      <point x="356" y="738"/>
      <point x="330" y="738" type="curve" smooth="yes"/>
      <point x="257" y="738" type="line" smooth="yes"/>
      <point x="235" y="738"/>
      <point x="225" y="727"/>
      <point x="236" y="706" type="curve" smooth="yes"/>
      <point x="302" y="577" type="line" smooth="yes"/>
      <point x="311" y="560"/>
      <point x="318" y="555"/>
      <point x="343" y="555" type="curve" smooth="yes"/>
    </contour>
  </outline>
</glyph>
<glyph name="atilde" format="1">
  <advance width="618"/>
  <unicode hex="00E3"/>
  <note>
	atilde
  </note>
  <outline>
    <contour>
      <point x="338" y="-15"/>
      <point x="398" y="6"/>
      <point x="440" y="58" type="curve"/>
      <point x="448" y="19" type="line" smooth="yes"/>
      <point x="451" y="6"/>
      <point x="457" y="0"/>
      <point x="472" y="0" type="curve" smooth="yes"/>
      <point x="527" y="0" type="line" smooth="yes"/>
      <point x="549" y="0"/>
      <point x="556" y="7"/>
      <point x="556" y="27" type="curve" smooth="yes"/>
      <point x="556" y="435" type="line"/>
      <point x="506" y="469"/>
      <point x="434" y="495"/>
      <point x="341" y="495" type="curve" smooth="yes"/>
      <point x="157" y="495"/>
      <point x="39" y="382"/>
      <point x="39" y="212" type="curve" smooth="yes"/>
      <point x="39" y="65"/>
      <point x="125" y="-15"/>
      <point x="253" y="-15" type="curve" smooth="yes"/>
    </contour>
    <contour>
      <point x="210" y="76"/>
      <point x="165" y="120"/>
      <point x="165" y="216" type="curve" smooth="yes"/>
      <point x="165" y="335"/>
      <point x="236" y="404"/>
      <point x="340" y="404" type="curve" smooth="yes"/>
      <point x="380" y="404"/>
      <point x="407" y="399"/>
      <point x="435" y="384" type="curve"/>
      <point x="435" y="189" type="line" smooth="yes"/>
      <point x="435" y="117"/>
      <point x="367" y="76"/>
      <point x="301" y="76" type="curve" smooth="yes"/>
    </contour>
    <contour>
      <point x="495" y="576"/>
      <point x="526" y="599"/>
      <point x="558" y="647" type="curve"/>
      <point x="574" y="669"/>
      <point x="572" y="682"/>
      <point x="546" y="702" type="curve" smooth="yes"/>
      <point x="521" y="722"/>
      <point x="505" y="724"/>
      <point x="492" y="707" type="curve" smooth="yes"/>
      <point x="471" y="679"/>
      <point x="457" y="670"/>
      <point x="430" y="670" type="curve" smooth="yes"/>
      <point x="373" y="670"/>
      <point x="332" y="722"/>
      <point x="251" y="722" type="curve" smooth="yes"/>
      <point x="201" y="722"/>
      <point x="171" y="694"/>
      <point x="143" y="659" type="curve" smooth="yes"/>
      <point x="127" y="638"/>
      <point x="128" y="625"/>
      <point x="150" y="606" type="curve" smooth="yes"/>
      <point x="174" y="585"/>
      <point x="190" y="581"/>
      <point x="203" y="597" type="curve"/>
      <point x="223" y="619"/>
      <point x="234" y="629"/>
      <point x="262" y="629" type="curve" smooth="yes"/>
      <point x="315" y="629"/>
      <point x="370" y="576"/>
      <point x="437" y="576" type="curve" smooth="yes"/>
    </contour>
  </outline>
</glyph>
<glyph name="adieresis" format="1">
  <advance width="615"/>
  <unicode hex="00E4"/>
  <note>
	adieresis
  </note>
  <outline>
    <contour>
      <point x="338" y="-15"/>
      <point x="398" y="6"/>
      <point x="440" y="58" type="curve"/>
      <point x="448" y="19" type="line" smooth="yes"/>
      <point x="451" y="6"/>
      <point x="457" y="0"/>
      <point x="472" y="0" type="curve" smooth="yes"/>
      <point x="527" y="0" type="line" smooth="yes"/>
      <point x="549" y="0"/>
      <point x="556" y="7"/>
      <point x="556" y="27" type="curve" smooth="yes"/>
      <point x="556" y="435" type="line"/>
      <point x="506" y="469"/>
      <point x="434" y="495"/>
      <point x="341" y="495" type="curve" smooth="yes"/>
      <point x="157" y="495"/>
      <point x="39" y="382"/>
      <point x="39" y="212" type="curve" smooth="yes"/>
      <point x="39" y="65"/>
      <point x="125" y="-15"/>
      <point x="253" y="-15" type="curve" smooth="yes"/>
    </contour>
    <contour>
      <point x="210" y="76"/>
      <point x="165" y="120"/>
      <point x="165" y="216" type="curve" smooth="yes"/>
      <point x="165" y="335"/>
      <point x="236" y="404"/>
      <point x="340" y="404" type="curve" smooth="yes"/>
      <point x="380" y="404"/>
      <point x="407" y="399"/>
      <point x="435" y="384" type="curve"/>
      <point x="435" y="189" type="line" smooth="yes"/>
      <point x="435" y="117"/>
      <point x="367" y="76"/>
      <point x="301" y="76" type="curve" smooth="yes"/>
    </contour>
    <contour>
      <point x="251" y="551" type="line" smooth="yes"/>
      <point x="280" y="551"/>
      <point x="298" y="574"/>
      <point x="298" y="601" type="curve" smooth="yes"/>
      <point x="298" y="620" type="line" smooth="yes"/>
      <point x="298" y="647"/>
      <point x="279" y="669"/>
      <point x="251" y="669" type="curve" smooth="yes"/>
      <point x="231" y="669" type="line" smooth="yes"/>
      <point x="203" y="669"/>
      <point x="184" y="647"/>
      <point x="184" y="620" type="curve" smooth="yes"/>
      <point x="184" y="601" type="line" smooth="yes"/>
      <point x="184" y="574"/>
      <point x="203" y="551"/>
      <point x="231" y="551" type="curve" smooth="yes"/>
    </contour>
    <contour>
      <point x="448" y="551" type="line" smooth="yes"/>
      <point x="477" y="551"/>
      <point x="495" y="574"/>
      <point x="495" y="601" type="curve" smooth="yes"/>
      <point x="495" y="620" type="line" smooth="yes"/>
      <point x="495" y="647"/>
      <point x="476" y="669"/>
      <point x="448" y="669" type="curve" smooth="yes"/>
      <point x="428" y="669" type="line" smooth="yes"/>
      <point x="401" y="669"/>
      <point x="381" y="647"/>
      <point x="381" y="620" type="curve" smooth="yes"/>
      <point x="381" y="601" type="line" smooth="yes"/>
      <point x="381" y="574"/>
      <point x="401" y="551"/>
      <point x="428" y="551" type="curve" smooth="yes"/>
    </contour>
  </outline>
</glyph>
<glyph name="aring" format="1">
  <advance width="615"/>
  <unicode hex="00E5"/>
  <note>
	aring
  </note>
  <outline>
    <contour>
      <point x="338" y="-15"/>
      <point x="398" y="6"/>
      <point x="440" y="58" type="curve"/>
      <point x="448" y="19" type="line" smooth="yes"/>
      <point x="451" y="6"/>
      <point x="457" y="0"/>
      <point x="472" y="0" type="curve" smooth="yes"/>
      <point x="527" y="0" type="line" smooth="yes"/>
      <point x="549" y="0"/>
      <point x="556" y="7"/>
      <point x="556" y="27" type="curve" smooth="yes"/>
      <point x="556" y="435" type="line"/>
      <point x="506" y="469"/>
      <point x="434" y="495"/>
      <point x="341" y="495" type="curve" smooth="yes"/>
      <point x="157" y="495"/>
      <point x="39" y="382"/>
      <point x="39" y="212" type="curve" smooth="yes"/>
      <point x="39" y="65"/>
      <point x="125" y="-15"/>
      <point x="253" y="-15" type="curve" smooth="yes"/>
    </contour>
    <contour>
      <point x="210" y="76"/>
      <point x="165" y="120"/>
      <point x="165" y="216" type="curve" smooth="yes"/>
      <point x="165" y="335"/>
      <point x="236" y="404"/>
      <point x="340" y="404" type="curve" smooth="yes"/>
      <point x="380" y="404"/>
      <point x="407" y="399"/>
      <point x="435" y="384" type="curve"/>
      <point x="435" y="189" type="line" smooth="yes"/>
      <point x="435" y="117"/>
      <point x="367" y="76"/>
      <point x="301" y="76" type="curve" smooth="yes"/>
    </contour>
    <contour>
      <point x="405" y="545"/>
      <point x="457" y="597"/>
      <point x="457" y="662" type="curve" smooth="yes"/>
      <point x="457" y="727"/>
      <point x="405" y="779"/>
      <point x="340" y="779" type="curve" smooth="yes"/>
      <point x="275" y="779"/>
      <point x="223" y="727"/>
      <point x="223" y="662" type="curve" smooth="yes"/>
      <point x="223" y="597"/>
      <point x="275" y="545"/>
      <point x="340" y="545" type="curve" smooth="yes"/>
    </contour>
    <contour>
      <point x="310" y="608"/>
      <point x="286" y="632"/>
      <point x="286" y="662" type="curve" smooth="yes"/>
      <point x="286" y="691"/>
      <point x="310" y="715"/>
      <point x="340" y="715" type="curve" smooth="yes"/>
      <point x="369" y="715"/>
      <point x="393" y="691"/>
      <point x="393" y="662" type="curve" smooth="yes"/>
      <point x="393" y="632"/>
      <point x="369" y="608"/>
      <point x="340" y="608" type="curve" smooth="yes"/>
    </contour>
  </outline>
</glyph>
<glyph name="ecircumflex" format="1">
  <advance width="598"/>
  <unicode hex="00EA"/>
  <note>
	ecircumflex
  </note>
  <outline>
    <contour>
      <point x="400" y="-15"/>
      <point x="461" y="0"/>
      <point x="516" y="34" type="curve" smooth="yes"/>
      <point x="526" y="40"/>
      <point x="528" y="47"/>
      <point x="522" y="58" type="curve" smooth="yes"/>
      <point x="498" y="101" type="line"/>
      <point x="493" y="111"/>
      <point x="488" y="113"/>
      <point x="476" y="106" type="curve" smooth="yes"/>
      <point x="441" y="86"/>
      <point x="396" y="70"/>
      <point x="334" y="70" type="curve" smooth="yes"/>
      <point x="227" y="70"/>
      <point x="160" y="117"/>
      <point x="160" y="207" type="curve"/>
      <point x="527" y="207" type="line" smooth="yes"/>
      <point x="548" y="207"/>
      <point x="559" y="219"/>
      <point x="559" y="242" type="curve" smooth="yes"/>
      <point x="559" y="405"/>
      <point x="474" y="495"/>
      <point x="304" y="495" type="curve" smooth="yes"/>
      <point x="136" y="495"/>
      <point x="39" y="405"/>
      <point x="39" y="232" type="curve" smooth="yes"/>
      <point x="39" y="60"/>
      <point x="168" y="-15"/>
      <point x="318" y="-15" type="curve" smooth="yes"/>
    </contour>
    <contour>
      <point x="160" y="359"/>
      <point x="209" y="413"/>
      <point x="305" y="413" type="curve" smooth="yes"/>
      <point x="399" y="413"/>
      <point x="443" y="362"/>
      <point x="443" y="281" type="curve"/>
      <point x="160" y="281" type="line"/>
    </contour>
    <contour>
      <point x="195" y="552" type="line" smooth="yes"/>
      <point x="219" y="552"/>
      <point x="226" y="559"/>
      <point x="235" y="573" type="curve" smooth="yes"/>
      <point x="303" y="673" type="line"/>
      <point x="370" y="573" type="line" smooth="yes"/>
      <point x="380" y="559"/>
      <point x="386" y="552"/>
      <point x="411" y="552" type="curve" smooth="yes"/>
      <point x="458" y="552" type="line" smooth="yes"/>
      <point x="478" y="552"/>
      <point x="487" y="565"/>
      <point x="473" y="584" type="curve" smooth="yes"/>
      <point x="369" y="725" type="line" smooth="yes"/>
      <point x="358" y="740"/>
      <point x="354" y="747"/>
      <point x="331" y="747" type="curve" smooth="yes"/>
      <point x="274" y="747" type="line" smooth="yes"/>
      <point x="251" y="747"/>
      <point x="248" y="740"/>
      <point x="236" y="725" type="curve"/>
      <point x="132" y="584" type="line" smooth="yes"/>
      <point x="118" y="565"/>
      <point x="127" y="552"/>
      <point x="148" y="552" type="curve" smooth="yes"/>
    </contour>
  </outline>
</glyph>
<glyph name="edieresis" format="1">
  <advance width="598"/>
  <unicode hex="00EB"/>
  <note>
	edieresis
  </note>
  <outline>
    <contour>
      <point x="400" y="-15"/>
      <point x="461" y="0"/>
      <point x="516" y="34" type="curve" smooth="yes"/>
      <point x="526" y="40"/>
      <point x="528" y="47"/>
      <point x="522" y="58" type="curve" smooth="yes"/>
      <point x="498" y="101" type="line"/>
      <point x="493" y="111"/>
      <point x="488" y="113"/>
      <point x="476" y="106" type="curve" smooth="yes"/>
      <point x="441" y="86"/>
      <point x="396" y="70"/>
      <point x="334" y="70" type="curve" smooth="yes"/>
      <point x="227" y="70"/>
      <point x="160" y="117"/>
      <point x="160" y="207" type="curve"/>
      <point x="527" y="207" type="line" smooth="yes"/>
      <point x="548" y="207"/>
      <point x="559" y="219"/>
      <point x="559" y="242" type="curve" smooth="yes"/>
      <point x="559" y="405"/>
      <point x="474" y="495"/>
      <point x="304" y="495" type="curve" smooth="yes"/>
      <point x="136" y="495"/>
      <point x="39" y="405"/>
      <point x="39" y="232" type="curve" smooth="yes"/>
      <point x="39" y="60"/>
      <point x="168" y="-15"/>
      <point x="318" y="-15" type="curve" smooth="yes"/>
    </contour>
    <contour>
      <point x="160" y="359"/>
      <point x="209" y="413"/>
      <point x="305" y="413" type="curve" smooth="yes"/>
      <point x="399" y="413"/>
      <point x="443" y="362"/>
      <point x="443" y="281" type="curve"/>
      <point x="160" y="281" type="line"/>
    </contour>
    <contour>
      <point x="217" y="539" type="line" smooth="yes"/>
      <point x="246" y="539"/>
      <point x="264" y="562"/>
      <point x="264" y="589" type="curve" smooth="yes"/>
      <point x="264" y="608" type="line" smooth="yes"/>
      <point x="264" y="635"/>
      <point x="245" y="657"/>
      <point x="217" y="657" type="curve" smooth="yes"/>
      <point x="197" y="657" type="line" smooth="yes"/>
      <point x="169" y="657"/>
      <point x="150" y="635"/>
      <point x="150" y="608" type="curve" smooth="yes"/>
      <point x="150" y="589" type="line" smooth="yes"/>
      <point x="150" y="562"/>
      <point x="169" y="539"/>
      <point x="197" y="539" type="curve" smooth="yes"/>
    </contour>
    <contour>
      <point x="414" y="539" type="line" smooth="yes"/>
      <point x="443" y="539"/>
      <point x="461" y="562"/>
      <point x="461" y="589" type="curve" smooth="yes"/>
      <point x="461" y="608" type="line" smooth="yes"/>
      <point x="461" y="635"/>
      <point x="442" y="657"/>
      <point x="414" y="657" type="curve" smooth="yes"/>
      <point x="394" y="657" type="line" smooth="yes"/>
      <point x="367" y="657"/>
      <point x="347" y="635"/>
      <point x="347" y="608" type="curve" smooth="yes"/>
      <point x="347" y="589" type="line" smooth="yes"/>
      <point x="347" y="562"/>
      <point x="367" y="539"/>
      <point x="394" y="539" type="curve" smooth="yes"/>
    </contour>
  </outline>
</glyph>
<glyph name="iacute" format="1">
  <advance width="244"/>
  <unicode hex="00ED"/>
  <note>
	iacute
  </note>
  <outline>
    <contour>
      <point x="157" y="0" type="line" smooth="yes"/>
      <point x="185" y="0"/>
      <point x="195" y="12"/>
      <point x="195" y="36" type="curve" smooth="yes"/>
      <point x="195" y="443" type="line" smooth="yes"/>
      <point x="195" y="467"/>
      <point x="185" y="480"/>
      <point x="157" y="480" type="curve" smooth="yes"/>
      <point x="104" y="480" type="line" smooth="yes"/>
      <point x="77" y="480"/>
      <point x="67" y="467"/>
      <point x="67" y="443" type="curve" smooth="yes"/>
      <point x="67" y="36" type="line" smooth="yes"/>
      <point x="67" y="12"/>
      <point x="77" y="0"/>
      <point x="104" y="0" type="curve" smooth="yes"/>
    </contour>
    <contour>
      <point x="136" y="555" type="line" smooth="yes"/>
      <point x="162" y="555"/>
      <point x="169" y="560"/>
      <point x="178" y="577" type="curve" smooth="yes"/>
      <point x="244" y="706" type="line" smooth="yes"/>
      <point x="255" y="727"/>
      <point x="245" y="738"/>
      <point x="223" y="738" type="curve" smooth="yes"/>
      <point x="149" y="738" type="line" smooth="yes"/>
      <point x="124" y="738"/>
      <point x="119" y="731"/>
      <point x="112" y="714" type="curve"/>
      <point x="65" y="583" type="line" smooth="yes"/>
      <point x="59" y="566"/>
      <point x="64" y="555"/>
      <point x="84" y="555" type="curve" smooth="yes"/>
    </contour>
  </outline>
</glyph>
<glyph name="eth" format="1">
  <advance width="675"/>
  <unicode hex="00F0"/>
  <note>
	eth
  </note>
  <outline>
    <contour>
      <point x="418" y="-15"/>
      <point x="562" y="66"/>
      <point x="611" y="296" type="curve" smooth="yes"/>
      <point x="652" y="489"/>
      <point x="610" y="599"/>
      <point x="534" y="653" type="curve"/>
      <point x="570" y="703" type="line"/>
      <point x="574" y="709"/>
      <point x="572" y="716"/>
      <point x="562" y="716" type="curve" smooth="yes"/>
      <point x="473" y="716" type="line" smooth="yes"/>
      <point x="465" y="716"/>
      <point x="459" y="712"/>
      <point x="455" y="706" type="curve" smooth="yes"/>
      <point x="443" y="689" type="line"/>
      <point x="424" y="693"/>
      <point x="404" y="695"/>
      <point x="384" y="695" type="curve" smooth="yes"/>
      <point x="306" y="695"/>
      <point x="243" y="679"/>
      <point x="194" y="650" type="curve" smooth="yes"/>
      <point x="182" y="643"/>
      <point x="180" y="635"/>
      <point x="184" y="623" type="curve"/>
      <point x="203" y="575" type="line"/>
      <point x="208" y="564"/>
      <point x="214" y="565"/>
      <point x="227" y="571" type="curve" smooth="yes"/>
      <point x="267" y="590"/>
      <point x="308" y="602"/>
      <point x="358" y="602" type="curve" smooth="yes"/>
      <point x="365" y="602"/>
      <point x="373" y="602"/>
      <point x="380" y="601" type="curve"/>
      <point x="315" y="510" type="line" smooth="yes"/>
      <point x="311" y="504"/>
      <point x="314" y="497"/>
      <point x="324" y="497" type="curve" smooth="yes"/>
      <point x="413" y="497" type="line" smooth="yes"/>
      <point x="421" y="497"/>
      <point x="426" y="501"/>
      <point x="430" y="507" type="curve" smooth="yes"/>
      <point x="475" y="570" type="line"/>
      <point x="511" y="539"/>
      <point x="519" y="483"/>
      <point x="515" y="397" type="curve"/>
      <point x="481" y="449"/>
      <point x="432" y="475"/>
      <point x="336" y="475" type="curve" smooth="yes"/>
      <point x="154" y="475"/>
      <point x="39" y="362"/>
      <point x="39" y="183" type="curve" smooth="yes"/>
      <point x="39" y="55"/>
      <point x="111" y="-15"/>
      <point x="266" y="-15" type="curve" smooth="yes"/>
    </contour>
    <contour>
      <point x="209" y="79"/>
      <point x="165" y="113"/>
      <point x="165" y="186" type="curve" smooth="yes"/>
      <point x="165" y="330"/>
      <point x="236" y="394"/>
      <point x="350" y="394" type="curve" smooth="yes"/>
      <point x="431" y="394"/>
      <point x="492" y="349"/>
      <point x="474" y="259" type="curve" smooth="yes"/>
      <point x="451" y="142"/>
      <point x="377" y="79"/>
      <point x="286" y="79" type="curve" smooth="yes"/>
    </contour>
  </outline>
</glyph>
<glyph name="ograve" format="1">
  <advance width="621"/>
  <unicode hex="00F2"/>
  <note>
	ograve
  </note>
  <outline>
    <contour>
      <point x="486" y="-15"/>
      <point x="582" y="85"/>
      <point x="582" y="240" type="curve" smooth="yes"/>
      <point x="582" y="394"/>
      <point x="486" y="495"/>
      <point x="310" y="495" type="curve" smooth="yes"/>
      <point x="134" y="495"/>
      <point x="39" y="394"/>
      <point x="39" y="240" type="curve" smooth="yes"/>
      <point x="39" y="85"/>
      <point x="134" y="-15"/>
      <point x="310" y="-15" type="curve" smooth="yes"/>
    </contour>
    <contour>
      <point x="217" y="79"/>
      <point x="165" y="135"/>
      <point x="165" y="240" type="curve" smooth="yes"/>
      <point x="165" y="345"/>
      <point x="217" y="399"/>
      <point x="310" y="399" type="curve" smooth="yes"/>
      <point x="404" y="399"/>
      <point x="455" y="345"/>
      <point x="455" y="240" type="curve" smooth="yes"/>
      <point x="455" y="135"/>
      <point x="404" y="79"/>
      <point x="310" y="79" type="curve" smooth="yes"/>
    </contour>
    <contour>
      <point x="356" y="555" type="line" smooth="yes"/>
      <point x="377" y="555"/>
      <point x="382" y="566"/>
      <point x="376" y="583" type="curve" smooth="yes"/>
      <point x="328" y="714" type="line" smooth="yes"/>
      <point x="322" y="732"/>
      <point x="317" y="738"/>
      <point x="291" y="738" type="curve" smooth="yes"/>
      <point x="218" y="738" type="line" smooth="yes"/>
      <point x="196" y="738"/>
      <point x="186" y="727"/>
      <point x="197" y="706" type="curve" smooth="yes"/>
      <point x="263" y="577" type="line" smooth="yes"/>
      <point x="272" y="560"/>
      <point x="279" y="555"/>
      <point x="304" y="555" type="curve" smooth="yes"/>
    </contour>
  </outline>
</glyph>
<glyph name="ocircumflex" format="1">
  <advance width="621"/>
  <unicode hex="00F4"/>
  <note>
	ocircumflex
  </note>
  <outline>
    <contour>
      <point x="486" y="-15"/>
      <point x="582" y="85"/>
      <point x="582" y="240" type="curve" smooth="yes"/>
      <point x="582" y="394"/>
      <point x="486" y="495"/>
      <point x="310" y="495" type="curve" smooth="yes"/>
      <point x="134" y="495"/>
      <point x="39" y="394"/>
      <point x="39" y="240" type="curve" smooth="yes"/>
      <point x="39" y="85"/>
      <point x="134" y="-15"/>
      <point x="310" y="-15" type="curve" smooth="yes"/>
    </contour>
    <contour>
      <point x="217" y="79"/>
      <point x="165" y="135"/>
      <point x="165" y="240" type="curve" smooth="yes"/>
      <point x="165" y="345"/>
      <point x="217" y="399"/>
      <point x="310" y="399" type="curve" smooth="yes"/>
      <point x="404" y="399"/>
      <point x="455" y="345"/>
      <point x="455" y="240" type="curve" smooth="yes"/>
      <point x="455" y="135"/>
      <point x="404" y="79"/>
      <point x="310" y="79" type="curve" smooth="yes"/>
    </contour>
    <contour>
      <point x="202" y="552" type="line" smooth="yes"/>
      <point x="226" y="552"/>
      <point x="233" y="559"/>
      <point x="242" y="573" type="curve" smooth="yes"/>
      <point x="310" y="673" type="line"/>
      <point x="377" y="573" type="line" smooth="yes"/>
      <point x="387" y="559"/>
      <point x="393" y="552"/>
      <point x="418" y="552" type="curve" smooth="yes"/>
      <point x="465" y="552" type="line" smooth="yes"/>
      <point x="485" y="552"/>
      <point x="494" y="565"/>
      <point x="480" y="584" type="curve" smooth="yes"/>
      <point x="376" y="725" type="line" smooth="yes"/>
      <point x="365" y="740"/>
      <point x="361" y="747"/>
      <point x="338" y="747" type="curve" smooth="yes"/>
      <point x="281" y="747" type="line" smooth="yes"/>
      <point x="258" y="747"/>
      <point x="255" y="740"/>
      <point x="243" y="725" type="curve"/>
      <point x="139" y="584" type="line" smooth="yes"/>
      <point x="125" y="565"/>
      <point x="134" y="552"/>
      <point x="155" y="552" type="curve" smooth="yes"/>
    </contour>
  </outline>
</glyph>
<glyph name="otilde" format="1">
  <advance width="621"/>
  <unicode hex="00F5"/>
  <note>
	otilde
  </note>
  <outline>
    <contour>
      <point x="486" y="-15"/>
      <point x="582" y="85"/>
      <point x="582" y="240" type="curve" smooth="yes"/>
      <point x="582" y="394"/>
      <point x="486" y="495"/>
      <point x="310" y="495" type="curve" smooth="yes"/>
      <point x="134" y="495"/>
      <point x="39" y="394"/>
      <point x="39" y="240" type="curve" smooth="yes"/>
      <point x="39" y="85"/>
      <point x="134" y="-15"/>
      <point x="310" y="-15" type="curve" smooth="yes"/>
    </contour>
    <contour>
      <point x="217" y="79"/>
      <point x="165" y="135"/>
      <point x="165" y="240" type="curve" smooth="yes"/>
      <point x="165" y="345"/>
      <point x="217" y="399"/>
      <point x="310" y="399" type="curve" smooth="yes"/>
      <point x="404" y="399"/>
      <point x="455" y="345"/>
      <point x="455" y="240" type="curve" smooth="yes"/>
      <point x="455" y="135"/>
      <point x="404" y="79"/>
      <point x="310" y="79" type="curve" smooth="yes"/>
    </contour>
    <contour>
      <point x="468" y="572"/>
      <point x="499" y="595"/>
      <point x="531" y="643" type="curve"/>
      <point x="547" y="665"/>
      <point x="545" y="678"/>
      <point x="519" y="698" type="curve" smooth="yes"/>
      <point x="494" y="718"/>
      <point x="478" y="720"/>
      <point x="465" y="703" type="curve" smooth="yes"/>
      <point x="444" y="675"/>
      <point x="430" y="666"/>
      <point x="403" y="666" type="curve" smooth="yes"/>
      <point x="346" y="666"/>
      <point x="305" y="718"/>
      <point x="224" y="718" type="curve" smooth="yes"/>
      <point x="174" y="718"/>
      <point x="144" y="690"/>
      <point x="116" y="655" type="curve" smooth="yes"/>
      <point x="100" y="634"/>
      <point x="101" y="621"/>
      <point x="123" y="602" type="curve" smooth="yes"/>
      <point x="147" y="581"/>
      <point x="163" y="577"/>
      <point x="176" y="593" type="curve"/>
      <point x="196" y="615"/>
      <point x="207" y="625"/>
      <point x="235" y="625" type="curve" smooth="yes"/>
      <point x="288" y="625"/>
      <point x="343" y="572"/>
      <point x="410" y="572" type="curve" smooth="yes"/>
    </contour>
  </outline>
</glyph>
<glyph name="oslash" format="1">
  <advance width="621"/>
  <unicode hex="00F8"/>
  <note>
	oslash
  </note>
  <outline>
    <contour>
      <point x="486" y="-15"/>
      <point x="582" y="85"/>
      <point x="582" y="240" type="curve" smooth="yes"/>
      <point x="582" y="394"/>
      <point x="486" y="495"/>
      <point x="310" y="495" type="curve" smooth="yes"/>
      <point x="134" y="495"/>
      <point x="39" y="394"/>
      <point x="39" y="240" type="curve" smooth="yes"/>
      <point x="39" y="85"/>
      <point x="134" y="-15"/>
      <point x="310" y="-15" type="curve" smooth="yes"/>
    </contour>
    <contour>
      <point x="217" y="79"/>
      <point x="165" y="135"/>
      <point x="165" y="240" type="curve" smooth="yes"/>
      <point x="165" y="345"/>
      <point x="217" y="399"/>
      <point x="310" y="399" type="curve" smooth="yes"/>
      <point x="404" y="399"/>
      <point x="455" y="345"/>
      <point x="455" y="240" type="curve" smooth="yes"/>
      <point x="455" y="135"/>
      <point x="404" y="79"/>
      <point x="310" y="79" type="curve" smooth="yes"/>
    </contour>
    <contour>
      <point x="216" y="-86" type="line" smooth="yes"/>
      <point x="230" y="-86"/>
      <point x="237" y="-80"/>
      <point x="241" y="-70" type="curve" smooth="yes"/>
      <point x="494" y="548" type="line" smooth="yes"/>
      <point x="499" y="561"/>
      <point x="498" y="573"/>
      <point x="483" y="573" type="curve" smooth="yes"/>
      <point x="402" y="573" type="line" smooth="yes"/>
      <point x="388" y="573"/>
      <point x="381" y="566"/>
      <point x="377" y="556" type="curve" smooth="yes"/>
      <point x="124" y="-61" type="line" smooth="yes"/>
      <point x="118" y="-75"/>
      <point x="120" y="-86"/>
      <point x="135" y="-86" type="curve" smooth="yes"/>
    </contour>
  </outline>
</glyph>
<glyph name="ucircumflex" format="1">
  <advance width="590"/>
  <unicode hex="00FB"/>
  <note>
	ucircumflex
  </note>
  <outline>
    <contour>
      <point x="324" y="-15"/>
      <point x="382" y="15"/>
      <point x="423" y="61" type="curve"/>
      <point x="427" y="19" type="line" smooth="yes"/>
      <point x="428" y="5"/>
      <point x="434" y="0"/>
      <point x="449" y="0" type="curve" smooth="yes"/>
      <point x="505" y="0" type="line" smooth="yes"/>
      <point x="527" y="0"/>
      <point x="531" y="7"/>
      <point x="531" y="27" type="curve" smooth="yes"/>
      <point x="531" y="443" type="line" smooth="yes"/>
      <point x="531" y="467"/>
      <point x="521" y="480"/>
      <point x="493" y="480" type="curve" smooth="yes"/>
      <point x="441" y="480" type="line" smooth="yes"/>
      <point x="413" y="480"/>
      <point x="403" y="467"/>
      <point x="403" y="443" type="curve" smooth="yes"/>
      <point x="403" y="180" type="line" smooth="yes"/>
      <point x="403" y="117"/>
      <point x="349" y="76"/>
      <point x="281" y="76" type="curve" smooth="yes"/>
      <point x="217" y="76"/>
      <point x="182" y="103"/>
      <point x="182" y="169" type="curve" smooth="yes"/>
      <point x="182" y="443" type="line" smooth="yes"/>
      <point x="182" y="467"/>
      <point x="172" y="480"/>
      <point x="144" y="480" type="curve" smooth="yes"/>
      <point x="91" y="480" type="line" smooth="yes"/>
      <point x="64" y="480"/>
      <point x="54" y="467"/>
      <point x="54" y="443" type="curve" smooth="yes"/>
      <point x="54" y="166" type="line" smooth="yes"/>
      <point x="54" y="42"/>
      <point x="131" y="-15"/>
      <point x="236" y="-15" type="curve" smooth="yes"/>
    </contour>
    <contour>
      <point x="184" y="552" type="line" smooth="yes"/>
      <point x="208" y="552"/>
      <point x="215" y="559"/>
      <point x="224" y="573" type="curve" smooth="yes"/>
      <point x="292" y="673" type="line"/>
      <point x="359" y="573" type="line" smooth="yes"/>
      <point x="369" y="559"/>
      <point x="375" y="552"/>
      <point x="400" y="552" type="curve" smooth="yes"/>
      <point x="447" y="552" type="line" smooth="yes"/>
      <point x="467" y="552"/>
      <point x="476" y="565"/>
      <point x="462" y="584" type="curve" smooth="yes"/>
      <point x="358" y="725" type="line" smooth="yes"/>
      <point x="347" y="740"/>
      <point x="343" y="747"/>
      <point x="320" y="747" type="curve" smooth="yes"/>
      <point x="263" y="747" type="line" smooth="yes"/>
      <point x="240" y="747"/>
      <point x="237" y="740"/>
      <point x="225" y="725" type="curve"/>
      <point x="121" y="584" type="line" smooth="yes"/>
      <point x="107" y="565"/>
      <point x="116" y="552"/>
      <point x="137" y="552" type="curve" smooth="yes"/>
    </contour>
  </outline>
</glyph>
<glyph name="udieresis" format="1">
  <advance width="590"/>
  <unicode hex="00FC"/>
  <note>
	udieresis
  </note>
  <outline>
    <contour>
      <point x="324" y="-15"/>
      <point x="382" y="15"/>
      <point x="423" y="61" type="curve"/>
      <point x="427" y="19" type="line" smooth="yes"/>
      <point x="428" y="5"/>
      <point x="434" y="0"/>
      <point x="449" y="0" type="curve" smooth="yes"/>
      <point x="505" y="0" type="line" smooth="yes"/>
      <point x="527" y="0"/>
      <point x="531" y="7"/>
      <point x="531" y="27" type="curve" smooth="yes"/>
      <point x="531" y="443" type="line" smooth="yes"/>
      <point x="531" y="467"/>
      <point x="521" y="480"/>
      <point x="493" y="480" type="curve" smooth="yes"/>
      <point x="441" y="480" type="line" smooth="yes"/>
      <point x="413" y="480"/>
      <point x="403" y="467"/>
      <point x="403" y="443" type="curve" smooth="yes"/>
      <point x="403" y="180" type="line" smooth="yes"/>
      <point x="403" y="117"/>
      <point x="349" y="76"/>
      <point x="281" y="76" type="curve" smooth="yes"/>
      <point x="217" y="76"/>
      <point x="182" y="103"/>
      <point x="182" y="169" type="curve" smooth="yes"/>
      <point x="182" y="443" type="line" smooth="yes"/>
      <point x="182" y="467"/>
      <point x="172" y="480"/>
      <point x="144" y="480" type="curve" smooth="yes"/>
      <point x="91" y="480" type="line" smooth="yes"/>
      <point x="64" y="480"/>
      <point x="54" y="467"/>
      <point x="54" y="443" type="curve" smooth="yes"/>
      <point x="54" y="166" type="line" smooth="yes"/>
      <point x="54" y="42"/>
      <point x="131" y="-15"/>
      <point x="236" y="-15" type="curve" smooth="yes"/>
    </contour>
    <contour>
      <point x="201" y="543" type="line" smooth="yes"/>
      <point x="230" y="543"/>
      <point x="248" y="566"/>
      <point x="248" y="593" type="curve" smooth="yes"/>
      <point x="248" y="612" type="line" smooth="yes"/>
      <point x="248" y="639"/>
      <point x="229" y="661"/>
      <point x="201" y="661" type="curve" smooth="yes"/>
      <point x="181" y="661" type="line" smooth="yes"/>
      <point x="153" y="661"/>
      <point x="134" y="639"/>
      <point x="134" y="612" type="curve" smooth="yes"/>
      <point x="134" y="593" type="line" smooth="yes"/>
      <point x="134" y="566"/>
      <point x="153" y="543"/>
      <point x="181" y="543" type="curve" smooth="yes"/>
    </contour>
    <contour>
      <point x="398" y="543" type="line" smooth="yes"/>
      <point x="427" y="543"/>
      <point x="445" y="566"/>
      <point x="445" y="593" type="curve" smooth="yes"/>
      <point x="445" y="612" type="line" smooth="yes"/>
      <point x="445" y="639"/>
      <point x="426" y="661"/>
      <point x="398" y="661" type="curve" smooth="yes"/>
      <point x="378" y="661" type="line" smooth="yes"/>
      <point x="351" y="661"/>
      <point x="331" y="639"/>
      <point x="331" y="612" type="curve" smooth="yes"/>
      <point x="331" y="593" type="line" smooth="yes"/>
      <point x="331" y="566"/>
      <point x="351" y="543"/>
      <point x="378" y="543" type="curve" smooth="yes"/>
    </contour>
  </outline>
</glyph>
<glyph name="thorn" format="1">
  <advance width="617"/>
  <unicode hex="00FE"/>
  <note>
	thorn
  </note>
  <outline>
    <contour>
      <point x="147" y="-202" type="line" smooth="yes"/>
      <point x="175" y="-202"/>
      <point x="185" y="-190"/>
      <point x="185" y="-166" type="curve" smooth="yes"/>
      <point x="185" y="36" type="line"/>
      <point x="220" y="0"/>
      <point x="275" y="-15"/>
      <point x="340" y="-15" type="curve" smooth="yes"/>
      <point x="489" y="-15"/>
      <point x="578" y="82"/>
      <point x="578" y="239" type="curve" smooth="yes"/>
      <point x="578" y="410"/>
      <point x="478" y="495"/>
      <point x="298" y="495" type="curve" smooth="yes"/>
      <point x="259" y="495"/>
      <point x="216" y="487"/>
      <point x="185" y="476" type="curve"/>
      <point x="185" y="658" type="line" smooth="yes"/>
      <point x="185" y="682"/>
      <point x="175" y="695"/>
      <point x="147" y="695" type="curve" smooth="yes"/>
      <point x="96" y="695" type="line" smooth="yes"/>
      <point x="69" y="695"/>
      <point x="59" y="682"/>
      <point x="59" y="658" type="curve" smooth="yes"/>
      <point x="59" y="-166" type="line" smooth="yes"/>
      <point x="59" y="-190"/>
      <point x="69" y="-202"/>
      <point x="96" y="-202" type="curve" smooth="yes"/>
    </contour>
    <contour>
      <point x="244" y="76"/>
      <point x="185" y="116"/>
      <point x="185" y="187" type="curve" smooth="yes"/>
      <point x="185" y="384" type="line"/>
      <point x="208" y="396"/>
      <point x="246" y="403"/>
      <point x="285" y="403" type="curve" smooth="yes"/>
      <point x="393" y="403"/>
      <point x="451" y="362"/>
      <point x="451" y="243" type="curve" smooth="yes"/>
      <point x="451" y="138"/>
      <point x="407" y="76"/>
      <point x="311" y="76" type="curve" smooth="yes"/>
    </contour>
  </outline>
</glyph>
<glyph name="ydieresis" format="1">
  <advance width="595"/>
  <unicode hex="00FF"/>
  <note>
	ydieresis
  </note>
  <outline>
    <contour>
      <point x="278" y="-156"/>
      <point x="315" y="-96"/>
      <point x="384" y="51" type="curve" smooth="yes"/>
      <point x="572" y="452" type="line" smooth="yes"/>
      <point x="579" y="466"/>
      <point x="577" y="480"/>
      <point x="560" y="480" type="curve" smooth="yes"/>
      <point x="475" y="480" type="line" smooth="yes"/>
      <point x="457" y="480"/>
      <point x="451" y="475"/>
      <point x="445" y="461" type="curve" smooth="yes"/>
      <point x="311" y="147" type="line"/>
      <point x="177" y="461" type="line" smooth="yes"/>
      <point x="171" y="475"/>
      <point x="165" y="480"/>
      <point x="147" y="480" type="curve" smooth="yes"/>
      <point x="62" y="480" type="line" smooth="yes"/>
      <point x="45" y="480"/>
      <point x="43" y="466"/>
      <point x="50" y="452" type="curve" smooth="yes"/>
      <point x="252" y="22" type="line"/>
      <point x="230" y="-34"/>
      <point x="212" y="-63"/>
      <point x="170" y="-63" type="curve" smooth="yes"/>
      <point x="138" y="-63"/>
      <point x="118" y="-54"/>
      <point x="98" y="-39" type="curve" smooth="yes"/>
      <point x="87" y="-31"/>
      <point x="81" y="-31"/>
      <point x="74" y="-43" type="curve" smooth="yes"/>
      <point x="46" y="-91" type="line" smooth="yes"/>
      <point x="40" y="-101"/>
      <point x="40" y="-107"/>
      <point x="50" y="-115" type="curve" smooth="yes"/>
      <point x="79" y="-139"/>
      <point x="122" y="-156"/>
      <point x="175" y="-156" type="curve" smooth="yes"/>
    </contour>
    <contour>
      <point x="224" y="551" type="line" smooth="yes"/>
      <point x="253" y="551"/>
      <point x="271" y="574"/>
      <point x="271" y="601" type="curve" smooth="yes"/>
      <point x="271" y="620" type="line" smooth="yes"/>
      <point x="271" y="647"/>
      <point x="252" y="669"/>
      <point x="224" y="669" type="curve" smooth="yes"/>
      <point x="204" y="669" type="line" smooth="yes"/>
      <point x="176" y="669"/>
      <point x="157" y="647"/>
      <point x="157" y="620" type="curve" smooth="yes"/>
      <point x="157" y="601" type="line" smooth="yes"/>
      <point x="157" y="574"/>
      <point x="176" y="551"/>
      <point x="204" y="551" type="curve" smooth="yes"/>
    </contour>
    <contour>
      <point x="421" y="551" type="line" smooth="yes"/>
      <point x="450" y="551"/>
      <point x="468" y="574"/>
      <point x="468" y="601" type="curve" smooth="yes"/>
      <point x="468" y="620" type="line" smooth="yes"/>
      <point x="468" y="647"/>
      <point x="449" y="669"/>
      <point x="421" y="669" type="curve" smooth="yes"/>
      <point x="401" y="669" type="line" smooth="yes"/>
      <point x="374" y="669"/>
      <point x="354" y="647"/>
      <point x="354" y="620" type="curve" smooth="yes"/>
      <point x="354" y="601" type="line" smooth="yes"/>
      <point x="354" y="574"/>
      <point x="374" y="551"/>
      <point x="401" y="551" type="curve" smooth="yes"/>
    </contour>
  </outline>
</glyph>
<glyph name="Aogonek" format="1">
  <advance width="733"/>
  <unicode hex="0104"/>
  <note>
	Aogonek
  </note>
  <outline>
    <contour>
      <point x="143" y="0" type="line" smooth="yes"/>
      <point x="161" y="0"/>
      <point x="166" y="4"/>
      <point x="172" y="18" type="curve" smooth="yes"/>
      <point x="228" y="158" type="line"/>
      <point x="504" y="158" type="line"/>
      <point x="561" y="18" type="line" smooth="yes"/>
      <point x="567" y="4"/>
      <point x="572" y="0"/>
      <point x="590" y="0" type="curve" smooth="yes"/>
      <point x="677" y="0" type="line" smooth="yes"/>
      <point x="693" y="0"/>
      <point x="698" y="12"/>
      <point x="691" y="28" type="curve" smooth="yes"/>
      <point x="427" y="654" type="line" smooth="yes"/>
      <point x="419" y="673"/>
      <point x="413" y="680"/>
      <point x="394" y="680" type="curve" smooth="yes"/>
      <point x="339" y="680" type="line" smooth="yes"/>
      <point x="321" y="680"/>
      <point x="314" y="673"/>
      <point x="306" y="654" type="curve" smooth="yes"/>
      <point x="42" y="28" type="line" smooth="yes"/>
      <point x="35" y="12"/>
      <point x="40" y="0"/>
      <point x="56" y="0" type="curve" smooth="yes"/>
    </contour>
    <contour>
      <point x="616" y="-209"/>
      <point x="641" y="-206"/>
      <point x="659" y="-197" type="curve" smooth="yes"/>
      <point x="672" y="-191"/>
      <point x="672" y="-187"/>
      <point x="669" y="-180" type="curve" smooth="yes"/>
      <point x="654" y="-147" type="line"/>
      <point x="650" y="-139"/>
      <point x="647" y="-139"/>
      <point x="640" y="-142" type="curve"/>
      <point x="634" y="-145"/>
      <point x="627" y="-146"/>
      <point x="618" y="-146" type="curve" smooth="yes"/>
      <point x="602" y="-146"/>
      <point x="594" y="-137"/>
      <point x="594" y="-119" type="curve" smooth="yes"/>
      <point x="594" y="-90"/>
      <point x="606" y="-67"/>
      <point x="653" y="-11" type="curve" smooth="yes"/>
      <point x="660" y="-3"/>
      <point x="655" y="5"/>
      <point x="643" y="5" type="curve" smooth="yes"/>
      <point x="584" y="5" type="line" smooth="yes"/>
      <point x="571" y="5"/>
      <point x="567" y="1"/>
      <point x="559" y="-8" type="curve" smooth="yes"/>
      <point x="515" y="-58"/>
      <point x="498" y="-95"/>
      <point x="498" y="-131" type="curve" smooth="yes"/>
      <point x="498" y="-173"/>
      <point x="525" y="-209"/>
      <point x="585" y="-209" type="curve" smooth="yes"/>
    </contour>
    <contour>
      <point x="366" y="513" type="line"/>
      <point x="472" y="251" type="line"/>
      <point x="260" y="251" type="line"/>
    </contour>
  </outline>
</glyph>
<glyph name="aogonek" format="1">
  <advance width="615"/>
  <unicode hex="0105"/>
  <note>
	aogonek
  </note>
  <outline>
    <contour>
      <point x="338" y="-15"/>
      <point x="398" y="6"/>
      <point x="440" y="58" type="curve"/>
      <point x="448" y="19" type="line" smooth="yes"/>
      <point x="451" y="6"/>
      <point x="457" y="0"/>
      <point x="472" y="0" type="curve" smooth="yes"/>
      <point x="527" y="0" type="line" smooth="yes"/>
      <point x="549" y="0"/>
      <point x="556" y="7"/>
      <point x="556" y="27" type="curve" smooth="yes"/>
      <point x="556" y="435" type="line"/>
      <point x="506" y="469"/>
      <point x="434" y="495"/>
      <point x="341" y="495" type="curve" smooth="yes"/>
      <point x="157" y="495"/>
      <point x="39" y="382"/>
      <point x="39" y="212" type="curve" smooth="yes"/>
      <point x="39" y="65"/>
      <point x="125" y="-15"/>
      <point x="253" y="-15" type="curve" smooth="yes"/>
    </contour>
    <contour>
      <point x="499" y="-203"/>
      <point x="524" y="-200"/>
      <point x="542" y="-191" type="curve" smooth="yes"/>
      <point x="555" y="-185"/>
      <point x="555" y="-181"/>
      <point x="552" y="-174" type="curve" smooth="yes"/>
      <point x="537" y="-141" type="line"/>
      <point x="533" y="-133"/>
      <point x="530" y="-133"/>
      <point x="523" y="-136" type="curve"/>
      <point x="517" y="-139"/>
      <point x="510" y="-140"/>
      <point x="501" y="-140" type="curve" smooth="yes"/>
      <point x="485" y="-140"/>
      <point x="477" y="-131"/>
      <point x="477" y="-113" type="curve" smooth="yes"/>
      <point x="477" y="-84"/>
      <point x="489" y="-61"/>
      <point x="536" y="-5" type="curve" smooth="yes"/>
      <point x="543" y="3"/>
      <point x="538" y="11"/>
      <point x="526" y="11" type="curve" smooth="yes"/>
      <point x="467" y="11" type="line" smooth="yes"/>
      <point x="454" y="11"/>
      <point x="450" y="7"/>
      <point x="442" y="-2" type="curve" smooth="yes"/>
      <point x="398" y="-52"/>
      <point x="381" y="-89"/>
      <point x="381" y="-125" type="curve" smooth="yes"/>
      <point x="381" y="-167"/>
      <point x="408" y="-203"/>
      <point x="468" y="-203" type="curve" smooth="yes"/>
    </contour>
    <contour>
      <point x="210" y="76"/>
      <point x="165" y="120"/>
      <point x="165" y="216" type="curve" smooth="yes"/>
      <point x="165" y="335"/>
      <point x="236" y="404"/>
      <point x="340" y="404" type="curve" smooth="yes"/>
      <point x="380" y="404"/>
      <point x="407" y="399"/>
      <point x="435" y="384" type="curve"/>
      <point x="435" y="189" type="line" smooth="yes"/>
      <point x="435" y="117"/>
      <point x="367" y="76"/>
      <point x="301" y="76" type="curve" smooth="yes"/>
    </contour>
  </outline>
</glyph>
<glyph name="cacute" format="1">
  <advance width="565"/>
  <unicode hex="0107"/>
  <note>
	cacute
  </note>
  <outline>
    <contour>
      <point x="406" y="-15"/>
      <point x="464" y="3"/>
      <point x="515" y="36" type="curve" smooth="yes"/>
      <point x="527" y="44"/>
      <point x="528" y="50"/>
      <point x="521" y="61" type="curve" smooth="yes"/>
      <point x="492" y="110" type="line" smooth="yes"/>
      <point x="484" y="123"/>
      <point x="480" y="123"/>
      <point x="467" y="115" type="curve" smooth="yes"/>
      <point x="433" y="93"/>
      <point x="394" y="76"/>
      <point x="334" y="76" type="curve" smooth="yes"/>
      <point x="225" y="76"/>
      <point x="165" y="128"/>
      <point x="165" y="238" type="curve" smooth="yes"/>
      <point x="165" y="340"/>
      <point x="225" y="404"/>
      <point x="326" y="404" type="curve" smooth="yes"/>
      <point x="385" y="404"/>
      <point x="422" y="390"/>
      <point x="460" y="366" type="curve" smooth="yes"/>
      <point x="473" y="358"/>
      <point x="478" y="358"/>
      <point x="485" y="370" type="curve" smooth="yes"/>
      <point x="512" y="417" type="line" smooth="yes"/>
      <point x="519" y="429"/>
      <point x="519" y="436"/>
      <point x="508" y="444" type="curve" smooth="yes"/>
      <point x="458" y="479"/>
      <point x="404" y="495"/>
      <point x="319" y="495" type="curve" smooth="yes"/>
      <point x="146" y="495"/>
      <point x="39" y="390"/>
      <point x="39" y="238" type="curve" smooth="yes"/>
      <point x="39" y="73"/>
      <point x="145" y="-15"/>
      <point x="321" y="-15" type="curve" smooth="yes"/>
    </contour>
    <contour>
      <point x="313" y="555" type="line" smooth="yes"/>
      <point x="339" y="555"/>
      <point x="346" y="560"/>
      <point x="355" y="577" type="curve" smooth="yes"/>
      <point x="421" y="706" type="line" smooth="yes"/>
      <point x="432" y="727"/>
      <point x="422" y="738"/>
      <point x="400" y="738" type="curve" smooth="yes"/>
      <point x="326" y="738" type="line" smooth="yes"/>
      <point x="301" y="738"/>
      <point x="296" y="731"/>
      <point x="289" y="714" type="curve"/>
      <point x="242" y="583" type="line" smooth="yes"/>
      <point x="236" y="566"/>
      <point x="241" y="555"/>
      <point x="261" y="555" type="curve" smooth="yes"/>
    </contour>
  </outline>
</glyph>
<glyph name="Dcaron" format="1">
  <advance width="683"/>
  <unicode hex="010E"/>
  <note>
	Dcaron
  </note>
  <outline>
    <contour>
      <point x="296" y="0" type="line" smooth="yes"/>
      <point x="512" y="0"/>
      <point x="644" y="97"/>
      <point x="644" y="340" type="curve" smooth="yes"/>
      <point x="644" y="585"/>
      <point x="512" y="680"/>
      <point x="296" y="680" type="curve" smooth="yes"/>
      <point x="96" y="680" type="line" smooth="yes"/>
      <point x="69" y="680"/>
      <point x="59" y="667"/>
      <point x="59" y="643" type="curve" smooth="yes"/>
      <point x="59" y="36" type="line" smooth="yes"/>
      <point x="59" y="12"/>
      <point x="69" y="0"/>
      <point x="96" y="0" type="curve" smooth="yes"/>
    </contour>
    <contour>
      <point x="187" y="582" type="line"/>
      <point x="304" y="582" type="line" smooth="yes"/>
      <point x="437" y="582"/>
      <point x="517" y="525"/>
      <point x="517" y="340" type="curve" smooth="yes"/>
      <point x="517" y="155"/>
      <point x="437" y="97"/>
      <point x="304" y="97" type="curve" smooth="yes"/>
      <point x="187" y="97" type="line"/>
    </contour>
    <contour>
      <point x="331" y="754" type="line" smooth="yes"/>
      <point x="354" y="754"/>
      <point x="358" y="760"/>
      <point x="369" y="775" type="curve" smooth="yes"/>
      <point x="473" y="916" type="line" smooth="yes"/>
      <point x="487" y="934"/>
      <point x="483" y="948"/>
      <point x="462" y="948" type="curve" smooth="yes"/>
      <point x="410" y="948" type="line" smooth="yes"/>
      <point x="385" y="948"/>
      <point x="380" y="944"/>
      <point x="371" y="929" type="curve"/>
      <point x="303" y="828" type="line"/>
      <point x="234" y="929" type="line" smooth="yes"/>
      <point x="224" y="944"/>
      <point x="219" y="948"/>
      <point x="195" y="948" type="curve" smooth="yes"/>
      <point x="142" y="948" type="line" smooth="yes"/>
      <point x="122" y="948"/>
      <point x="118" y="935"/>
      <point x="132" y="916" type="curve" smooth="yes"/>
      <point x="236" y="775" type="line"/>
      <point x="248" y="760"/>
      <point x="251" y="754"/>
      <point x="274" y="754" type="curve" smooth="yes"/>
    </contour>
  </outline>
</glyph>
<glyph name="Eogonek" format="1">
  <advance width="576"/>
  <unicode hex="0118"/>
  <note>
	Eogonek
  </note>
  <outline>
    <contour>
      <point x="511" y="0" type="line" smooth="yes"/>
      <point x="538" y="0"/>
      <point x="547" y="10"/>
      <point x="547" y="34" type="curve" smooth="yes"/>
      <point x="547" y="61" type="line" smooth="yes"/>
      <point x="547" y="86"/>
      <point x="538" y="97"/>
      <point x="511" y="97" type="curve" smooth="yes"/>
      <point x="187" y="97" type="line"/>
      <point x="187" y="292" type="line"/>
      <point x="423" y="292" type="line" smooth="yes"/>
      <point x="450" y="292"/>
      <point x="459" y="303"/>
      <point x="459" y="328" type="curve" smooth="yes"/>
      <point x="459" y="353" type="line" smooth="yes"/>
      <point x="459" y="378"/>
      <point x="450" y="388"/>
      <point x="423" y="388" type="curve" smooth="yes"/>
      <point x="187" y="388" type="line"/>
      <point x="187" y="582" type="line"/>
      <point x="512" y="582" type="line" smooth="yes"/>
      <point x="539" y="582"/>
      <point x="547" y="593"/>
      <point x="547" y="618" type="curve" smooth="yes"/>
      <point x="547" y="645" type="line" smooth="yes"/>
      <point x="547" y="670"/>
      <point x="539" y="680"/>
      <point x="512" y="680" type="curve" smooth="yes"/>
      <point x="96" y="680" type="line" smooth="yes"/>
      <point x="69" y="680"/>
      <point x="59" y="667"/>
      <point x="59" y="643" type="curve" smooth="yes"/>
      <point x="59" y="36" type="line" smooth="yes"/>
      <point x="59" y="12"/>
      <point x="69" y="0"/>
      <point x="96" y="0" type="curve" smooth="yes"/>
    </contour>
    <contour>
      <point x="475" y="-208"/>
      <point x="500" y="-205"/>
      <point x="518" y="-196" type="curve" smooth="yes"/>
      <point x="531" y="-190"/>
      <point x="531" y="-186"/>
      <point x="528" y="-179" type="curve" smooth="yes"/>
      <point x="513" y="-146" type="line"/>
      <point x="509" y="-138"/>
      <point x="506" y="-138"/>
      <point x="499" y="-141" type="curve"/>
      <point x="493" y="-144"/>
      <point x="486" y="-145"/>
      <point x="477" y="-145" type="curve" smooth="yes"/>
      <point x="461" y="-145"/>
      <point x="453" y="-136"/>
      <point x="453" y="-118" type="curve" smooth="yes"/>
      <point x="453" y="-89"/>
      <point x="465" y="-66"/>
      <point x="512" y="-10" type="curve" smooth="yes"/>
      <point x="519" y="-2"/>
      <point x="514" y="6"/>
      <point x="502" y="6" type="curve" smooth="yes"/>
      <point x="443" y="6" type="line" smooth="yes"/>
      <point x="430" y="6"/>
      <point x="426" y="2"/>
      <point x="418" y="-7" type="curve" smooth="yes"/>
      <point x="374" y="-57"/>
      <point x="357" y="-94"/>
      <point x="357" y="-130" type="curve" smooth="yes"/>
      <point x="357" y="-172"/>
      <point x="384" y="-208"/>
      <point x="444" y="-208" type="curve" smooth="yes"/>
    </contour>
  </outline>
</glyph>
<glyph name="Gcircumflex" format="1">
  <advance width="700"/>
  <unicode hex="011C"/>
  <note>
	Gcircumflex
  </note>
  <outline>
    <contour>
      <point x="497" y="-15"/>
      <point x="583" y="4"/>
      <point x="645" y="43" type="curve" smooth="yes"/>
      <point x="659" y="52"/>
      <point x="661" y="60"/>
      <point x="661" y="79" type="curve" smooth="yes"/>
      <point x="661" y="343" type="line" smooth="yes"/>
      <point x="661" y="371"/>
      <point x="651" y="386"/>
      <point x="620" y="386" type="curve" smooth="yes"/>
      <point x="409" y="386" type="line" smooth="yes"/>
      <point x="382" y="386"/>
      <point x="373" y="377"/>
      <point x="373" y="352" type="curve" smooth="yes"/>
      <point x="373" y="326" type="line" smooth="yes"/>
      <point x="373" y="301"/>
      <point x="382" y="290"/>
      <point x="409" y="290" type="curve" smooth="yes"/>
      <point x="541" y="290" type="line"/>
      <point x="541" y="105" type="line"/>
      <point x="508" y="89"/>
      <point x="453" y="80"/>
      <point x="401" y="80" type="curve" smooth="yes"/>
      <point x="261" y="80"/>
      <point x="165" y="158"/>
      <point x="165" y="340" type="curve" smooth="yes"/>
      <point x="165" y="521"/>
      <point x="264" y="600"/>
      <point x="409" y="600" type="curve" smooth="yes"/>
      <point x="481" y="600"/>
      <point x="535" y="582"/>
      <point x="571" y="562" type="curve" smooth="yes"/>
      <point x="584" y="555"/>
      <point x="589" y="555"/>
      <point x="596" y="566" type="curve"/>
      <point x="625" y="616" type="line" smooth="yes"/>
      <point x="632" y="628"/>
      <point x="631" y="634"/>
      <point x="620" y="641" type="curve" smooth="yes"/>
      <point x="567" y="676"/>
      <point x="485" y="695"/>
      <point x="395" y="695" type="curve" smooth="yes"/>
      <point x="170" y="695"/>
      <point x="39" y="568"/>
      <point x="39" y="340" type="curve" smooth="yes"/>
      <point x="39" y="111"/>
      <point x="170" y="-15"/>
      <point x="395" y="-15" type="curve" smooth="yes"/>
    </contour>
    <contour>
      <point x="285" y="726" type="line" smooth="yes"/>
      <point x="309" y="726"/>
      <point x="316" y="733"/>
      <point x="325" y="747" type="curve" smooth="yes"/>
      <point x="393" y="847" type="line"/>
      <point x="460" y="747" type="line" smooth="yes"/>
      <point x="470" y="733"/>
      <point x="476" y="726"/>
      <point x="501" y="726" type="curve" smooth="yes"/>
      <point x="548" y="726" type="line" smooth="yes"/>
      <point x="568" y="726"/>
      <point x="577" y="739"/>
      <point x="563" y="758" type="curve" smooth="yes"/>
      <point x="459" y="899" type="line" smooth="yes"/>
      <point x="448" y="914"/>
      <point x="444" y="921"/>
      <point x="421" y="921" type="curve" smooth="yes"/>
      <point x="364" y="921" type="line" smooth="yes"/>
      <point x="341" y="921"/>
      <point x="338" y="914"/>
      <point x="326" y="899" type="curve"/>
      <point x="222" y="758" type="line" smooth="yes"/>
      <point x="208" y="739"/>
      <point x="217" y="726"/>
      <point x="238" y="726" type="curve" smooth="yes"/>
    </contour>
  </outline>
</glyph>
<glyph name="gbreve" format="1">
  <advance width="617"/>
  <unicode hex="011F"/>
  <note>
	gbreve
  </note>
  <outline>
    <contour>
      <point x="489" y="-170"/>
      <point x="558" y="-64"/>
      <point x="558" y="89" type="curve" smooth="yes"/>
      <point x="558" y="432" type="line"/>
      <point x="509" y="466"/>
      <point x="420" y="495"/>
      <point x="329" y="495" type="curve" smooth="yes"/>
      <point x="141" y="495"/>
      <point x="39" y="401"/>
      <point x="39" y="234" type="curve" smooth="yes"/>
      <point x="39" y="85"/>
      <point x="128" y="1"/>
      <point x="276" y="1" type="curve" smooth="yes"/>
      <point x="348" y="1"/>
      <point x="395" y="20"/>
      <point x="432" y="60" type="curve"/>
      <point x="432" y="-43"/>
      <point x="390" y="-80"/>
      <point x="303" y="-80" type="curve" smooth="yes"/>
      <point x="250" y="-80"/>
      <point x="197" y="-71"/>
      <point x="160" y="-52" type="curve" smooth="yes"/>
      <point x="148" y="-46"/>
      <point x="144" y="-48"/>
      <point x="138" y="-59" type="curve"/>
      <point x="109" y="-108" type="line" smooth="yes"/>
      <point x="104" y="-116"/>
      <point x="107" y="-124"/>
      <point x="117" y="-130" type="curve" smooth="yes"/>
      <point x="156" y="-154"/>
      <point x="237" y="-170"/>
      <point x="314" y="-170" type="curve" smooth="yes"/>
    </contour>
    <contour>
      <point x="211" y="95"/>
      <point x="165" y="143"/>
      <point x="165" y="242" type="curve" smooth="yes"/>
      <point x="165" y="356"/>
      <point x="225" y="403"/>
      <point x="323" y="403" type="curve" smooth="yes"/>
      <point x="365" y="403"/>
      <point x="407" y="396"/>
      <point x="432" y="384" type="curve"/>
      <point x="432" y="206" type="line" smooth="yes"/>
      <point x="432" y="135"/>
      <point x="379" y="95"/>
      <point x="306" y="95" type="curve" smooth="yes"/>
    </contour>
    <contour>
      <point x="434" y="554"/>
      <point x="488" y="623"/>
      <point x="488" y="717" type="curve" smooth="yes"/>
      <point x="488" y="728"/>
      <point x="482" y="735"/>
      <point x="472" y="735" type="curve" smooth="yes"/>
      <point x="406" y="735" type="line" smooth="yes"/>
      <point x="392" y="735"/>
      <point x="389" y="728"/>
      <point x="389" y="716" type="curve" smooth="yes"/>
      <point x="389" y="672"/>
      <point x="374" y="641"/>
      <point x="323" y="641" type="curve" smooth="yes"/>
      <point x="271" y="641"/>
      <point x="257" y="672"/>
      <point x="257" y="716" type="curve" smooth="yes"/>
      <point x="257" y="728"/>
      <point x="254" y="735"/>
      <point x="240" y="735" type="curve" smooth="yes"/>
      <point x="174" y="735" type="line" smooth="yes"/>
      <point x="164" y="735"/>
      <point x="158" y="728"/>
      <point x="158" y="717" type="curve" smooth="yes"/>
      <point x="158" y="623"/>
      <point x="210" y="554"/>
      <point x="323" y="554" type="curve" smooth="yes"/>
    </contour>
  </outline>
</glyph>
<glyph name="gdotaccent" format="1">
  <advance width="617"/>
  <unicode hex="0121"/>
  <note>
	gdotaccent
  </note>
  <outline>
    <contour>
      <point x="489" y="-170"/>
      <point x="558" y="-64"/>
      <point x="558" y="89" type="curve" smooth="yes"/>
      <point x="558" y="432" type="line"/>
      <point x="509" y="466"/>
      <point x="420" y="495"/>
      <point x="329" y="495" type="curve" smooth="yes"/>
      <point x="141" y="495"/>
      <point x="39" y="401"/>
      <point x="39" y="234" type="curve" smooth="yes"/>
      <point x="39" y="85"/>
      <point x="128" y="1"/>
      <point x="276" y="1" type="curve" smooth="yes"/>
      <point x="348" y="1"/>
      <point x="395" y="20"/>
      <point x="432" y="60" type="curve"/>
      <point x="432" y="-43"/>
      <point x="390" y="-80"/>
      <point x="303" y="-80" type="curve" smooth="yes"/>
      <point x="250" y="-80"/>
      <point x="197" y="-71"/>
      <point x="160" y="-52" type="curve" smooth="yes"/>
      <point x="148" y="-46"/>
      <point x="144" y="-48"/>
      <point x="138" y="-59" type="curve"/>
      <point x="109" y="-108" type="line" smooth="yes"/>
      <point x="104" y="-116"/>
      <point x="107" y="-124"/>
      <point x="117" y="-130" type="curve" smooth="yes"/>
      <point x="156" y="-154"/>
      <point x="237" y="-170"/>
      <point x="314" y="-170" type="curve" smooth="yes"/>
    </contour>
    <contour>
      <point x="211" y="95"/>
      <point x="165" y="143"/>
      <point x="165" y="242" type="curve" smooth="yes"/>
      <point x="165" y="356"/>
      <point x="225" y="403"/>
      <point x="323" y="403" type="curve" smooth="yes"/>
      <point x="365" y="403"/>
      <point x="407" y="396"/>
      <point x="432" y="384" type="curve"/>
      <point x="432" y="206" type="line" smooth="yes"/>
      <point x="432" y="135"/>
      <point x="379" y="95"/>
      <point x="306" y="95" type="curve" smooth="yes"/>
    </contour>
    <contour>
      <point x="338" y="566" type="line" smooth="yes"/>
      <point x="366" y="566"/>
      <point x="385" y="589"/>
      <point x="385" y="616" type="curve" smooth="yes"/>
      <point x="385" y="635" type="line" smooth="yes"/>
      <point x="385" y="662"/>
      <point x="365" y="684"/>
      <point x="338" y="684" type="curve" smooth="yes"/>
      <point x="317" y="684" type="line" smooth="yes"/>
      <point x="290" y="684"/>
      <point x="270" y="662"/>
      <point x="270" y="635" type="curve" smooth="yes"/>
      <point x="270" y="616" type="line" smooth="yes"/>
      <point x="270" y="589"/>
      <point x="290" y="566"/>
      <point x="317" y="566" type="curve" smooth="yes"/>
    </contour>
  </outline>
</glyph>
<glyph name="Gcommaaccent" format="1">
  <advance width="700"/>
  <unicode hex="0122"/>
  <note>
	Gcommaaccent
  </note>
  <outline>
    <contour>
      <point x="497" y="-15"/>
      <point x="583" y="4"/>
      <point x="645" y="43" type="curve" smooth="yes"/>
      <point x="659" y="52"/>
      <point x="661" y="60"/>
      <point x="661" y="79" type="curve" smooth="yes"/>
      <point x="661" y="343" type="line" smooth="yes"/>
      <point x="661" y="371"/>
      <point x="651" y="386"/>
      <point x="620" y="386" type="curve" smooth="yes"/>
      <point x="409" y="386" type="line" smooth="yes"/>
      <point x="382" y="386"/>
      <point x="373" y="377"/>
      <point x="373" y="352" type="curve" smooth="yes"/>
      <point x="373" y="326" type="line" smooth="yes"/>
      <point x="373" y="301"/>
      <point x="382" y="290"/>
      <point x="409" y="290" type="curve" smooth="yes"/>
      <point x="541" y="290" type="line"/>
      <point x="541" y="105" type="line"/>
      <point x="508" y="89"/>
      <point x="453" y="80"/>
      <point x="401" y="80" type="curve" smooth="yes"/>
      <point x="261" y="80"/>
      <point x="165" y="158"/>
      <point x="165" y="340" type="curve" smooth="yes"/>
      <point x="165" y="521"/>
      <point x="264" y="600"/>
      <point x="409" y="600" type="curve" smooth="yes"/>
      <point x="481" y="600"/>
      <point x="535" y="582"/>
      <point x="571" y="562" type="curve" smooth="yes"/>
      <point x="584" y="555"/>
      <point x="589" y="555"/>
      <point x="596" y="566" type="curve"/>
      <point x="625" y="616" type="line" smooth="yes"/>
      <point x="632" y="628"/>
      <point x="631" y="634"/>
      <point x="620" y="641" type="curve" smooth="yes"/>
      <point x="567" y="676"/>
      <point x="485" y="695"/>
      <point x="395" y="695" type="curve" smooth="yes"/>
      <point x="170" y="695"/>
      <point x="39" y="568"/>
      <point x="39" y="340" type="curve" smooth="yes"/>
      <point x="39" y="111"/>
      <point x="170" y="-15"/>
      <point x="395" y="-15" type="curve" smooth="yes"/>
    </contour>
    <contour>
      <point x="372" y="-238" type="line" smooth="yes"/>
      <point x="389" y="-238"/>
      <point x="397" y="-232"/>
      <point x="401" y="-221" type="curve"/>
      <point x="466" y="-69" type="line" smooth="yes"/>
      <point x="476" y="-46"/>
      <point x="472" y="-36"/>
      <point x="446" y="-36" type="curve" smooth="yes"/>
      <point x="394" y="-36" type="line" smooth="yes"/>
      <point x="372" y="-36"/>
      <point x="364" y="-41"/>
      <point x="358" y="-62" type="curve" smooth="yes"/>
      <point x="312" y="-213" type="line" smooth="yes"/>
      <point x="307" y="-228"/>
      <point x="310" y="-238"/>
      <point x="328" y="-238" type="curve" smooth="yes"/>
    </contour>
  </outline>
</glyph>
